SplineFontDB: 3.0
FontName: FanwoodText-Italic
FullName: Fanwood Text Italic
FamilyName: Fanwood Text
Weight: Regular
Copyright: Copyright (c) 2011, Barry Schwartz
UComments: "Spread Fanwood Italic by using the emboldener. Set to 6, CJK, Squish." 
Version: 1.1
ItalicAngle: -9
UnderlinePosition: -100
UnderlineWidth: 50
Ascent: 690
Descent: 310
LayerCount: 3
Layer: 0 0 "Back"  1
Layer: 1 0 "Fore"  0
Layer: 2 0 "backup"  0
NeedsXUIDChange: 1
XUID: [1021 658 797806517 11107023]
OS2Version: 0
OS2_WeightWidthSlopeOnly: 0
OS2_UseTypoMetrics: 1
CreationTime: 1287776574
ModificationTime: 1295606151
OS2TypoAscent: 0
OS2TypoAOffset: 1
OS2TypoDescent: 0
OS2TypoDOffset: 1
OS2TypoLinegap: 0
OS2WinAscent: 0
OS2WinAOffset: 1
OS2WinDescent: 0
OS2WinDOffset: 1
HheadAscent: 0
HheadAOffset: 1
HheadDescent: 0
HheadDOffset: 1
OS2Vendor: 'PfEd'
Lookup: 3 0 0 "'aalt' Access All Alternates lookup 0"  {"'aalt' Access All Alternates lookup 0 subtable"  } ['aalt' ('DFLT' <'dflt' > ) ]
Lookup: 3 0 0 "'aalt' Access All Alternates in Latin lookup 0"  {"'aalt' Access All Alternates in Latin lookup 0 subtable"  } ['aalt' ('latn' <'CAT ' 'ROM ' 'MOL ' 'TRK ' 'AZE ' 'CRT ' 'dflt' > ) ]
Lookup: 1 0 0 "catalan"  {"catalan subtable"  } ['locl' ('latn' <'CAT ' > ) ]
Lookup: 1 0 0 "romanian"  {"romanian subtable"  } ['locl' ('latn' <'ROM ' 'MOL ' > ) ]
Lookup: 1 0 0 "turkish"  {"turkish subtable"  } ['locl' ('latn' <'TRK ' 'AZE ' 'CRT ' > ) ]
Lookup: 1 0 0 "numerators"  {"numerators subtable"  } ['frac' ('latn' <'dflt' 'CAT ' 'ROM ' 'MOL ' 'TRK ' 'AZE ' 'CRT ' > 'DFLT' <'dflt' > ) 'numr' ('latn' <'dflt' 'CAT ' 'ROM ' 'MOL ' 'TRK ' 'AZE ' 'CRT ' > 'DFLT' <'dflt' > ) ]
Lookup: 1 0 0 "denominators"  {"denominators subtable"  } ['dnom' ('latn' <'dflt' 'CAT ' 'ROM ' 'MOL ' 'TRK ' 'AZE ' 'CRT ' > 'DFLT' <'dflt' > ) ]

StartChar: a
Encoding: 97 97 0
Width: 433
VWidth: 0
Flags: W
HStem: -14 60<72.4808 143.783 286.96 335.5> 344 46<190.888 293.07>
VStem: 22 75<46.266 182.266> 251 71<1.72803 111.377> 340 63<333.892 385>
AnchorPoint: "top" 284 500 basechar 0
AnchorPoint: "l;bl" 0 10 basechar 0
AnchorPoint: "l;x" 20 380 basechar 0
AnchorPoint: "l;o" 0 200 basechar 0
AnchorPoint: "r;bl" 413 10 basechar 0
AnchorPoint: "r;x" 433 380 basechar 0
AnchorPoint: "r;o" 433 200 basechar 0
LayerCount: 3
Back
SplineSet
252 390 m 4
 276 390 296 379 310 359 c 4
 318 348 324 336 327 333 c 5
 331 342 340 371 340 373 c 5
 340 374 l 5
 340 374 l 4
 344 385 366 385 379 387 c 5
 388 388 403 388 403 379 c 4
 403 363 322 106 322 63 c 4
 322 53 326 46 333 46 c 4
 345 46 390 102 397 102 c 4
 403 102 411 94 411 85 c 4
 411 78 326 -14 281 -14 c 4
 264 -14 251 -5 251 13 c 4
 251 45 284 152 299 200 c 5
 278 165 237 101 188 50 c 4
 153 14 129 -13 90 -13 c 4
 45 -13 22 20 22 59 c 4
 22 175 99 390 252 390 c 4
232 344 m 4
 168 344 97 177 97 96 c 4
 97 73 101 46 120 46 c 4
 153 46 246 155 296 237 c 5
 307 255 311 285 311 289 c 4
 311 324 262 344 232 344 c 4
EndSplineSet
Fore
SplineSet
252 390 m 0
 276 390 296 379 310 359 c 0
 318 348 324 333 327 333 c 0
 328 333 337 362 340 374 c 0
 343 386 378 387 387 387 c 0
 395 387 403 386 403 379 c 0
 403 363 322 106 322 63 c 0
 322 53 326 46 333 46 c 0
 345 46 390 102 397 102 c 0
 403 102 411 94 411 85 c 0
 411 78 326 -14 281 -14 c 0
 264 -14 251 -5 251 13 c 0
 251 45 284 152 299 200 c 1
 278 165 237 101 188 50 c 0
 153 14 129 -13 90 -13 c 0
 45 -13 22 20 22 59 c 0
 22 175 99 390 252 390 c 0
232 344 m 0
 168 344 97 177 97 96 c 0
 97 73 101 46 120 46 c 0
 153 46 246 155 296 237 c 0
 307 255 311 285 311 289 c 0
 311 324 262 344 232 344 c 0
EndSplineSet
AlternateSubs2: "'aalt' Access All Alternates lookup 0 subtable" a.sub a.sup a.denom a.numer
AlternateSubs2: "'aalt' Access All Alternates in Latin lookup 0 subtable" a.sub a.sup a.denom a.numer
Substitution2: "'subs' Subscript in Latin lookup 8 subtable" a.sub
Substitution2: "'sups' Superscript in Latin lookup 7 subtable" a.sup
Substitution2: "denominators subtable" a.denom
Substitution2: "numerators subtable" a.numer
EndChar

StartChar: b
Encoding: 98 98 1
Width: 453
VWidth: 0
Flags: W
HStem: -11 34<131.505 225.121> 338 53<276.767 366.5> 665 20G<199.5 208.5>
VStem: 22 93<9.5 95> 130 89<527.453 672.897> 356 75<204.353 333.357>
AnchorPoint: "l;k;hi2" 40 710 basechar 0
AnchorPoint: "top" 198 780 basechar 0
AnchorPoint: "l;bl" 0 10 basechar 0
AnchorPoint: "l;x" 20 380 basechar 0
AnchorPoint: "l;o" 0 200 basechar 0
AnchorPoint: "r;bl" 433 10 basechar 0
AnchorPoint: "r;x" 453 380 basechar 0
AnchorPoint: "r;o" 453 200 basechar 0
LayerCount: 3
Back
SplineSet
39.34765625 646.928710938 m 4
 100.454101562 661.955078125 194.729492188 685 204 685 c 4
 212.899414062 685 219 680.850585938 219 672 c 4
 219 663.041992188 186.0078125 451.768554688 178.956054688 413.486328125 c 4
 169.163085938 357.176757812 142.70703125 225.549804688 133.341796875 179.200195312 c 5
 149.967773438 206.303710938 184.630859375 261.841796875 211.594726562 297.793945312 c 4
 255.526367188 356.700195312 283.578125 391 350 391 c 4
 382.717773438 391 403.563476562 379.678710938 416.12109375 367.12109375 c 4
 428.930664062 354.3125 431 339.197265625 431 323 c 4
 431 116.424804688 256.044921875 -11 170 -11 c 4
 123.352539062 -11 87.984375 17 82 17 c 4
 80.5615234375 17 71.220703125 13.2568359375 63.341796875 9.31640625 c 4
 63.23046875 9.2607421875 l 5
 63.1142578125 9.21484375 l 4
 58.2490234375 7.2685546875 45.091796875 1 35 1 c 4
 25.5888671875 1 22 6.5888671875 22 12 c 4
 22 21.931640625 33.9208984375 34.2890625 35.50390625 36.6640625 c 4
 35.5498046875 36.7333984375 l 5
 35.599609375 36.7998046875 l 4
 41.4228515625 44.5634765625 41.033203125 45.4794921875 43.060546875 54.6015625 c 5
 84.9931640625 278.243164062 130 588.818359375 130 623 c 4
 130 625.791015625 129.299804688 627 126 627 c 4
 120.33203125 627 52.3134765625 605 44 605 c 4
 33.619140625 605 32 615.880859375 32 633 c 4
 32 637.326171875 31.6005859375 645.379882812 39.34765625 646.928710938 c 4
115 80 m 4
 115 51.4951171875 133.596679688 23 180 23 c 4
 265.72265625 23 356 211.608398438 356 282 c 4
 356 306.900390625 347.139648438 338 317 338 c 4
 280.791992188 338 256.502929688 308.342773438 236.434570312 280.24609375 c 4
 169.340820312 187.1171875 115 109.923828125 115 80 c 4
EndSplineSet
Fore
SplineSet
39 647 m 0
 100 662 195 685 204 685 c 0
 213 685 219 682 219 672 c 0
 219 663 186 451 179 413 c 0
 169 357 142 225 133 179 c 1
 150 206 185 262 212 298 c 0
 256 357 284 391 350 391 c 0
 383 391 403 380 416 367 c 0
 429 354 431 339 431 323 c 0
 431 116 256 -11 170 -11 c 0
 123 -11 88 17 82 17 c 0
 81 17 71 13 63 9 c 0
 58 7 45 1 35 1 c 0
 26 1 22 7 22 12 c 0
 22 22 34 35 36 37 c 0
 42 45 41 46 43 55 c 0
 85 279 130 589 130 623 c 0
 130 626 129 629 126 629 c 0
 120 629 48 606 40 606 c 0
 34 606 32 618 32 636 c 0
 32 640 33 645 39 647 c 0
115 80 m 0
 115 51 134 23 180 23 c 0
 266 23 356 212 356 282 c 0
 356 307 347 338 317 338 c 0
 281 338 256 308 236 280 c 0
 169 187 115 110 115 80 c 0
EndSplineSet
AlternateSubs2: "'aalt' Access All Alternates lookup 0 subtable" b.sub b.sup b.denom b.numer
AlternateSubs2: "'aalt' Access All Alternates in Latin lookup 0 subtable" b.sub b.sup b.denom b.numer
Substitution2: "'subs' Subscript in Latin lookup 8 subtable" b.sub
Substitution2: "'sups' Superscript in Latin lookup 7 subtable" b.sup
Substitution2: "denominators subtable" b.denom
Substitution2: "numerators subtable" b.numer
EndChar

StartChar: c
Encoding: 99 99 2
Width: 402
VWidth: 0
Flags: W
HStem: -12 55<123.622 246.147> 361 33<192.432 277.751>
VStem: 22 71<72.0291 239.726> 286 71<259.069 356.514>
AnchorPoint: "cedilla" 138 -100 basechar 0
AnchorPoint: "top" 278 500 basechar 0
AnchorPoint: "l;bl" 0 10 basechar 0
AnchorPoint: "l;x" 20 380 basechar 0
AnchorPoint: "l;o" 0 200 basechar 0
AnchorPoint: "r;bl" 382 10 basechar 0
AnchorPoint: "r;x" 402 380 basechar 0
AnchorPoint: "r;o" 402 200 basechar 0
LayerCount: 3
Back
SplineSet
286 292 m 4
 286 300.25 287 308.25 287 316 c 4
 287 337.9296875 275.014648438 361 243 361 c 4
 206.369140625 361 165.111328125 334.743164062 139.505859375 295.350585938 c 5
 109.860351562 250.881835938 93 191.34765625 93 144 c 4
 93 118.078125 93.5029296875 43 196 43 c 4
 282.264648438 43 346.6640625 121 358 121 c 4
 364.3359375 121 373 111.708007812 373 104 c 4
 373 94.4052734375 261.915039062 -12 162 -12 c 4
 53.021484375 -12 22 62.0625 22 128 c 4
 22 292.548828125 149.13671875 394 246 394 c 4
 283.487304688 394 314.461914062 383.85546875 334.211914062 362.02734375 c 5
 347.600585938 347.608398438 357 328.791992188 357 304 c 4
 357 275.815429688 339.013671875 252 311 252 c 4
 291.9765625 252 286 273.07421875 286 292 c 4
EndSplineSet
Fore
SplineSet
286 292 m 0
 286 300 287 308 287 316 c 0
 287 338 275 361 243 361 c 0
 206 361 166 334 140 295 c 0
 110 251 93 191 93 144 c 0
 93 118 94 43 196 43 c 0
 282 43 352 121 358 121 c 0
 362 121 373 110 373 104 c 0
 373 94 262 -12 162 -12 c 0
 53 -12 22 62 22 128 c 0
 22 293 149 394 246 394 c 0
 283 394 314 384 334 362 c 0
 347 348 357 329 357 304 c 0
 357 276 339 252 311 252 c 0
 292 252 286 273 286 292 c 0
EndSplineSet
AlternateSubs2: "'aalt' Access All Alternates lookup 0 subtable" c.sub c.sup c.denom c.numer
AlternateSubs2: "'aalt' Access All Alternates in Latin lookup 0 subtable" c.sub c.sup c.denom c.numer
Substitution2: "'subs' Subscript in Latin lookup 8 subtable" c.sub
Substitution2: "'sups' Superscript in Latin lookup 7 subtable" c.sup
Substitution2: "denominators subtable" c.denom
Substitution2: "numerators subtable" c.numer
EndChar

StartChar: d
Encoding: 100 100 3
Width: 473
VWidth: 0
Flags: W
HStem: -10 58<99.3065 162.759 328.502 378.924> 354 28<201.702 289.877> 662 20G<442.5 449.5>
VStem: 22 72<53.4238 182.972> 284 76<10.5219 152.063>
AnchorPoint: "top" 428 780 basechar 0
AnchorPoint: "caron" 491 550 basechar 0
AnchorPoint: "l;bl" 0 10 basechar 0
AnchorPoint: "l;x" 20 380 basechar 0
AnchorPoint: "l;o" 0 200 basechar 0
AnchorPoint: "r;bl" 453 10 basechar 0
AnchorPoint: "r;x" 473 380 basechar 0
AnchorPoint: "r;k;hi" 473 650 basechar 0
AnchorPoint: "r;o" 473 200 basechar 0
LayerCount: 3
Back
SplineSet
370 48 m 4
 397.967773438 48 454.555664062 121 463 121 c 4
 468.669921875 121 476 114.611328125 476 110 c 4
 476 102.333984375 396.861328125 -10 314 -10 c 4
 296.91015625 -10 284 4.9541015625 284 28 c 4
 284 60.8427734375 308.966796875 169.620117188 319.966796875 216.296875 c 5
 304.420898438 189.018554688 276.3671875 142.137695312 241.400390625 96.2001953125 c 4
 202.579101562 44.4384765625 164.858398438 -7 102 -7 c 4
 85.796875 -7 22 -2.578125 22 74 c 4
 22 159.30859375 95.8193359375 382 240 382 c 4
 290.653320312 382 318.790039062 362.514648438 328.133789062 358.77734375 c 5
 339.057617188 354.225585938 338.264648438 353.553710938 341.057617188 366.587890625 c 5
 354.049804688 436.54296875 376.91015625 608.01171875 378.1015625 612.776367188 c 5
 380.537109375 621.30078125 379.279296875 625.740234375 377.150390625 626.01171875 c 5
 370.087890625 625.134765625 294.310546875 605 288 605 c 4
 280.015625 605 280.196289062 613.842773438 282.015625 629.311523438 c 5
 283.08203125 641.034179688 286.936523438 642.81640625 294.17578125 644.884765625 c 4
 294.27734375 644.913085938 l 5
 294.379882812 644.935546875 l 4
 384.517578125 663.963867188 439.428710938 682 446 682 c 4
 453.37890625 682 460 678.174804688 460 664 c 4
 460 648.051757812 360 111.291992188 360 60 c 4
 360 48.8994140625 365.916992188 48 370 48 c 4
326 304 m 4
 326 317.901367188 284.307617188 354 240 354 c 4
 154.563476562 354 94 176.016601562 94 102 c 4
 94 65.7568359375 104.926757812 49 137 49 c 4
 171.26953125 49 225.263671875 119.31640625 272.51171875 187.67578125 c 5
 293.545898438 219.728515625 326 267.504882812 326 304 c 4
EndSplineSet
Fore
SplineSet
370 48 m 0
 397 48 458 122 462 122 c 0
 467 122 476 114 476 110 c 0
 476 104 397 -10 314 -10 c 0
 297 -10 284 5 284 28 c 0
 284 61 309 169 320 216 c 1
 304 189 276 142 241 96 c 0
 202 44 165 -7 102 -7 c 0
 86 -7 22 -3 22 74 c 0
 22 159 96 382 240 382 c 0
 289 382 314 365 323 361 c 0
 334 356 338 354 341 367 c 0
 354 437 377 608 378 613 c 0
 382 630 371 627 369 626 c 0
 346 620 293 605 288 605 c 0
 283 605 281 609 281 616 c 0
 281 620 281 624 282 629 c 0
 283 641 285 642 292 644 c 0
 382 664 439 682 446 682 c 0
 453 682 460 678 460 664 c 0
 460 648 360 111 360 60 c 0
 360 49 366 48 370 48 c 0
326 304 m 0
 326 318 284 354 240 354 c 0
 155 354 94 176 94 102 c 0
 94 66 105 49 137 49 c 0
 171 49 227 120 273 188 c 0
 295 220 326 268 326 304 c 0
EndSplineSet
AlternateSubs2: "'aalt' Access All Alternates lookup 0 subtable" d.sub d.sup d.denom d.numer
AlternateSubs2: "'aalt' Access All Alternates in Latin lookup 0 subtable" d.sub d.sup d.denom d.numer
Substitution2: "'subs' Subscript in Latin lookup 8 subtable" d.sub
Substitution2: "'sups' Superscript in Latin lookup 7 subtable" d.sup
Substitution2: "denominators subtable" d.denom
Substitution2: "numerators subtable" d.numer
EndChar

StartChar: e
Encoding: 101 101 4
Width: 390
VWidth: 0
Flags: HW
HStem: -8 46<118.198 246.782> 167 29<109 198.726> 364 30<197.512 286.223>
VStem: 22 72<61.6736 190.827> 295 71<263.184 358.321>
AnchorPoint: "top" 283 500 basechar 0
AnchorPoint: "l;bl" 0 10 basechar 0
AnchorPoint: "l;x" 20 380 basechar 0
AnchorPoint: "l;o" 0 200 basechar 0
AnchorPoint: "r;bl" 370 10 basechar 0
AnchorPoint: "r;x" 390 380 basechar 0
AnchorPoint: "r;o" 390 200 basechar 0
LayerCount: 3
Back
SplineSet
187 38 m 4
 280.314453125 38 345.33203125 125 357 125 c 4
 364.116210938 125 373 115.819335938 373 108 c 4
 373 100.440429688 270.8515625 -8 151 -8 c 4
 82.0966796875 -8 22 25.904296875 22 105 c 4
 22 257.276367188 135.887695312 394 270 394 c 4
 312.0703125 394 366 380.813476562 366 325 c 4
 366 261.895507812 305.379882812 215.313476562 241.034179688 191.18359375 c 4
 191.697265625 173.060546875 136.9375 167.08203125 99.33203125 167 c 5
 96.7880859375 164.0625 94 147.225585938 94 124 c 4
 94 59.861328125 131.958984375 38 187 38 c 4
116 196 m 4
 209.3671875 196 295 244.5546875 295 326 c 4
 295 348.899414062 275.9765625 364 248 364 c 4
 180.266601562 364 142.814453125 296.9609375 122.796875 243.913085938 c 5
 116.8984375 229.166992188 109.145507812 201.704101562 108.990234375 199.857421875 c 5
 109.162109375 197.364257812 109.255859375 196 116 196 c 4
EndSplineSet
Fore
SplineSet
187 38 m 0
 280 38 345 125 357 125 c 0
 366 125 373 114 373 108 c 0
 373 100 271 -8 151 -8 c 0
 82 -8 22 26 22 105 c 0
 22 257 136 394 270 394 c 0
 312 394 366 381 366 325 c 0
 366 262 305 215 241 191 c 0
 192 173 137 167 99 167 c 0
 97 167 94 147 94 124 c 0
 94 60 132 38 187 38 c 0
116 196 m 0
 209 196 295 245 295 326 c 0
 295 349 276 364 248 364 c 0
 180 364 143 297 123 244 c 0
 117 229 109 202 109 200 c 0
 109 198 109 196 116 196 c 0
EndSplineSet
AlternateSubs2: "'aalt' Access All Alternates lookup 0 subtable" e.sub e.sup e.denom e.numer
AlternateSubs2: "'aalt' Access All Alternates in Latin lookup 0 subtable" e.sub e.sup e.denom e.numer
Substitution2: "'subs' Subscript in Latin lookup 8 subtable" e.sub
Substitution2: "'sups' Superscript in Latin lookup 7 subtable" e.sup
Substitution2: "denominators subtable" e.denom
Substitution2: "numerators subtable" e.numer
EndChar

StartChar: f
Encoding: 102 102 5
Width: 284
VWidth: 0
Flags: W
HStem: -279 59<-89.1002 26.41> 344 31<32.7902 118.924 192.081 285.128> 638 46<279.635 377.5>
DStem2: 66 -54 131 -54 0.153405 0.988163<-105.601 234.032 447.355 636.915>
AnchorPoint: "top" 351 779 basechar 0
AnchorPoint: "l;bl" 0 10 basechar 0
AnchorPoint: "l;x" 0 380 basechar 0
AnchorPoint: "l;o" 0 200 basechar 0
AnchorPoint: "l;k;lo" -30 -260 basechar 0
AnchorPoint: "r;bl" 244 10 basechar 0
AnchorPoint: "r;x" 284 380 basechar 0
AnchorPoint: "r;k;hi" 424 650 basechar 0
AnchorPoint: "r;o" 264 200 basechar 0
LayerCount: 3
Back
SplineSet
34.072265625 366.658203125 m 4
 35.2158203125 372.377929688 38.009765625 375 44 375 c 4
 117 375 l 4
 124.986328125 375 123.026367188 372.435546875 124.012695312 384.271484375 c 4
 126.034179688 406.506835938 136.92578125 489.647460938 166.387695312 542.474609375 c 5
 178.370117188 563.4453125 208.661132812 621.114257812 268.48828125 655.591796875 c 4
 292.798828125 669.772460938 328.162109375 684 361 684 c 4
 394.0859375 684 437 662.640625 437 645 c 4
 437 624.180664062 400.903320312 601 380 601 c 4
 351.284179688 601 330.88671875 638 299 638 c 4
 224.161132812 638 199.204101562 430.28125 191.971679688 377.591796875 c 4
 191.950195312 377.430664062 l 5
 191.91015625 377.272460938 l 4
 191.803710938 376.846679688 192.876953125 375 197 375 c 4
 279 375 l 4
 282.849609375 375 287 373.958984375 287 370 c 4
 287 365.548828125 286.041992188 358.638671875 284.845703125 355.051757812 c 5
 284.845703125 355.051757812 281.635742188 344 275 344 c 4
 195 344 l 4
 191.15234375 344 189.6796875 343.703125 189.6796875 343.703125 c 5
 189.390625 343.219726562 188.875 340.541992188 187.959960938 335.510742188 c 5
 180.987304688 288.689453125 149.961914062 58.5224609375 130.962890625 -54.4677734375 c 4
 127.9140625 -73.7783203125 102.098632812 -186.420898438 35.78515625 -236.411132812 c 5
 13.9541015625 -252.288085938 -17.6357421875 -279 -57 -279 c 4
 -90.298828125 -279 -128 -257.404296875 -128 -240 c 4
 -128 -219.532226562 -97.279296875 -196 -76 -196 c 4
 -48.0615234375 -196 -27.5224609375 -220 5 -220 c 4
 46.8408203125 -220 57.73046875 -105.447265625 66.037109375 -53.5283203125 c 4
 88.8759765625 90.4521484375 118.795898438 330.39453125 118.974609375 335.3125 c 5
 119.17578125 343.869140625 118.763671875 344 118 344 c 4
 42 344 l 4
 35.71875 344 32 345.616210938 32 353 c 4
 32 357.471679688 33.0419921875 362.5390625 34.072265625 366.658203125 c 4
EndSplineSet
Fore
SplineSet
40 375 m 2
 115 375 l 2
 120 375 123 376 124 384 c 0
 126 406 137 489 166 542 c 0
 178 563 208 622 268 656 c 0
 292 670 328 684 361 684 c 0
 394 684 437 663 437 645 c 0
 437 624 401 601 380 601 c 0
 351 601 331 638 299 638 c 0
 224 638 199 431 192 378 c 0
 192 377 192 375 197 375 c 2
 284 375 l 2
 286 375 287 374 287 372 c 0
 287 364 282 344 279 344 c 2
 197 344 l 2
 194 344 189 343 188 336 c 0
 181 289 150 59 131 -54 c 0
 128 -73 102 -186 36 -236 c 0
 14 -252 -18 -279 -57 -279 c 0
 -90 -279 -128 -257 -128 -240 c 0
 -128 -220 -97 -196 -76 -196 c 0
 -48 -196 -28 -220 5 -220 c 0
 47 -220 58 -106 66 -54 c 0
 89 90 119 330 119 335 c 0
 119 344 113 344 108 344 c 2
 37 344 l 2
 32 344 32 346 32 353 c 0
 32 355 34 375 40 375 c 2
EndSplineSet
AlternateSubs2: "'aalt' Access All Alternates lookup 0 subtable" f.sub f.sup f.denom f.numer
AlternateSubs2: "'aalt' Access All Alternates in Latin lookup 0 subtable" f.sub f.sup f.denom f.numer
Substitution2: "'subs' Subscript in Latin lookup 8 subtable" f.sub
Substitution2: "'sups' Superscript in Latin lookup 7 subtable" f.sup
Substitution2: "denominators subtable" f.denom
Substitution2: "numerators subtable" f.numer
EndChar

StartChar: g
Encoding: 103 103 6
Width: 426
VWidth: 0
Flags: W
HStem: -254 35<87.3895 294.139> 373 29<191.836 274.476> 403 20G<378.5 390>
VStem: -9 48<-187.085 -99.1746> 51 56<-6 45.4858> 57 69<152.711 308.349> 311 68<191.853 332.196> 341 67<-176.163 -92.8977> 361 54<363.62 422.441>
AnchorPoint: "top" 256 498 basechar 0
AnchorPoint: "l;bl" 0 10 basechar 0
AnchorPoint: "l;x" 20 380 basechar 0
AnchorPoint: "l;o" 0 200 basechar 0
AnchorPoint: "l;k;lo" -20 -260 basechar 0
AnchorPoint: "r;bl" 426 10 basechar 0
AnchorPoint: "r;x" 426 380 basechar 0
AnchorPoint: "r;o" 426 200 basechar 0
AnchorPoint: "r;lo" 406 -260 basechar 0
LayerCount: 3
Back
SplineSet
84 -45 m 0xf9
 89 -43 92 -41 93 -40 c 1
 88 -38 83 -36 77 -32 c 0
 63 -22 51 -13 51 3 c 0xf9
 51 13 83 67 98 73 c 1
 158 95 l 1
 159 95 l 1
 158 95 158 96 157 96 c 0
 128 105 57 136 57 230 c 0
 57 326 137 402 237 402 c 0
 296 402 328 366 336 358 c 1
 342 368 356 402 361 412 c 1
 366 420 372 423 385 423 c 0
 395 423 415 420 415 409 c 0xf480
 415 381 371 326 369 320 c 1
 369 317 370 313 372 308 c 1
 377 295 379 280 379 267 c 0xf2
 379 220 357 173 325 144 c 0
 287 109 254 99 198 84 c 1
 155 72 107 55 107 40 c 0
 107 15 194 4 274 -8 c 1
 347 -20 408 -37 408 -106 c 0
 408 -215 294 -254 165 -254 c 0
 87 -254 -9 -236 -9 -157 c 0
 -9 -95 57 -57 84 -45 c 0xf9
204 -219 m 0
 282 -219 341 -192 341 -133 c 0
 341 -89 296 -77 239 -67 c 0
 193 -59 138 -50 133 -50 c 0
 123 -50 113 -56 102 -61 c 1
 67 -79 39 -110 39 -151 c 0
 39 -208 149 -219 204 -219 c 0
311 279 m 0xf6
 311 324 281 373 236 373 c 0
 166 373 126 285 126 229 c 0
 126 139 175 118 197 118 c 0
 243 118 311 184 311 279 c 0xf6
EndSplineSet
Fore
SplineSet
86 -37 m 0xf9
 69 -29 51 -15 51 3 c 0xf9
 51 13 83 67 98 73 c 2
 152 93 l 2
 160 96 157 96 150 98 c 0
 118 110 57 143 57 230 c 0
 57 326 137 402 237 402 c 0
 289 402 320 374 332 362 c 0
 334 360 337 359 339 363 c 0
 346 376 356.403320312 403.317382812 361 412 c 0
 365.403320312 420.317382812 372 423 385 423 c 0
 395 423 415 420 415 409 c 0xf480
 415 381 371 326 369 320 c 0
 369 317 370 313 372 308 c 0
 377 295 379 280 379 267 c 0xf2
 379 220 357 173 325 144 c 0
 287 109 254 99 198 84 c 0
 155 72 107 55 107 40 c 0
 107 15 194 5 274 -8 c 0
 347 -19 408 -37 408 -106 c 0
 408 -215 294 -254 165 -254 c 0
 87 -254 -9 -236 -9 -157 c 0
 -9 -95 57 -57 84 -45 c 0
 92 -42 90 -39 86 -37 c 0xf9
204 -219 m 0
 282 -219 341 -192 341 -133 c 0
 341 -89 296 -77 239 -67 c 0
 193 -59 138 -50 133 -50 c 0
 123 -50 113 -56 102 -61 c 0
 67 -79 39 -110 39 -151 c 0
 39 -208 149 -219 204 -219 c 0
311 279 m 0xf6
 311 324 281 373 236 373 c 0
 166 373 126 285 126 229 c 0
 126 139 175 118 197 118 c 0
 243 118 311 184 311 279 c 0xf6
EndSplineSet
AlternateSubs2: "'aalt' Access All Alternates lookup 0 subtable" g.sub g.sup g.denom g.numer
AlternateSubs2: "'aalt' Access All Alternates in Latin lookup 0 subtable" g.sub g.sup g.denom g.numer
Substitution2: "'subs' Subscript in Latin lookup 8 subtable" g.sub
Substitution2: "'sups' Superscript in Latin lookup 7 subtable" g.sup
Substitution2: "denominators subtable" g.denom
Substitution2: "numerators subtable" g.numer
EndChar

StartChar: h
Encoding: 104 104 7
Width: 468
VWidth: 0
Flags: W
HStem: -3 51<296 369.488> 343 43<268.471 359.5> 634 44<77.2732 195.363>
VStem: 22 71<-2.07571 34>
AnchorPoint: "l;k;hi2" 40 710 basechar 0
AnchorPoint: "top" 198 780 basechar 0
AnchorPoint: "l;bl" 0 10 basechar 0
AnchorPoint: "l;x" 20 380 basechar 0
AnchorPoint: "l;o" 0 200 basechar 0
AnchorPoint: "r;bl" 448 10 basechar 0
AnchorPoint: "r;x" 468 380 basechar 0
AnchorPoint: "r;o" 468 200 basechar 0
LayerCount: 3
Back
SplineSet
356 48 m 4
 379.515625 48 442.546875 135 451 135 c 4
 455.854492188 135 466 126.86328125 466 122 c 4
 466 114.477539062 386.051757812 -3 308 -3 c 4
 283.673828125 -3 264 13.1279296875 264 38 c 4
 264 72.578125 337 256.176757812 337 307 c 4
 337 327.936523438 325.973632812 343 306 343 c 4
 259.66796875 343 208.838867188 265.8984375 167.578125 197.466796875 c 4
 145.565429688 160.444335938 122.712890625 123.52734375 113.907226562 90.2607421875 c 5
 93.921875 8.3193359375 l 5
 90.986328125 -4.890625 34.498046875 -5 33 -5 c 4
 25.41796875 -5 22 -0.138671875 22 6 c 4
 22 18.43359375 86.001953125 270.162109375 120.012695312 619.271484375 c 4
 120.732421875 627.1875 118.880859375 633.42578125 118.077148438 634.97265625 c 5
 100.002929688 633.874023438 37.998046875 608 32 608 c 4
 25.23828125 608 26 620.850585938 26 625 c 4
 26 633.581054688 29.09375 640.901367188 34.658203125 643.68359375 c 4
 34.8095703125 643.758789062 l 5
 34.9697265625 643.817382812 l 4
 76.4560546875 658.995117188 166.138671875 678 191 678 c 4
 200.317382812 678 200 668.86328125 200 660 c 4
 200 659.922851562 l 5
 199.99609375 659.845703125 l 4
 195.276367188 568.278320312 140.51953125 289.671875 112.013671875 147.631835938 c 5
 129.903320312 184.966796875 167.672851562 257.805664062 216.689453125 316.9140625 c 4
 245.84765625 352.103515625 282.708007812 386 343 386 c 4
 375.71484375 386 405 371.255859375 405 335 c 4
 405 268.983398438 338 94.4287109375 338 67 c 4
 338 57.189453125 343.966796875 48 356 48 c 4
EndSplineSet
Fore
SplineSet
356 48 m 0
 380 48 446 135 451 135 c 0
 456 135 466 127 466 122 c 0
 466 114 386 -3 308 -3 c 0
 284 -3 264 13 264 38 c 0
 264 73 337 256 337 307 c 0
 337 328 326 343 306 343 c 0
 260 343 209 265 168 197 c 0
 146 160 122 123 114 90 c 2
 93 6 l 2
 90 -4 34 -5 33 -5 c 0
 25 -5 22 0 22 6 c 0
 22 18 86 270 120 619 c 0
 121 627 119 634 116 634 c 0
 98 634 38 608 32 608 c 0
 27 608 26 616 26 621 c 0
 26 629 28 641 35 644 c 0
 75 658 166 678 191 678 c 0
 200 678 200 669 200 660 c 0
 195 568 141 290 112 148 c 1
 130 185 168 258 217 317 c 0
 246 352 283 386 343 386 c 0
 376 386 405 371 405 335 c 0
 405 269 338 94 338 67 c 0
 338 57 344 48 356 48 c 0
EndSplineSet
AlternateSubs2: "'aalt' Access All Alternates lookup 0 subtable" h.sub h.sup h.denom h.numer
AlternateSubs2: "'aalt' Access All Alternates in Latin lookup 0 subtable" h.sub h.sup h.denom h.numer
Substitution2: "'subs' Subscript in Latin lookup 8 subtable" h.sub
Substitution2: "'sups' Superscript in Latin lookup 7 subtable" h.sup
Substitution2: "denominators subtable" h.denom
Substitution2: "numerators subtable" h.numer
EndChar

StartChar: i
Encoding: 105 105 8
Width: 270
VWidth: 0
Flags: W
HStem: -9 67<71.9062 152.5> 325 61<107 186.91> 498 100<134.104 206.896>
VStem: 22 177<282 361> 125 91<506.095 589.905>
AnchorPoint: "l;k;hi" 135 650 basechar 0
AnchorPoint: "r;k;hi" 220 650 basechar 0
AnchorPoint: "l;bl" 0 10 basechar 0
AnchorPoint: "l;x" 20 380 basechar 0
AnchorPoint: "l;o" 0 200 basechar 0
AnchorPoint: "r;bl" 250 10 basechar 0
AnchorPoint: "r;x" 270 380 basechar 0
AnchorPoint: "r;o" 270 200 basechar 0
LayerCount: 3
Back
SplineSet
169 598 m 4
 200.213867188 598 216 569.071289062 216 547 c 4
 216 519.717773438 197.966796875 498 172 498 c 4
 140.786132812 498 125 526.928710938 125 549 c 4
 125 576.149414062 140.977539062 598 169 598 c 4
199 361 m 4
 199 312.989257812 134 101.698242188 134 75 c 4
 134 64.4287109375 133.888671875 58 144 58 c 4
 160.622070312 58 215.922851562 122 223 122 c 4
 229.313476562 122 238 112.122070312 238 107 c 4
 238 89.6982421875 116.609375 -9 84 -9 c 4
 73.9208984375 -9 57 -5.7724609375 57 12 c 4
 57 64.314453125 128 250.168945312 128 310 c 4
 128 320.040039062 126.313476562 325 119 325 c 4
 95.0283203125 325 46.095703125 266 37 266 c 4
 29.751953125 266 22 275.291015625 22 282 c 4
 22 291.580078125 137.588867188 386 176 386 c 4
 187.206054688 386 199 379.689453125 199 361 c 4
EndSplineSet
Fore
SplineSet
169 598 m 0xe8
 200 598 216 569 216 547 c 0
 216 520 198 498 172 498 c 0
 141 498 125 527 125 549 c 0
 125 576 141 598 169 598 c 0xe8
199 361 m 0xf0
 199 313 134 102 134 75 c 0
 134 64 134 58 144 58 c 0
 161 58 216 122 223 122 c 0
 229 122 238 112 238 107 c 0
 238 90 117 -9 84 -9 c 0
 74 -9 57 -6 57 12 c 0
 57 64 128 250 128 310 c 0
 128 320 126 325 119 325 c 0
 95 325 46 266 37 266 c 0
 30 266 22 275 22 282 c 0
 22 292 138 386 176 386 c 0
 187 386 199 380 199 361 c 0xf0
EndSplineSet
AlternateSubs2: "'aalt' Access All Alternates lookup 0 subtable" i.sub i.sup i.denom i.numer
AlternateSubs2: "'aalt' Access All Alternates in Latin lookup 0 subtable" i.sub i.sup i.denom i.numer i.TRK
Substitution2: "'subs' Subscript in Latin lookup 8 subtable" i.sub
Substitution2: "'sups' Superscript in Latin lookup 7 subtable" i.sup
Substitution2: "denominators subtable" i.denom
Substitution2: "numerators subtable" i.numer
Substitution2: "turkish subtable" i.TRK
EndChar

StartChar: j
Encoding: 106 106 9
Width: 297
VWidth: 0
Flags: W
HStem: -258 51<-40.1033 48.2741> 325 61<134.5 208.5> 528 100<163.104 235.896>
VStem: 154 91<536.095 619.905> 155 72<194.608 369.104>
AnchorPoint: "l;k;lo" -30 -260 basechar 0
AnchorPoint: "l;bl" 0 10 basechar 0
AnchorPoint: "l;x" 0 380 basechar 0
AnchorPoint: "l;o" 0 200 basechar 0
AnchorPoint: "r;bl" 277 10 basechar 0
AnchorPoint: "r;x" 297 380 basechar 0
AnchorPoint: "r;o" 287 200 basechar 0
LayerCount: 3
Back
SplineSet
-72 -221 m 4
 -72 -199 -56 -182 -34 -182 c 4
 4 -182 9 -207 41 -207 c 4
 65 -207 76 -159 88 -101 c 4
 114 27 155 284 155 310 c 4
 155 320 153 325 146 325 c 4
 123 325 56 236 47 236 c 4
 40 236 32 243 32 250 c 4
 32 259 146 386 203 386 c 4
 214 386 227 378 227 359 c 4
 227 311 177 27 172 -3 c 4
 163 -63 145 -166 75 -219 c 4
 53 -235 17 -258 -14 -258 c 4
 -49 -258 -72 -239 -72 -221 c 4
EndSplineSet
Fore
SplineSet
-72 -221 m 0xe8
 -72 -199 -56 -182 -34 -182 c 0
 4 -182 9 -207 41 -207 c 0
 65 -207 76 -159 88 -101 c 0
 114 27 155 284 155 310 c 0
 155 320 153 325 146 325 c 0
 123 325 56 236 47 236 c 0
 43 236 32 243 32 250 c 0
 32 259 146 386 203 386 c 0
 214 386 227 378 227 359 c 0
 227 311 177 27 172 -3 c 0
 163 -63 145 -166 75 -219 c 0
 53 -235 17 -258 -14 -258 c 0
 -49 -258 -72 -239 -72 -221 c 0xe8
198 628 m 0
 229 628 245 599 245 577 c 0
 245 550 227 528 201 528 c 0
 170 528 154 557 154 579 c 0xf0
 154 606 170 628 198 628 c 0
EndSplineSet
AlternateSubs2: "'aalt' Access All Alternates lookup 0 subtable" j.sub j.sup j.denom j.numer
AlternateSubs2: "'aalt' Access All Alternates in Latin lookup 0 subtable" j.sub j.sup j.denom j.numer
Substitution2: "'subs' Subscript in Latin lookup 8 subtable" j.sub
Substitution2: "'sups' Superscript in Latin lookup 7 subtable" j.sup
Substitution2: "denominators subtable" j.denom
Substitution2: "numerators subtable" j.numer
EndChar

StartChar: k
Encoding: 107 107 10
Width: 450
VWidth: 0
Flags: W
HStem: -5 45<332.034 419.572> 186 16<219 227.167> 346 38<259.286 353.5> 662 20G<198.5 207>
VStem: 22 71<-4.10006 108.598> 130 87<553.056 668.811> 326 74<277.161 345.572> 420 33<43.2507 96.7675>
AnchorPoint: "l;k;hi2" 50 710 basechar 0
AnchorPoint: "cedilla" 187 -100 basechar 0
AnchorPoint: "l;bl" 0 10 basechar 0
AnchorPoint: "l;x" 20 380 basechar 0
AnchorPoint: "l;o" 0 200 basechar 0
AnchorPoint: "r;bl" 450 10 basechar 0
AnchorPoint: "r;x" 450 380 basechar 0
AnchorPoint: "r;o" 450 200 basechar 0
LayerCount: 3
Back
SplineSet
130 623.143554688 m 4
 130 626.630859375 128.39453125 629 126 629 c 4
 120.419921875 629 58.541015625 612.034179688 51.7763671875 610.1015625 c 5
 40.400390625 607.2578125 39.1181640625 615.231445312 41.0185546875 632.331054688 c 4
 41.033203125 632.4609375 l 5
 41.05859375 632.587890625 l 4
 41.93359375 636.963867188 42.3837890625 642.536132812 49.3564453125 643.930664062 c 4
 145.350585938 666.928710938 190.590820312 682 200 682 c 4
 208.100585938 682 217 680.326171875 217 668 c 4
 217 648.418945312 146.248046875 306.243164062 124.029296875 198.29296875 c 5
 137.92578125 223.377929688 161.755859375 264.674804688 186.60546875 297.807617188 c 4
 226.823242188 351.095703125 266.849609375 384 338 384 c 4
 369.049804688 384 400 373.881835938 400 344 c 4
 400 249.344726562 281.833984375 197.112304688 232.657226562 186.073242188 c 4
 232.575195312 186.0546875 l 5
 232.493164062 186.041015625 l 4
 229.672851562 185.5703125 221.276367188 184.301757812 218.966796875 183.91015625 c 5
 224.916015625 180.69140625 232.306640625 176.337890625 240.056640625 169.184570312 c 5
 265.259765625 144.989257812 304.109375 103.16015625 313.334960938 91.8828125 c 4
 338.497070312 60.6826171875 354.567382812 40 389 40 c 4
 412.704101562 40 420 51.6669921875 420 64 c 4
 420 70.453125 418 77.3642578125 418 84 c 4
 418 91.4873046875 421.41796875 99 429 99 c 4
 439.678710938 99 453 86.435546875 453 53 c 4
 453 17.2265625 377.666992188 -5 339 -5 c 4
 325.260742188 -5 311.3203125 -0.5380859375 293.956054688 15.8037109375 c 5
 268.53125 39.1953125 243.55859375 77.2509765625 216.635742188 111.153320312 c 4
 192.021484375 142.659179688 166 169.477539062 166 175 c 4
 166 182.708007812 182.084960938 197.328125 183.87890625 199.12109375 c 4
 187.067382812 202.310546875 191.294921875 202 196 202 c 4
 203.724609375 202 213.4296875 203.002929688 222.833007812 206.764648438 c 5
 267.2109375 226.48828125 326 282.138671875 326 328 c 4
 326 338.5234375 317.58203125 345 298 345 c 4
 275.135742188 345 257.955078125 333.719726562 237.051757812 313.811523438 c 4
 205.584960938 284.310546875 174.524414062 232.37890625 137.51953125 176.372070312 c 5
 125.705078125 157.665039062 118.865234375 141.0703125 113.920898438 119.317382812 c 5
 107.9296875 94.353515625 96.92578125 45.3076171875 92.962890625 21.5322265625 c 4
 90.0673828125 3.1884765625 89.1005859375 -2.6572265625 79.6171875 -3.029296875 c 5
 77.7158203125 -3.162109375 41.0087890625 -9 30 -9 c 4
 26.35546875 -9 22 -8.205078125 22 -3 c 4
 22 25.337890625 104.001953125 352.16796875 130 623.143554688 c 4
EndSplineSet
Fore
SplineSet
130 623 m 0
 130 626 129 629 124 629 c 0
 116 629 49 609 46 609 c 0
 40 609 39 615 40 622 c 0
 41 634 41 642 49 644 c 0
 148 668 194 682 203 682 c 0
 211 682 217 680 217 668 c 0
 217 648 146 306 124 198 c 1
 138 223 162 265 187 298 c 0
 227 351 267 384 338 384 c 0
 369 384 400 374 400 344 c 0
 400 249 282 197 233 186 c 0
 229 186 221 184 219 184 c 1
 225 181 232 176 240 169 c 0
 265 145 304 103 313 92 c 0
 338 61 355 40 389 40 c 0
 413 40 420 52 420 64 c 0
 420 70 418 77 418 84 c 0
 418 91 421 99 429 99 c 0
 440 99 453 86 453 53 c 0
 453 17 378 -5 339 -5 c 0
 325 -5 311 0 294 16 c 0
 269 39 244 77 217 111 c 0
 192 143 166 169 166 175 c 0
 166 183 182 197 184 199 c 0
 187 202 191 202 196 202 c 0
 204 202 214 203 223 207 c 0
 267 227 326 282 326 328 c 0
 326 339 318 346 298 346 c 0
 275 346 258 334 237 314 c 0
 206 284 175 232 138 176 c 0
 126 157 119 141 114 119 c 0
 108 94 97 46 93 22 c 0
 90 4 89 -3 80 -3 c 0
 78 -3 41 -9 30 -9 c 0
 26 -9 22 -8 22 -3 c 0
 22 25 104 352 130 623 c 0
EndSplineSet
AlternateSubs2: "'aalt' Access All Alternates lookup 0 subtable" k.sub k.sup k.denom k.numer
AlternateSubs2: "'aalt' Access All Alternates in Latin lookup 0 subtable" k.sub k.sup k.denom k.numer
Substitution2: "'subs' Subscript in Latin lookup 8 subtable" k.sub
Substitution2: "'sups' Superscript in Latin lookup 7 subtable" k.sup
Substitution2: "denominators subtable" k.denom
Substitution2: "numerators subtable" k.numer
EndChar

StartChar: z
Encoding: 122 122 11
Width: 414
VWidth: 0
Flags: HW
HStem: -13 21G<33 44> -5 59<114.803 348.751> 11 57<111.771 286.442> 315 40<249.717 334.604> 347 52<107.354 223.318> 372 20G<361 379>
VStem: 349 33<54.0015 105.571>
DStem2: 54 50 112 75 0.667708 0.744423<57.3376 355.113>
AnchorPoint: "top" 257 500 basechar 0
AnchorPoint: "l;bl" 0 10 basechar 0
AnchorPoint: "l;x" 20 380 basechar 0
AnchorPoint: "l;o" 0 200 basechar 0
AnchorPoint: "r;bl" 414 10 basechar 0
AnchorPoint: "r;x" 414 380 basechar 0
AnchorPoint: "r;o" 414 200 basechar 0
LayerCount: 3
Back
SplineSet
374 98.1318359375 m 0
 377.006835938 64.05078125 382 17.5751953125 382 12 c 0
 382 -4.7822265625 359.745117188 -5 343 -5 c 0
 336 -5 l 0
 282.616210938 -5 143.72265625 11 65 11 c 0
 59.9453125 11 51.9892578125 -13 36 -13 c 0
 29.763671875 -13 22 -8.798828125 22 2 c 0
 22 22.0498046875 44.2578125 38.595703125 53.73046875 49.962890625 c 1
 291.73046875 314.962890625 l 1
 292.255859375 315.592773438 293.224609375 316.875 293.23828125 316.893554688 c 1
 289.41796875 316.361328125 284.654296875 315 280 315 c 0
 235.900390625 315 168.641601562 347 137 347 c 0
 102.327148438 347 79.1533203125 299 70 299 c 0
 64.353515625 299 54 303.694335938 54 310 c 0
 54 316.166992188 102.71484375 399 158 399 c 0
 204.392578125 399 283.470703125 355 324 355 c 0
 338.327148438 355 348.052734375 392 374 392 c 0
 383.952148438 392 392 382.509765625 392 373 c 0
 392 344.349609375 345.302734375 332.936523438 332.208984375 318.969726562 c 1
 112.243164062 75.0078125 l 1
 110.13671875 72.599609375 108.375976562 70.40234375 107.919921875 69.625 c 1
 109.793945312 68.8876953125 113.520507812 68.328125 120.139648438 67.9970703125 c 0
 206.219726562 63.9931640625 299.375 54 337 54 c 0
 348.228515625 54 349 56.48828125 349 69 c 0
 349 69.8037109375 348 94.8349609375 348 97 c 0
 348 104.34765625 357.19140625 106 362 106 c 0
 365.556640625 106 374 105.448242188 374 98.1318359375 c 0
EndSplineSet
Fore
SplineSet
348 -5 m 2x42
 336 -5 l 2x42
 283 -5 144 11 65 11 c 0
 60 11 52 -13 36 -13 c 0
 30 -13 22 -9 22 2 c 0
 22 22 44 39 54 50 c 2
 289 312 l 2
 290 314 294 317 289 316 c 0
 283 315 282 315 280 315 c 0xb2
 236 315 169 347 137 347 c 0
 102 347 77 298 71 298 c 0
 66 298 54 306 54 310 c 0
 54 315 103 399 158 399 c 0x0a
 204 399 283 355 324 355 c 0
 338 355 348 392 374 392 c 0
 384 392 392 383 392 373 c 0
 392 344 345 333 332 319 c 2
 112 75 l 2
 107 70 110 68 120 68 c 0x36
 206 64 299 54 337 54 c 0
 348 54 349 56 349 69 c 0
 349 70 348 97 348 99 c 0
 348 106 352 106 362 106 c 2
 367 106 l 2
 372 106 374 105 374 100 c 0
 377 66 382 18 382 12 c 0
 382 -4 364 -5 348 -5 c 2x42
EndSplineSet
AlternateSubs2: "'aalt' Access All Alternates lookup 0 subtable" z.sub z.sup z.denom z.numer
AlternateSubs2: "'aalt' Access All Alternates in Latin lookup 0 subtable" z.sub z.sup z.denom z.numer
Substitution2: "'subs' Subscript in Latin lookup 8 subtable" z.sub
Substitution2: "'sups' Superscript in Latin lookup 7 subtable" z.sup
Substitution2: "denominators subtable" z.denom
Substitution2: "numerators subtable" z.numer
EndChar

StartChar: l
Encoding: 108 108 12
Width: 272
VWidth: 0
Flags: W
HStem: -13 63<75.5 144.841> 662 20G<216 223>
VStem: 52 78<9.7285 155.455> 147 83<538.519 625.134>
AnchorPoint: "l;k;hi2" 60 710 basechar 0
AnchorPoint: "cedilla" 76 -100 basechar 0
AnchorPoint: "caron" 261 550 basechar 0
AnchorPoint: "top" 215 780 basechar 0
AnchorPoint: "l;bl" 0 10 basechar 0
AnchorPoint: "l;x" 0 380 basechar 0
AnchorPoint: "l;o" 0 200 basechar 0
AnchorPoint: "r;bl" 252 10 basechar 0
AnchorPoint: "r;x" 272 380 basechar 0
AnchorPoint: "r;k;hi" 272 650 basechar 0
AnchorPoint: "r;o" 272 200 basechar 0
LayerCount: 3
Back
SplineSet
141 50 m 4
 166.728515625 50 232.623046875 134 241 134 c 4
 246.8671875 134 260 122.958007812 260 118 c 4
 260 110.013671875 153.817382812 -13 84 -13 c 4
 67.2470703125 -13 52 -1.2060546875 52 28 c 4
 52 47.173828125 122.005859375 402.223632812 147.02734375 612.405273438 c 5
 147.740234375 617.04296875 147.831054688 620.416992188 147.327148438 622.42578125 c 4
 146.709960938 624.88671875 145.544921875 626.607421875 136.806640625 624.110351562 c 5
 114.59375 618.052734375 67.1484375 606 62 606 c 4
 54.2412109375 606 54.1826171875 613.73046875 56.015625 629.311523438 c 5
 57.08203125 641.034179688 60.9365234375 642.81640625 68.17578125 644.884765625 c 4
 68.26171875 644.909179688 l 5
 68.349609375 644.928710938 l 4
 158.514648438 664.96484375 210.4140625 682 217 682 c 4
 225.479492188 682 230 676.495117188 230 670 c 4
 230 648.069335938 130.834960938 80.3447265625 129.983398438 67.7216796875 c 5
 130.546875 50.232421875 137.609375 50 141 50 c 4
EndSplineSet
Fore
SplineSet
141 50 m 0
 167 50 238 134 241 134 c 0
 244 134 260 122 260 118 c 0
 260 110 154 -13 84 -13 c 0
 67 -13 52 -1 52 28 c 0
 52 47 122 402 147 612 c 0
 149 622 147 628 135 625 c 0
 108 618 66 606 61 606 c 0
 56 606 54 606 54 616 c 0
 54 619 54 624 55 629 c 0
 56 641 60 643 67 645 c 0
 160 666 212 682 220 682 c 0
 226 682 230 680 230 672 c 0
 230 650 130 81 130 68 c 0
 130 51 138 50 141 50 c 0
EndSplineSet
AlternateSubs2: "'aalt' Access All Alternates lookup 0 subtable" l.sub l.sup l.denom l.numer
AlternateSubs2: "'aalt' Access All Alternates in Latin lookup 0 subtable" l.sub l.sup l.denom l.numer l.CAT
Substitution2: "'subs' Subscript in Latin lookup 8 subtable" l.sub
Substitution2: "'sups' Superscript in Latin lookup 7 subtable" l.sup
Substitution2: "denominators subtable" l.denom
Substitution2: "numerators subtable" l.numer
Substitution2: "catalan subtable" l.CAT
EndChar

StartChar: m
Encoding: 109 109 13
Width: 739
VWidth: 0
Flags: W
HStem: -14 21G<91.5 99> -7 59<550.5 627.5> 333 49<329.475 388.287 563.489 634.998>
VStem: 132 74<191.697 360.761> 301 70<-0.470089 74.912> 359 71<201.756 343.5>
AnchorPoint: "top" 471 500 basechar 0
AnchorPoint: "l;bl" 0 10 basechar 0
AnchorPoint: "l;x" 20 380 basechar 0
AnchorPoint: "l;o" 0 200 basechar 0
AnchorPoint: "r;bl" 719 10 basechar 0
AnchorPoint: "r;x" 739 380 basechar 0
AnchorPoint: "r;o" 739 200 basechar 0
LayerCount: 3
Back
SplineSet
619 52 m 4
 636.400390625 52 703.846679688 134 712 134 c 4
 718.313476562 134 727 124.122070312 727 119 c 4
 727 109.943359375 617.844726562 -7 561 -7 c 4
 539.811523438 -7 523 6.91796875 523 25 c 4
 523 66.560546875 601 254.212890625 601 314 c 4
 601 322.837890625 594.921875 333 583 333 c 4
 556.813476562 333 504.747070312 269.72265625 460.514648438 201.36328125 c 4
 419.583007812 138.46875 392.772460938 89.7880859375 370.897460938 14.21875 c 5
 368.6015625 5.037109375 362.176757812 1.1376953125 354.3984375 0.0263671875 c 5
 338.24609375 -1.9921875 324.182617188 -3 312 -3 c 4
 306.063476562 -3 301 0.1337890625 301 7 c 4
 301 31.7490234375 359 181.51171875 359 296 c 4
 359 317.959960938 352.09375 330 341 330 c 4
 328.9453125 330 313.30859375 315.081054688 306.334960938 306.115234375 c 5
 275.283203125 269.053710938 241.62109375 227.53125 198.68359375 139.658203125 c 4
 180.909179688 104.111328125 163.877929688 43.15234375 157.884765625 22.17578125 c 4
 156.036132812 15.705078125 154.192382812 4.1044921875 145.134765625 0.22265625 c 5
 126.756835938 -6.9248046875 103.170898438 -14 95 -14 c 4
 87.83984375 -14 85.95703125 -5.919921875 87.0693359375 -0.3544921875 c 5
 100.03125 53.486328125 132 229.633789062 132 296 c 4
 132 305.234375 128.892578125 310 121 310 c 4
 97.265625 310 36.1962890625 235 27 235 c 4
 22.7197265625 235 12 238.306640625 12 255 c 4
 12 268.368164062 134.49609375 376 185 376 c 4
 195.732421875 376 206 372.735351562 206 354 c 4
 206 298.353515625 188.529296875 216.374023438 175.048828125 140.259765625 c 5
 239.0078125 280.88671875 313.48046875 382 393 382 c 4
 418.654296875 382 430 355.42578125 430 332 c 4
 430 270.673828125 398.94140625 162.876953125 383.072265625 111.823242188 c 5
 430.517578125 201.40234375 526.051757812 382 623 382 c 4
 669.078125 382 677 363.502929688 677 345 c 4
 677 291.741210938 604 110.51171875 604 73 c 4
 604 65.0126953125 606.948242188 52 619 52 c 4
EndSplineSet
Fore
SplineSet
619 52 m 0x74
 636 52 707 135 713 135 c 0
 717 135 728 124 728 120 c 0
 728 111 618 -7 561 -7 c 0x74
 540 -7 523 7 523 25 c 0
 523 67 601 254 601 314 c 0
 601 323 595 333 583 333 c 0
 557 333 505 269 461 201 c 0
 420 138 392 90 371 14 c 0
 368 5 362 1 354 0 c 0
 338 -2 323 -3 312 -3 c 0
 306 -3 301 0 301 7 c 0xb8
 301 32 359 182 359 296 c 0
 359 318 352 330 341 330 c 0
 329 330 313 315 306 306 c 0
 275 269 242 228 199 140 c 0
 181 104 164 43 158 22 c 0
 156 16 154 4 145 0 c 0
 127 -7 103 -14 95 -14 c 0xb4
 88 -14 86 -6 87 0 c 0
 100 54 132 230 132 296 c 0
 132 305 129 310 121 310 c 0
 97 310 36 235 27 235 c 0
 23 235 12 238 12 255 c 0
 12 268 134 376 185 376 c 0
 196 376 206 373 206 354 c 0
 206 298 188 216 175 140 c 1
 239 281 313 382 393 382 c 0
 419 382 430 355 430 332 c 0
 430 271 399 163 383 112 c 1
 430 202 526 382 623 382 c 0
 669 382 677 364 677 345 c 0
 677 292 604 111 604 73 c 0
 604 65 607 52 619 52 c 0x74
EndSplineSet
AlternateSubs2: "'aalt' Access All Alternates lookup 0 subtable" m.sub m.sup m.denom m.numer
AlternateSubs2: "'aalt' Access All Alternates in Latin lookup 0 subtable" m.sub m.sup m.denom m.numer
Substitution2: "'subs' Subscript in Latin lookup 8 subtable" m.sub
Substitution2: "'sups' Superscript in Latin lookup 7 subtable" m.sup
Substitution2: "denominators subtable" m.denom
Substitution2: "numerators subtable" m.numer
EndChar

StartChar: n
Encoding: 110 110 14
Width: 515
VWidth: 0
Flags: W
HStem: -9 21G<76.5 83.5> -2 55<329 404.612> 341 48<341.749 418.376>
VStem: 132 79<239.965 373.618> 305 77<21.2957 126.79> 385 74<250.509 351>
AnchorPoint: "cedilla" 221 -100 basechar 0
AnchorPoint: "top" 352 500 basechar 0
AnchorPoint: "l;bl" 0 10 basechar 0
AnchorPoint: "l;x" 20 380 basechar 0
AnchorPoint: "l;o" 0 200 basechar 0
AnchorPoint: "r;bl" 495 10 basechar 0
AnchorPoint: "r;x" 515 380 basechar 0
AnchorPoint: "r;o" 515 200 basechar 0
LayerCount: 3
Back
SplineSet
405 389 m 4
 451.896484375 389 459 359.868164062 459 342 c 4
 459 288.796875 382 96.341796875 382 70 c 4
 382 62.7392578125 385.271484375 53 398 53 c 4
 425.915039062 53 479.4453125 127 488 127 c 4
 494.005859375 127 503 118.379882812 503 113 c 4
 503 104.0390625 414.661132812 -2 340 -2 c 4
 317.791015625 -2 305 17.1337890625 305 42 c 4
 305 100.561523438 385 255.489257812 385 315 c 4
 385 329.287109375 377.534179688 341 366 341 c 4
 331.193359375 341 238.837890625 213.883789062 189.552734375 134.423828125 c 4
 168.905273438 100.995117188 151.859375 44.0859375 145.884765625 23.17578125 c 4
 144.2421875 17.4287109375 141.491210938 -3.666015625 128.298828125 -4.9853515625 c 4
 108.2421875 -6.9912109375 87.3759765625 -9 80 -9 c 4
 72.83984375 -9 70.95703125 -0.919921875 72.0693359375 4.6455078125 c 5
 85.08203125 58.6953125 132 249.842773438 132 316 c 4
 132 325.70703125 129.494140625 331 122 331 c 4
 100.4140625 331 37.3330078125 267 29 267 c 4
 24.0078125 267 12 275.07421875 12 287 c 4
 12 292.798828125 125.951171875 389 187 389 c 4
 196.969726562 389 211 383.073242188 211 365 c 4
 211 308.522460938 184.18359375 218.444335938 162.833007812 139.49609375 c 5
 248.295898438 287.430664062 326.91015625 389 405 389 c 4
EndSplineSet
Fore
SplineSet
405 389 m 0xbc
 452 389 459 360 459 342 c 0
 459 289 382 96 382 70 c 0
 382 63 385 53 398 53 c 0
 426 53 486 129 488 129 c 0
 491 129 503 118 503 113 c 0
 503 104 415 -2 340 -2 c 0x7c
 318 -2 305 17 305 42 c 0
 305 101 385 255 385 315 c 0
 385 329 378 341 366 341 c 0
 331 341 239 213 190 134 c 0
 169 101 152 44 146 23 c 0
 144 17 141 -4 128 -5 c 0
 108 -7 87 -9 80 -9 c 0
 73 -9 71 -1 72 5 c 0
 85 59 132 250 132 316 c 0
 132 326 129 331 122 331 c 0
 100 331 34 267 30 267 c 0
 25 267 12 275 12 287 c 0
 12 293 126 389 187 389 c 0
 197 389 211 383 211 365 c 0
 211 309 184 218 163 139 c 1
 248 287 327 389 405 389 c 0xbc
EndSplineSet
AlternateSubs2: "'aalt' Access All Alternates lookup 0 subtable" n.sub n.sup n.denom n.numer
AlternateSubs2: "'aalt' Access All Alternates in Latin lookup 0 subtable" n.sub n.sup n.denom n.numer
Substitution2: "'subs' Subscript in Latin lookup 8 subtable" n.sub
Substitution2: "'sups' Superscript in Latin lookup 7 subtable" n.sup
Substitution2: "denominators subtable" n.denom
Substitution2: "numerators subtable" n.numer
EndChar

StartChar: o
Encoding: 111 111 15
Width: 419
VWidth: 0
Flags: W
HStem: -11 30<123.455 212.473> 371 29<201.73 293.245>
VStem: 22 68<54.2565 235.877> 328 69<168.116 327.446>
AnchorPoint: "top" 290 500 basechar 0
AnchorPoint: "l;bl" 0 10 basechar 0
AnchorPoint: "l;x" 20 380 basechar 0
AnchorPoint: "l;o" 0 200 basechar 0
AnchorPoint: "r;bl" 399 10 basechar 0
AnchorPoint: "r;x" 419 380 basechar 0
AnchorPoint: "r;o" 419 200 basechar 0
LayerCount: 3
Fore
SplineSet
245 371 m 0
 168 371 90 233 90 146 c 0
 90 103 92 19 167 19 c 0
 262 19 328 188 328 278 c 0
 328 312 315 371 245 371 c 0
165 -11 m 0
 69 -11 22 61 22 138 c 0
 22 285 121 400 256 400 c 0
 364 400 397 301 397 238 c 0
 397 114 293 -11 165 -11 c 0
EndSplineSet
AlternateSubs2: "'aalt' Access All Alternates lookup 0 subtable" o.sub o.sup o.denom o.numer
AlternateSubs2: "'aalt' Access All Alternates in Latin lookup 0 subtable" o.sub o.sup o.denom o.numer
Substitution2: "'subs' Subscript in Latin lookup 8 subtable" o.sub
Substitution2: "'sups' Superscript in Latin lookup 7 subtable" o.sup
Substitution2: "denominators subtable" o.denom
Substitution2: "numerators subtable" o.numer
EndChar

StartChar: p
Encoding: 112 112 16
Width: 486
VWidth: 0
Flags: W
HStem: -284 41<137.425 225.764> -269 38<9.55179 65.9991> -10 32<184.253 284.054> 339 46<317.762 388.604>
VStem: 144 77<159.517 377.253> 396 68<181.358 333.75>
AnchorPoint: "top" 337 500 basechar 0
AnchorPoint: "l;bl" 0 10 basechar 0
AnchorPoint: "l;x" 20 380 basechar 0
AnchorPoint: "l;o" 0 200 basechar 0
AnchorPoint: "l;k;lo" 0 -260 basechar 0
AnchorPoint: "r;bl" 466 10 basechar 0
AnchorPoint: "r;x" 486 380 basechar 0
AnchorPoint: "r;o" 486 200 basechar 0
LayerCount: 3
Back
SplineSet
396 278 m 4
 396 310.919921875 387.28125 339 355 339 c 4
 305.049804688 339 264.168945312 241.569335938 238.65625 193.606445312 c 4
 206.706054688 132.700195312 184 78.7578125 184 51 c 4
 184 27.4853515625 215.271484375 22 245 22 c 4
 310.681640625 22 396 173.420898438 396 278 c 4
226 -259 m 4
 226 -280.5546875 216.59765625 -283 203 -283 c 4
 194.099609375 -283 114.908203125 -269 29 -269 c 4
 18.3408203125 -269 9 -267.6953125 9 -256 c 4
 9 -237.2734375 13.60546875 -231 31 -231 c 4
 47 -231 l 4
 61.9365234375 -231 63.138671875 -229.920898438 66.044921875 -212.485351562 c 4
 124.040039062 120.489257812 144 238.575195312 144 304 c 4
 144 314.040039062 142.313476562 319 135 319 c 4
 103.578125 319 35.7939453125 207 26 207 c 4
 19.06640625 207 7 217.63671875 7 225 c 4
 7 225.811523438 l 5
 7.408203125 226.51171875 l 4
 7.408203125 226.51171875 106.091796875 398 201 398 c 4
 215.40234375 398 221 388.1015625 221 364 c 4
 221 327.569335938 202.125976562 209.647460938 193.453125 157.245117188 c 5
 216.430664062 212.733398438 237.235351562 255.952148438 283.481445312 326.629882812 c 4
 305.92578125 361.31640625 341.834960938 385 385 385 c 4
 451.200195312 385 464 342.411132812 464 291 c 4
 464 138.83984375 337.475585938 -10 236 -10 c 4
 216.500976562 -10 188.094726562 -3 180 -3 c 4
 173.610351562 -3 170.666992188 -2.853515625 169.971679688 -8.4130859375 c 5
 137.955078125 -217.521484375 l 5
 137.94140625 -217.587890625 l 4
 135.916992188 -227.713867188 138.73828125 -237.396484375 144.331054688 -238.018554688 c 4
 205.064453125 -244.766601562 226 -240.048828125 226 -259 c 4
EndSplineSet
Fore
SplineSet
396 278 m 0x3c
 396 311 387 339 355 339 c 0
 305 339 265 242 239 194 c 0
 207 133 184 79 184 51 c 0
 184 27 215 22 245 22 c 0
 311 22 396 173 396 278 c 0x3c
226 -257 m 0
 226 -278 221 -284 213 -284 c 0xbc
 186 -284 127 -269 29 -269 c 0
 18 -269 8 -268 9 -256 c 0
 11 -231 12 -231 31 -231 c 0x7c
 37 -231 43 -232 48 -232 c 0
 57 -232 63 -229 66 -212 c 0
 124 121 144 239 144 304 c 0
 144 314 142 319 135 319 c 0
 104 319 34 207 26 207 c 0
 22 207 7 218 7 224 c 0
 7 225 105 398 201 398 c 0
 215 398 221 388 221 364 c 0
 221 328 202 209 193 157 c 1
 216 212 237 256 283 327 c 0
 305 362 342 385 385 385 c 0
 451 385 464 342 464 291 c 0
 464 139 337 -10 236 -10 c 0
 217 -10 188 -3 180 -3 c 0
 174 -3 171 -2 170 -8 c 2
 138 -218 l 2
 135 -232 139 -237 149 -238 c 0
 171 -240 188 -242 200 -243 c 0xbc
 217 -245 226 -248 226 -257 c 0
EndSplineSet
AlternateSubs2: "'aalt' Access All Alternates lookup 0 subtable" p.sub p.sup p.denom p.numer
AlternateSubs2: "'aalt' Access All Alternates in Latin lookup 0 subtable" p.sub p.sup p.denom p.numer
Substitution2: "'subs' Subscript in Latin lookup 8 subtable" p.sub
Substitution2: "'sups' Superscript in Latin lookup 7 subtable" p.sup
Substitution2: "denominators subtable" p.denom
Substitution2: "numerators subtable" p.numer
EndChar

StartChar: q
Encoding: 113 113 17
Width: 455
VWidth: 0
Flags: W
HStem: -291 39<180.417 231.74> -284 40<309.002 386.995> -10 53<100.714 169.135> 358 26<235.658 317.52>
VStem: 22 70<50.8638 174.898> 339 94<313.872 368.5>
AnchorPoint: "l;bl" 0 10 basechar 0
AnchorPoint: "l;x" 20 380 basechar 0
AnchorPoint: "l;o" 0 200 basechar 0
AnchorPoint: "r;bl" 455 10 basechar 0
AnchorPoint: "r;x" 455 380 basechar 0
AnchorPoint: "r;o" 455 200 basechar 0
AnchorPoint: "r;k;lo" 455 -260 basechar 0
LayerCount: 3
Back
SplineSet
323.041992188 217.727539062 m 5
 310.454101562 192.614257812 284.715820312 144.671875 249.438476562 96.251953125 c 4
 211.456054688 43.27734375 162.955078125 -10 109 -10 c 4
 92.78125 -10 22 -2.7138671875 22 74 c 4
 22 166.764648438 115.1875 384 274 384 c 4
 310.658203125 384 343.033203125 371.823242188 361.21875 363.741210938 c 4
 370.614257812 359.565429688 372.575195312 358 374 358 c 4
 376.043945312 358 378.430664062 358.557617188 388.456054688 364.572265625 c 4
 388.663085938 364.696289062 l 5
 388.885742188 364.78515625 l 4
 393.110351562 366.475585938 406.705078125 375.825195312 419.458984375 377.951171875 c 5
 426.529296875 379.365234375 433 373.473632812 433 365 c 4
 433 357.036132812 419.708984375 332.711914062 405.73828125 302.774414062 c 5
 402.8984375 296.146484375 399.922851562 286.194335938 398.9765625 278.627929688 c 4
 398.967773438 278.555664062 l 5
 398.955078125 278.483398438 l 4
 362.99609375 72.7158203125 309 -224.09765625 309 -236 c 4
 309 -242.705078125 312.359375 -244 320 -244 c 4
 338.973632812 -244 353.180664062 -244.002929688 372.29296875 -246.014648438 c 5
 385.271484375 -247.194335938 387 -255.807617188 387 -265 c 4
 387 -277.870117188 386.958007812 -287 368 -287 c 4
 362.602539062 -287 325.95703125 -284 283 -284 c 4
 252.204101562 -284 201.705078125 -291 196 -291 c 4
 189.12890625 -291 178.8046875 -290.223632812 180.006835938 -275.791992188 c 5
 181.073242188 -256.604492188 187.3671875 -255.06640625 203.486328125 -252.043945312 c 5
 228.713867188 -248.0078125 228.24609375 -251.510742188 233.065429688 -228.37890625 c 4
 254.629882812 -126.43359375 257.912109375 -135.059570312 321.83984375 214.487304688 c 4
 323.041992188 217.727539062 l 5
339 318 m 4
 339 327.538085938 317.856445312 358 274 358 c 4
 188.178710938 358 92 172.256835938 92 99 c 4
 92 63.2314453125 114.001953125 43 136 43 c 4
 169.19140625 43 228.263671875 119.318359375 275.51171875 187.67578125 c 5
 296.444335938 219.573242188 339 289.8046875 339 318 c 4
EndSplineSet
Fore
SplineSet
249 96 m 0xbc
 209 44 163 -10 109 -10 c 0
 93 -10 22 -3 22 74 c 0
 22 167 115 384 274 384 c 0
 311 384 343 372 361 364 c 0
 370 360 373 358 374 358 c 0
 377 358 382 360 390 365 c 0
 397 369 412 378 422 378 c 0
 428 378 433 372 433 365 c 0
 433 357 420 333 406 303 c 0
 403 296 401 287 399 278 c 0
 364 72 309 -224 309 -236 c 0
 309 -243 312 -244 320 -244 c 0
 339 -244 340 -244 375 -246 c 0
 386 -247 387 -255 387 -262 c 0
 387 -276 387 -287 368 -287 c 0
 363 -287 326 -284 283 -284 c 0x7c
 252 -284 202 -291 196 -291 c 0
 189 -291 179 -290 180 -276 c 0
 181 -257 187 -255 203 -252 c 0
 230 -248 227 -253 233 -228 c 0
 255 -126 258 -136 322 214 c 1
 322 214 278 134 249 96 c 0xbc
339 318 m 0
 339 328 318 358 274 358 c 0
 188 358 92 172 92 99 c 0
 92 63 114 43 136 43 c 0
 169 43 230 120 276 188 c 0
 298 220 339 290 339 318 c 0
EndSplineSet
AlternateSubs2: "'aalt' Access All Alternates lookup 0 subtable" q.sub q.sup q.denom q.numer
AlternateSubs2: "'aalt' Access All Alternates in Latin lookup 0 subtable" q.sub q.sup q.denom q.numer
Substitution2: "'subs' Subscript in Latin lookup 8 subtable" q.sub
Substitution2: "'sups' Superscript in Latin lookup 7 subtable" q.sup
Substitution2: "denominators subtable" q.denom
Substitution2: "numerators subtable" q.numer
EndChar

StartChar: r
Encoding: 114 114 18
Width: 341
VWidth: 0
Flags: W
HStem: -7 21G<72.5 80> 335 61<235.555 318.653>
VStem: 63 68<-3.625 104.824> 111 65<179.443 375.001>
AnchorPoint: "cedilla" 83 -100 basechar 0
AnchorPoint: "top" 216 500 basechar 0
AnchorPoint: "l;bl" 0 10 basechar 0
AnchorPoint: "l;x" 20 380 basechar 0
AnchorPoint: "l;o" 0 200 basechar 0
AnchorPoint: "r;bl" 321 10 basechar 0
AnchorPoint: "r;x" 341 380 basechar 0
AnchorPoint: "r;o" 321 200 basechar 0
LayerCount: 3
Back
SplineSet
130.946289062 6.427734375 m 4
 129.208007812 -4.001953125 83.693359375 -7 76 -7 c 4
 68.5400390625 -7 63 -5.91796875 63 0 c 4
 63 9.146484375 111 236.549804688 111 293 c 4
 111 307.684570312 109.780273438 328 101 328 c 4
 76.953125 328 43.48828125 277 34 277 c 4
 26.5751953125 277 22 284.935546875 22 291 c 4
 22 305.104492188 110.375 389 155 389 c 4
 173.208007812 389 176 376.373046875 176 366 c 4
 176 346.893554688 159.522460938 251.45703125 150.56640625 198.950195312 c 5
 165.4296875 238.571289062 185.06640625 295.510742188 209.365234375 339.434570312 c 5
 224.517578125 367.71875 250.201171875 396 284 396 c 4
 306.693359375 396 334 382.592773438 334 357 c 4
 334 340.125976562 328.154296875 317 309 317 c 4
 285.16796875 317 273.065429688 335 254 335 c 4
 245.388671875 335 238.282226562 329.998046875 231.5234375 319.377929688 c 4
 213.798828125 291.805664062 192.760742188 241.8203125 174.80859375 194.946289062 c 4
 168.90234375 179.194335938 166.928710938 168.334960938 163.905273438 157.251953125 c 5
 148.950195312 95.4345703125 142.95703125 60.4765625 130.946289062 6.427734375 c 4
EndSplineSet
Fore
SplineSet
131 6 m 0xe0
 129 -4 84 -7 76 -7 c 0
 69 -7 63 -6 63 0 c 0xe0
 63 9 111 237 111 293 c 0
 111 308 110 328 101 328 c 0
 77 328 38 276 32 276 c 0
 30 276 21 284 21 291 c 0
 21 301 107 389 155 389 c 0
 173 389 176 376 176 366 c 0xd0
 176 347 160 252 151 199 c 1
 166 239 185 295 209 339 c 0
 224 367 250 396 284 396 c 0
 307 396 334 383 334 357 c 0
 334 340 328 317 309 317 c 0
 285 317 273 335 254 335 c 0
 245 335 239 330 232 319 c 0
 214 291 193 242 175 195 c 0
 169 179 167 168 164 157 c 0
 149 95 143 60 131 6 c 0xe0
EndSplineSet
AlternateSubs2: "'aalt' Access All Alternates lookup 0 subtable" r.sub r.sup r.denom r.numer
AlternateSubs2: "'aalt' Access All Alternates in Latin lookup 0 subtable" r.sub r.sup r.denom r.numer
Substitution2: "'subs' Subscript in Latin lookup 8 subtable" r.sub
Substitution2: "'sups' Superscript in Latin lookup 7 subtable" r.sup
Substitution2: "denominators subtable" r.denom
Substitution2: "numerators subtable" r.numer
EndChar

StartChar: s
Encoding: 115 115 19
Width: 336
VWidth: 0
Flags: W
HStem: -8 32<113.194 190.432> 377 25<160.462 224.022>
VStem: 70 67<263.997 346.512> 214 68<46.2769 132.376>
AnchorPoint: "cedilla" 126 -100 basechar 0
AnchorPoint: "top" 220 500 basechar 0
AnchorPoint: "l;bl" 0 10 basechar 0
AnchorPoint: "l;x" 20 380 basechar 0
AnchorPoint: "l;o" 0 200 basechar 0
AnchorPoint: "r;bl" 316 10 basechar 0
AnchorPoint: "r;x" 336 380 basechar 0
AnchorPoint: "r;o" 336 200 basechar 0
LayerCount: 3
Back
SplineSet
304 335 m 4
 304 322.159179688 294.254882812 315 283 315 c 4
 257.319335938 315 242.486328125 333.34765625 232.38671875 351.52734375 c 5
 224.228515625 365.803710938 218.03125 377 203 377 c 4
 173.705078125 377 137 363.720703125 137 317 c 4
 137 225.51171875 282 219.075195312 282 107 c 4
 282 45.9462890625 221.315429688 -8 148 -8 c 4
 86.921875 -8 17 26.54296875 17 61 c 4
 17 79.1220703125 34.576171875 89 44 89 c 4
 67.29296875 89 76.400390625 76.841796875 89.12109375 64.12109375 c 4
 113.620117188 39.6220703125 122.763671875 24 146 24 c 4
 183.451171875 24 214 50.6298828125 214 94 c 4
 214 152.282226562 70 197.05078125 70 283 c 4
 70 347.991210938 131.639648438 402 204 402 c 4
 293.692382812 402 304 347.30859375 304 335 c 4
EndSplineSet
Fore
SplineSet
304 335 m 0
 304 322 294 315 283 315 c 0
 257 315 242 334 232 352 c 0
 224 366 218 377 203 377 c 0
 174 377 137 364 137 317 c 0
 137 226 282 219 282 107 c 0
 282 46 221 -8 148 -8 c 0
 87 -8 17 27 17 61 c 0
 17 79 35 89 44 89 c 0
 67 89 76 77 89 64 c 0
 113 40 123 24 146 24 c 0
 183 24 214 51 214 94 c 0
 214 152 70 197 70 283 c 0
 70 348 132 402 204 402 c 0
 294 402 304 347 304 335 c 0
EndSplineSet
AlternateSubs2: "'aalt' Access All Alternates lookup 0 subtable" longs s.sub s.sup s.denom s.numer
AlternateSubs2: "'aalt' Access All Alternates in Latin lookup 0 subtable" longs s.sub s.sup s.denom s.numer
Substitution2: "'hist' Historical Forms in Latin lookup 11 subtable" longs
Substitution2: "'subs' Subscript in Latin lookup 8 subtable" s.sub
Substitution2: "'sups' Superscript in Latin lookup 7 subtable" s.sup
Substitution2: "denominators subtable" s.denom
Substitution2: "numerators subtable" s.numer
EndChar

StartChar: t
Encoding: 116 116 20
Width: 284
VWidth: 0
Flags: W
HStem: -5 72<76.5 159.5> 339 36<32.6759 104.001 180.944 268.974>
VStem: 129 73<393.482 501.091>
AnchorPoint: "top" 178 540 basechar 0
AnchorPoint: "caron" 256 550 basechar 0
AnchorPoint: "cedilla" 74 -100 basechar 0
AnchorPoint: "l;bl" 0 10 basechar 0
AnchorPoint: "l;x" 0 380 basechar 0
AnchorPoint: "l;o" 0 200 basechar 0
AnchorPoint: "r;bl" 264 10 basechar 0
AnchorPoint: "r;x" 284 380 basechar 0
AnchorPoint: "r;o" 284 200 basechar 0
LayerCount: 3
Back
SplineSet
177.97265625 381.587890625 m 4
 177.546875 377.754882812 177.676757812 375.814453125 177.727539062 375.641601562 c 5
 178.150390625 375.3984375 180.39453125 375 185 375 c 4
 258 375 l 4
 267.42578125 375 270 369.9375 270 364 c 4
 270 350.9296875 265.831054688 339 254 339 c 4
 181 339 l 6
 169.481445312 339 172.875 341.076171875 170.9453125 331.431640625 c 5
 155.00390625 245.745117188 130 93.0166015625 130 85 c 4
 130 76.9111328125 129.500976562 67 146 67 c 4
 167.544921875 67 246.946289062 157 255 157 c 4
 259.703125 157 272 148.11328125 272 143 c 4
 272 135.103515625 151.07421875 -5 89 -5 c 4
 63.669921875 -5 51 7.5556640625 51 32 c 4
 51 49.57421875 103.5 323.46875 103.978515625 330.7109375 c 5
 104.146484375 337.423828125 104.416992188 337.45703125 104.30078125 338.481445312 c 5
 103.029296875 338.865234375 101.383789062 339 98 339 c 4
 51 339 l 4
 49.10546875 339 32 337.319335938 32 346 c 4
 32 349.309570312 33 361.256835938 33 365 c 4
 33 368.28125 35.9541015625 375 44 375 c 4
 105 375 l 4
 110.8046875 375 111.415039062 374.029296875 113.065429688 380.6328125 c 4
 117.056640625 402.581054688 126.03125 458.431640625 129.032226562 481.440429688 c 5
 131.12890625 494.01953125 133.629882812 498.84375 149.506835938 500.9609375 c 4
 155.01171875 502.061523438 161.99609375 502 171 502 c 4
 182.896484375 502 202 502.776367188 202 494 c 4
 202 489.620117188 180.987304688 399.676757812 177.97265625 381.587890625 c 4
EndSplineSet
Fore
SplineSet
178 382 m 0
 177 378 177 375 185 375 c 2
 261 375 l 2
 270 375 271 370 270 364 c 0
 268 347 265 339 257 339 c 2
 179 339 l 2
 174 339 172 338 171 331 c 0
 155 245 130 93 130 85 c 0
 130 77 130 67 146 67 c 0
 168 67 253 159 255 159 c 0
 258 159 272 147 272 143 c 0
 272 137 151 -5 89 -5 c 0
 64 -5 51 8 51 32 c 0
 51 50 104 324 104 331 c 0
 104 337 105 339 98 339 c 2
 43 339 l 2
 37 339 32 340 32 346 c 0
 32 349 33 361 33 365 c 0
 33 368 36 375 44 375 c 2
 105 375 l 2
 111 375 111 374 113 381 c 0
 117 403 126 458 129 481 c 0
 131 494 134 499 150 501 c 0
 156 502 162 502 171 502 c 2
 178 502 l 2
 189 502 202 501 202 494 c 0
 202 490 181 400 178 382 c 0
EndSplineSet
AlternateSubs2: "'aalt' Access All Alternates lookup 0 subtable" t.sub t.sup t.denom t.numer
AlternateSubs2: "'aalt' Access All Alternates in Latin lookup 0 subtable" t.sub t.sup t.denom t.numer
Substitution2: "'subs' Subscript in Latin lookup 8 subtable" t.sub
Substitution2: "'sups' Superscript in Latin lookup 7 subtable" t.sup
Substitution2: "denominators subtable" t.denom
Substitution2: "numerators subtable" t.numer
EndChar

StartChar: u
Encoding: 117 117 21
Width: 521
VWidth: 0
Flags: W
HStem: -3 60<141.002 202.598> 341 53<107.396 181.5>
VStem: 329 69<13.2138 142.971> 385 68<305.046 395.412>
AnchorPoint: "top" 318 500 basechar 0
AnchorPoint: "l;bl" 0 10 basechar 0
AnchorPoint: "l;x" 20 380 basechar 0
AnchorPoint: "l;o" 0 200 basechar 0
AnchorPoint: "r;bl" 501 10 basechar 0
AnchorPoint: "r;x" 521 380 basechar 0
AnchorPoint: "r;o" 521 200 basechar 0
LayerCount: 3
Back
SplineSet
509 147 m 4
 509 138.1796875 427.82421875 -3 365 -3 c 4
 345.96484375 -3 329 8.8037109375 329 27 c 4
 329 65.095703125 362.729492188 188.635742188 374.983398438 259.981445312 c 5
 361.900390625 233.065429688 339.197265625 188.740234375 314.506835938 151.3515625 c 4
 266.653320312 78.5751953125 199.422851562 -8 139 -8 c 4
 120.147460938 -8 81 -3.8955078125 81 37 c 4
 81 69.4140625 142 248.884765625 142 315 c 4
 142 326.447265625 140.965820312 341 125 341 c 4
 101.729492188 341 38.576171875 243 29 243 c 4
 23.228515625 243 12 248.010742188 12 256 c 4
 12 262.951171875 55.7041015625 320.938476562 94.8525390625 362.094726562 c 5
 112.334960938 379.577148438 137.999023438 394 168 394 c 4
 195.196289062 394 226 382.875976562 226 355 c 4
 226 323.69140625 162 122.9609375 162 77 c 4
 162 67.3896484375 166.510742188 57 187 57 c 4
 211.814453125 57 239.41796875 86.5439453125 272.536132812 133.711914062 c 4
 313.36328125 192.463867188 354.282226562 269.37890625 373.116210938 331.828125 c 5
 376.040039062 342.547851562 382.081054688 369.720703125 385.041015625 386.493164062 c 4
 386.669921875 396.267578125 400.534179688 394.204101562 440.645507812 398.978515625 c 4
 440.822265625 399 l 5
 441 399 l 4
 445.553710938 399 453 397.106445312 453 387 c 4
 453 374.016601562 398 109.147460938 398 89 c 4
 398 78.9248046875 399.779296875 67 414 67 c 4
 436.27734375 67 489.2421875 157 498 157 c 4
 503.583984375 157 509 152.1015625 509 147 c 4
EndSplineSet
Fore
SplineSet
510 149 m 0xe0
 510 140 428 -3 365 -3 c 0
 346 -3 329 9 329 27 c 0xe0
 329 65 363 189 375 260 c 1
 362 233 340 188 315 151 c 0
 267 78 199 -8 139 -8 c 0
 120 -8 81 -4 81 37 c 0
 81 69 142 249 142 315 c 0
 142 326 141 341 125 341 c 0
 100 341 34 242 30 242 c 0
 26 242 12 250 12 256 c 0
 12 259 36 295 65 329 c 0
 89 358 120 394 168 394 c 0
 195 394 226 383 226 355 c 0
 226 324 162 123 162 77 c 0
 162 67 167 57 187 57 c 0
 212 57 240 87 273 134 c 0
 314 193 354 270 373 332 c 0
 376 342 382 368 385 386 c 0
 386 389 387 392 392 393 c 0
 405 396 439 399 444 399 c 0
 449 399 453 396 453 387 c 0xd0
 453 374 398 109 398 89 c 0
 398 79 400 67 414 67 c 0
 437 67 493 158 497 158 c 0
 500 158 510 152 510 149 c 0xe0
EndSplineSet
AlternateSubs2: "'aalt' Access All Alternates lookup 0 subtable" u.sub u.sup u.denom u.numer
AlternateSubs2: "'aalt' Access All Alternates in Latin lookup 0 subtable" u.sub u.sup u.denom u.numer
Substitution2: "'subs' Subscript in Latin lookup 8 subtable" u.sub
Substitution2: "'sups' Superscript in Latin lookup 7 subtable" u.sup
Substitution2: "denominators subtable" u.denom
Substitution2: "numerators subtable" u.numer
EndChar

StartChar: v
Encoding: 118 118 22
Width: 443
VWidth: 0
Flags: W
HStem: -8 75<187.297 227.56> 347 48<77.8019 132.036> 368 36<287.526 389.5>
VStem: 117 66<71.8928 283.381> 137 71<136.48 341.533> 367 54<268.722 367.788>
AnchorPoint: "l;bl" 0 10 basechar 0
AnchorPoint: "l;x" 0 380 basechar 0
AnchorPoint: "l;o" 0 200 basechar 0
AnchorPoint: "r;bl" 423 10 basechar 0
AnchorPoint: "r;x" 443 380 basechar 0
AnchorPoint: "r;o" 443 200 basechar 0
LayerCount: 3
Back
SplineSet
128.421875 339.446289062 m 0
 121.982421875 343.125976562 108.842773438 347 106 347 c 0
 73.978515625 347 35.6767578125 283 27 283 c 0
 18.576171875 283 7 292.302734375 7 299 c 0
 7 312.8203125 86.1044921875 395 124 395 c 0
 135.55859375 395 156.708007812 391.073242188 167.51171875 384.591796875 c 1
 197.255859375 367.736328125 208 360.572265625 208 337 c 0
 208 267.537109375 183 137.301757812 183 100 c 0
 183 84.552734375 209.723632812 67.826171875 214.033203125 66.99609375 c 1
 219.740234375 67.0869140625 227.587890625 68.037109375 234.698242188 76.92578125 c 1
 241.576171875 84.7861328125 253.568359375 101.758789062 265.58984375 117.787109375 c 0
 308.653320312 175.872070312 367 254.421875 367 331 c 0
 367 362.369140625 357.989257812 368 345 368 c 0
 321.36328125 368 290.368164062 359 286 359 c 0
 281.305664062 359 277 367.001953125 277 378 c 0
 277 389.025390625 351.46875 404 378 404 c 0
 400.663085938 404 421 398.052734375 421 361 c 0
 421 258.350585938 328.21484375 146.962890625 249.368164062 46.158203125 c 0
 242.490234375 37.3154296875 232.509765625 22.3525390625 226.563476562 12.4423828125 c 1
 218.581054688 -0.529296875 212.590820312 -8 200 -8 c 0
 186.338867188 -8 167.194335938 5.603515625 157.146484375 13.640625 c 0
 128.891601562 35.841796875 117 49.31640625 117 97 c 0
 117 137.5859375 137 256.413085938 137 319 c 0
 137 328.840820312 136.319335938 334.181640625 128.421875 339.446289062 c 0
EndSplineSet
Fore
SplineSet
128 339 m 0xac
 122 343 109 347 106 347 c 0
 74 347 34 283 27 283 c 0
 19 283 7 292 7 299 c 0
 7 313 86 395 124 395 c 0
 136 395 156 391 167 385 c 0
 197 368 208 361 208 337 c 0xcc
 208 268 183 137 183 100 c 0
 183 85 210 67 214 67 c 0
 220 67 228 68 235 77 c 0
 242 85 254 102 266 118 c 0
 309 176 367 254 367 331 c 0
 367 362 358 368 345 368 c 0
 321 368 290 359 286 359 c 0
 281 359 277 367 277 378 c 0
 277 389 351 404 378 404 c 0
 401 404 421 398 421 361 c 0
 421 258 328 147 249 46 c 0
 242 37 233 23 227 13 c 0
 219 0 213 -8 200 -8 c 0
 186 -8 167 6 157 14 c 0
 129 36 117 49 117 97 c 0xb4
 117 138 137 256 137 319 c 0
 137 329 136 334 128 339 c 0xac
EndSplineSet
AlternateSubs2: "'aalt' Access All Alternates lookup 0 subtable" v.sub v.sup v.denom v.numer
AlternateSubs2: "'aalt' Access All Alternates in Latin lookup 0 subtable" v.sub v.sup v.denom v.numer
Substitution2: "'subs' Subscript in Latin lookup 8 subtable" v.sub
Substitution2: "'sups' Superscript in Latin lookup 7 subtable" v.sup
Substitution2: "denominators subtable" v.denom
Substitution2: "numerators subtable" v.numer
EndChar

StartChar: w
Encoding: 119 119 23
Width: 681
VWidth: 0
Flags: W
HStem: -4 61<193.78 229.322 411.56 450.293> 341 48<82.399 135.236> 359 38<523.035 634>
VStem: 123 65<61.3551 267.306> 145 68<117.575 331.5> 342 65<59.9592 197.853> 369 68<200.813 335.344> 602 57<267.499 358.92>
DStem2: 239 74 251 49 0.568383 0.822764<-25.296 192.184>
AnchorPoint: "r;o" 681 200 basechar 0
AnchorPoint: "r;x" 681 380 basechar 0
AnchorPoint: "r;bl" 661 10 basechar 0
AnchorPoint: "l;o" 0 200 basechar 0
AnchorPoint: "l;x" 0 380 basechar 0
AnchorPoint: "l;bl" 0 10 basechar 0
AnchorPoint: "top" 382 500 basechar 0
LayerCount: 3
Back
SplineSet
213 322 m 4
 213 253.708007812 188 101.090820312 188 95 c 4
 188 78.638671875 210.401367188 57 219 57 c 4
 221.154296875 57 229.744140625 61.01171875 238.545898438 73.7255859375 c 5
 263.530273438 108.704101562 316.456054688 188.619140625 335.637695312 212.848632812 c 4
 353.00390625 235.0390625 369 287.08203125 369 303 c 4
 369 314.213867188 358.103515625 324.654296875 349.87890625 332.87890625 c 4
 334.869140625 347.888671875 322 351.637695312 322 359 c 4
 322 373.264648438 348.061523438 398 363 398 c 4
 386.756835938 398 437 354.618164062 437 334 c 4
 437 301.313476562 407 132.375 407 95 c 4
 407 73.76953125 429.9375 55 442 55 c 4
 448.770507812 55 457.401367188 64.578125 469.73046875 78.962890625 c 4
 501.684570312 115.908203125 533.655273438 154.885742188 557.512695312 189.677734375 c 4
 586.278320312 232.330078125 601.009765625 271.609375 602 329.025390625 c 5
 602 353.1953125 592.892578125 359 584 359 c 4
 560.614257812 359 508.931640625 347 505 347 c 4
 500.047851562 347 496 356.205078125 496 367 c 4
 496 378.170898438 607.514648438 397 616 397 c 4
 638.536132812 397 659 392.1171875 659 355 c 4
 659 273.381835938 578.407226562 148.16796875 493.09765625 61.8544921875 c 5
 475.122070312 44.8779296875 465.29296875 33.0576171875 445.147460938 11.904296875 c 5
 437.447265625 4.205078125 435.135742188 1 427 1 c 4
 378.408203125 1 342 39.2548828125 342 81 c 4
 342 98.607421875 358.784179688 174.543945312 367.915039062 218.962890625 c 5
 334.817382812 167.540039062 285.424804688 92.4189453125 251.368164062 49.158203125 c 4
 244.546875 40.3876953125 232.513671875 21.345703125 225.383789062 12.1787109375 c 5
 216.586914062 0.44921875 213.205078125 -4 202 -4 c 4
 188.23828125 -4 169.102539062 10.6767578125 159.146484375 18.640625 c 4
 130.96875 40.78125 123 51.28125 123 86 c 4
 123 126.887695312 145 201.365234375 145 298 c 4
 145 313.11328125 118.923828125 341 104 341 c 4
 71.611328125 341 32.6474609375 284 24 284 c 4
 14.4990234375 284 7 296.506835938 7 302 c 4
 7 316.391601562 96.7265625 389 134 389 c 4
 146.485351562 389 170.32421875 376.704101562 180.543945312 370.572265625 c 4
 180.604492188 370.536132812 l 5
 180.6640625 370.49609375 l 4
 211.1875 350.146484375 213 336.629882812 213 322 c 4
EndSplineSet
Fore
SplineSet
213 322 m 0xc9
 213 254 188 101 188 95 c 0
 188 79 210 57 219 57 c 0
 221 57 230 61 239 74 c 0
 264 109 317 189 336 213 c 0
 353 235 369 287 369 303 c 0
 369 314 358 325 350 333 c 0
 335 348 322 352 322 359 c 0
 322 373 348 398 363 398 c 0
 387 398 437 355 437 334 c 0xb3
 437 301 407 132 407 95 c 0
 407 74 430 55 442 55 c 0
 449 55 458 65 470 79 c 0
 502 116 534 155 558 190 c 0
 587 233 601 272 602 329 c 0
 602 353 593 359 584 359 c 0
 552 359 509 347 505 347 c 0
 500 347 496 357 496 368 c 0
 496 373 589 397 622 397 c 0
 646 397 659 383 659 355 c 0
 659 273 578 148 493 62 c 0
 476 46 461 29 445 12 c 0
 436 3 435 1 427 1 c 0
 378 1 342 39 342 81 c 0
 342 99 359 175 368 219 c 1
 335 168 285 92 251 49 c 0
 244 40 232 21 225 12 c 0
 216 0 213 -4 202 -4 c 0
 188 -4 169 11 159 19 c 0
 131 41 123 51 123 86 c 0xb5
 123 127 145 201 145 298 c 0
 145 313 119 341 104 341 c 0
 72 341 29 284 24 284 c 0
 14 284 7 297 7 302 c 0
 7 316 97 389 134 389 c 0
 146 389 173 376 181 370 c 0
 212 350 213 337 213 322 c 0xc9
EndSplineSet
AlternateSubs2: "'aalt' Access All Alternates lookup 0 subtable" w.sub w.sup w.denom w.numer
AlternateSubs2: "'aalt' Access All Alternates in Latin lookup 0 subtable" w.sub w.sup w.denom w.numer
Substitution2: "'subs' Subscript in Latin lookup 8 subtable" w.sub
Substitution2: "'sups' Superscript in Latin lookup 7 subtable" w.sup
Substitution2: "denominators subtable" w.denom
Substitution2: "numerators subtable" w.numer
EndChar

StartChar: x
Encoding: 120 120 24
Width: 458
VWidth: 0
Flags: W
HStem: -6 61<303.5 378.55> -6 52<39.5 102.063> 345 46<85.2287 151.265> 354 45<367.171 425.5>
VStem: 12 44<13 105.232> 413 31<294.094 353.996>
AnchorPoint: "l;bl" 0 10 basechar 0
AnchorPoint: "l;x" 20 380 basechar 0
AnchorPoint: "l;o" 0 200 basechar 0
AnchorPoint: "r;bl" 448 10 basechar 0
AnchorPoint: "r;x" 458 380 basechar 0
AnchorPoint: "r;o" 458 200 basechar 0
LayerCount: 3
Back
SplineSet
210.541992188 180.721679688 m 0
 216.390625 189.493164062 216.131835938 187.118164062 212.1640625 199.021484375 c 1
 186.905273438 269.747070312 153.814453125 345 115 345 c 0
 85.064453125 345 52.4111328125 288 40 288 c 0
 32.5087890625 288 26 297.631835938 26 304 c 0
 26 311.65625 81.30078125 391 148 391 c 0
 216.4140625 391 230.088867188 338.3125 263.799804688 249.077148438 c 0
 264.869140625 246.297851562 265.83984375 244.478515625 266.389648438 243.608398438 c 1
 267.65234375 245.081054688 269.1796875 247.796875 271.450195312 251.58203125 c 1
 305.037109375 303.9375 354.294921875 399 416 399 c 0
 434.888671875 399 444 377.232421875 444 356 c 0
 444 335.45703125 437.922851562 313.25 435.969726562 299.576171875 c 0
 435.958007812 299.493164062 l 1
 435.94140625 299.412109375 l 0
 434.22265625 290.818359375 413 292.162109375 413 300 c 0
 413 311.177734375 414 322.1953125 414 332 c 0
 414 349.243164062 407.896484375 354 400 354 c 0
 374.063476562 354 313.85546875 270.874023438 281.469726562 222.295898438 c 1
 276.869140625 215.854492188 276.939453125 214.641601562 279.857421875 204.915039062 c 1
 295.204101562 159.897460938 334.732421875 55 365 55 c 0
 390.653320312 55 417.708007812 121 426 121 c 0
 429.619140625 121 446 118.096679688 446 110 c 0
 446 89.185546875 383.521484375 -6 331 -6 c 0
 274.846679688 -6 257.748046875 71.2138671875 228.173828125 155.993164062 c 1
 227.686523438 157.33203125 227.091796875 158.694335938 226.903320312 159.112304688 c 1
 225.551757812 157.329101562 224.375976562 155.495117188 222.263671875 153.03125 c 0
 182.975585938 107.850585938 115.627929688 -6 49 -6 c 0
 30.400390625 -6 12 2.5703125 12 23 c 0
 12 46.8916015625 24.1650390625 84.01171875 38.265625 115.234375 c 0
 38.3671875 115.458984375 l 1
 38.50390625 115.6640625 l 0
 40.6650390625 118.90625 43.705078125 122 49 122 c 0
 50.794921875 122 66 119.848632812 66 111 c 0
 66 104.961914062 56 85.51953125 56 65 c 0
 56 51.6884765625 64.390625 46 74 46 c 0
 104.020507812 46 185.293945312 146.384765625 210.541992188 180.721679688 c 0
EndSplineSet
Fore
SplineSet
211 181 m 0x4c
 216 188 215 189 212 199 c 0
 187 270 154 345 115 345 c 0
 85 345 46 287 41 287 c 0
 34 287 26 298 26 304 c 0
 26 312 81 391 148 391 c 0x6c
 216 391 230 338 264 249 c 0
 266 244 268 247 271 252 c 0
 305 304 354 399 416 399 c 0
 435 399 444 377 444 356 c 0
 444 334 438 313 436 298 c 0
 436 295 431 294 426 294 c 0
 420 294 413 296 413 299 c 0
 413 301 414 316 414 332 c 0
 414 349 408 354 400 354 c 0
 374 354 314 271 281 222 c 0
 277 217 278 212 280 205 c 0
 295 160 335 55 365 55 c 0
 392 55 419 121 425 121 c 0
 429 121 446 116 446 111 c 0
 446 90 383 -6 331 -6 c 0x9c
 276 -6 258 69 229 153 c 0
 228 156 225 156 222 153 c 0
 183 108 116 -6 49 -6 c 0
 30 -6 12 3 12 23 c 0
 12 47 24 84 38 115 c 0
 41 121 43 122 49 122 c 0
 51 122 66 120 66 111 c 0
 66 105 56 86 56 65 c 0
 56 52 64 46 74 46 c 0
 104 46 186 147 211 181 c 0x4c
EndSplineSet
AlternateSubs2: "'aalt' Access All Alternates lookup 0 subtable" x.sub x.sup x.denom x.numer
AlternateSubs2: "'aalt' Access All Alternates in Latin lookup 0 subtable" x.sub x.sup x.denom x.numer
Substitution2: "'subs' Subscript in Latin lookup 8 subtable" x.sub
Substitution2: "'sups' Superscript in Latin lookup 7 subtable" x.sup
Substitution2: "denominators subtable" x.denom
Substitution2: "numerators subtable" x.numer
EndChar

StartChar: y
Encoding: 121 121 25
Width: 422
VWidth: 0
Flags: W
HStem: -292 86<1.46826 57.224> 334 51<76.3084 180> 377 20G<367 377.5>
VStem: 171 62<54 242.209> 357 53<289.162 393.307>
DStem2: 112 -159 120 -218 0.469052 0.88317<-57.1733 153.7 244.871 445.414>
AnchorPoint: "top" 279 500 basechar 0
AnchorPoint: "l;bl" 0 10 basechar 0
AnchorPoint: "l;x" 0 380 basechar 0
AnchorPoint: "l;o" 0 200 basechar 0
AnchorPoint: "l;lo" 0 -260 basechar 0
AnchorPoint: "r;bl" 402 10 basechar 0
AnchorPoint: "r;x" 422 380 basechar 0
AnchorPoint: "r;o" 422 200 basechar 0
LayerCount: 3
Back
SplineSet
230.615234375 -9.4716796875 m 6
 220.657226562 -28.3916015625 l 4
 198.671875 -70.3642578125 152.654296875 -160.400390625 119.614257812 -218.470703125 c 4
 110.28515625 -235.056640625 97.75 -245.446289062 79.5439453125 -256.572265625 c 4
 54.7109375 -271.471679688 24.646484375 -292 4 -292 c 4
 -10.1572265625 -292 -16 -273.141601562 -16 -262 c 4
 -16 -220.086914062 29.4482421875 -216.673828125 60.0087890625 -206.16796875 c 4
 78.99609375 -199.5234375 101.708984375 -177.940429688 112.360351562 -158.57421875 c 4
 166.286132812 -58.7119140625 171 -22.548828125 171 17 c 4
 171 132.080078125 161.25 334 105 334 c 4
 66.7421875 334 33.7568359375 273 24 273 c 4
 21.8369140625 273 7 275.604492188 7 286 c 4
 7 292.454101562 65.9951171875 385 135 385 c 4
 224.55859375 385 225.120117188 242.991210938 233.49609375 54.2822265625 c 5
 267.798828125 119.404296875 316.495117188 200.296875 340.139648438 276.903320312 c 4
 352.03515625 314.572265625 354.0078125 342.217773438 357.010742188 377.249023438 c 4
 358.033203125 389.522460938 362.583984375 397 371 397 c 4
 384.36328125 397 410 388.044921875 410 369 c 4
 410 364.583984375 408.96875 357.5625 407.961914062 351.5234375 c 5
 396.784179688 279.376953125 306.6171875 120.532226562 259.614257812 39.5283203125 c 5
 253.577148438 28.4599609375 233.60546875 -4.48828125 230.615234375 -9.4716796875 c 6
EndSplineSet
Fore
SplineSet
231 -9 m 2xb8
 221 -28 l 2
 199 -70 153 -160 120 -218 c 0
 111 -235 97 -246 79 -257 c 0
 54 -272 25 -292 4 -292 c 0
 -10 -292 -16 -273 -16 -262 c 0
 -16 -220 30 -217 61 -206 c 0
 80 -199 101 -178 112 -159 c 0
 166 -59 171 -23 171 17 c 0
 171 132 161 334 105 334 c 0
 67 334 29 272 25 272 c 0
 23 272 6 278 6 284 c 0
 6 290 66 385 135 385 c 0xd8
 225 385 225 243 233 54 c 1
 267 119 316 200 340 277 c 0
 352 315 354 342 357 377 c 0
 358 389 363 397 371 397 c 0
 384 397 410 388 410 369 c 0
 410 365 409 358 408 352 c 0
 397 280 307 121 260 40 c 0
 254 29 234 -4 231 -9 c 2xb8
EndSplineSet
AlternateSubs2: "'aalt' Access All Alternates lookup 0 subtable" y.sub y.sup y.denom y.numer
AlternateSubs2: "'aalt' Access All Alternates in Latin lookup 0 subtable" y.sub y.sup y.denom y.numer
Substitution2: "'subs' Subscript in Latin lookup 8 subtable" y.sub
Substitution2: "'sups' Superscript in Latin lookup 7 subtable" y.sup
Substitution2: "denominators subtable" y.denom
Substitution2: "numerators subtable" y.numer
EndChar

StartChar: A
Encoding: 65 65 26
Width: 688
VWidth: 0
Flags: W
HStem: -6 36<17.0336 81.3104 143 222.986 439.034 516 611.354 670.986> 278 30<287.001 478.95>
AnchorPoint: "top" 501 780 basechar 0
AnchorPoint: "l;bl" 0 10 basechar 0
AnchorPoint: "l;x" 100 380 basechar 0
AnchorPoint: "l;hi" 180 650 basechar 0
AnchorPoint: "l;o" 60 200 basechar 0
AnchorPoint: "r;bl" 688 10 basechar 0
AnchorPoint: "r;x" 688 380 basechar 0
AnchorPoint: "r;hi" 688 650 basechar 0
AnchorPoint: "r;o" 688 200 basechar 0
LayerCount: 3
Back
SplineSet
616.271484375 30 m 5
 657 30 l 4
 669.189453125 30 671 26.33203125 671 14 c 4
 671 -1.0947265625 668.745117188 -6 657 -6 c 4
 641.758789062 -6 596.86328125 -3 567 -3 c 4
 537.137695312 -3 479.163085938 -6 456 -6 c 4
 441.794921875 -6 439 -2.42578125 439 15 c 4
 439 28.7109375 444.078125 30 460 30 c 4
 515.740234375 30 l 5
 516.020507812 32.1015625 516 34.3642578125 516 38 c 4
 516 78.36328125 491.030273438 228.533203125 488.014648438 261.70703125 c 5
 486.073242188 280.151367188 487.20703125 278 473 278 c 4
 284 278 l 4
 271.723632812 278 270.431640625 277.188476562 263.6484375 264.590820312 c 4
 239.79296875 219.7421875 150.57421875 54.12890625 143.444335938 30 c 5
 209 30 l 4
 221.189453125 30 223 26.33203125 223 14 c 4
 223 -1.0947265625 220.745117188 -6 209 -6 c 4
 185.814453125 -6 136.8515625 -3 107 -3 c 4
 77.21484375 -3 57.29296875 -6 34 -6 c 4
 19.794921875 -6 17 -2.42578125 17 15 c 4
 17 28.7109375 22.078125 30 38 30 c 4
 69.95703125 30 l 5
 90.396484375 53.748046875 337.748046875 493.975585938 417.524414062 611.694335938 c 4
 431.134765625 631.5859375 451.685546875 642.057617188 468.325195312 674.357421875 c 5
 472.240234375 682.1875 476.91796875 690 486 690 c 4
 499.815429688 690 500.150390625 677.543945312 501.952148438 668.53515625 c 5
 520.33984375 555.3046875 601.37109375 60.4814453125 616.271484375 30 c 5
302 308 m 6
 469 308 l 4
 479.424804688 308 479 310 479 310 c 4
 479 323.484375 442.48046875 539.874023438 435.395507812 573.272460938 c 5
 432.927734375 569.766601562 430.059570312 564.84375 426.62109375 558.540039062 c 5
 293.604492188 324.51171875 l 4
 289.54296875 317.403320312 287 312.396484375 287 311 c 4
 287 309.65234375 288.845703125 308 302 308 c 6
EndSplineSet
Fore
SplineSet
616 30 m 1
 657 30 l 2
 669 30 671 26 671 14 c 0
 671 -1 669 -6 657 -6 c 0
 642 -6 597 -3 567 -3 c 0
 537 -3 478 -6 455 -6 c 0
 441 -6 439 -2 439 15 c 0
 439 29 444 30 460 30 c 2
 516 30 l 1
 516 38 l 2
 516 78 491 229 488 262 c 0
 486 277 486 278 477 278 c 2
 284 278 l 2
 272 278 271 278 264 265 c 0
 240 220 150 54 143 30 c 1
 209 30 l 2
 221 30 223 26 223 14 c 0
 223 -1 221 -6 209 -6 c 0
 186 -6 152 -3 107 -3 c 0
 77 -3 45 -6 33 -6 c 0
 19 -6 17 -2 17 15 c 0
 17 29 22 30 38 30 c 2
 70 30 l 1
 90 54 338 494 418 612 c 0
 432 632 451 642 468 674 c 0
 472 682 477 690 486 690 c 0
 500 690 501 678 502 669 c 0
 521 556 601 60 616 30 c 1
302 308 m 2
 469 308 l 2
 479 308 479 309 479 310 c 0
 479 323 438 573 435 573 c 0
 434 573 310 353 294 325 c 0
 290 318 287 312 287 311 c 0
 287 310 289 308 302 308 c 2
EndSplineSet
Position2: "'cpsp' Capital Spacing in Latin lookup 2 subtable" dx=4 dy=0 dh=8 dv=0
EndChar

StartChar: B
Encoding: 66 66 27
Width: 571
VWidth: 0
Flags: W
HStem: -6 39<17.0148 80.9886 169.003 353.467> 320 27<210.333 335.19> 633 35<76.0029 160 248.397 371.228>
VStem: 441 88<103.325 247.076 450.493 573.359>
AnchorPoint: "l;o" 10 200 basechar 0
AnchorPoint: "l;hi" 60 650 basechar 0
AnchorPoint: "l;x" 30 380 basechar 0
AnchorPoint: "l;bl" 0 10 basechar 0
AnchorPoint: "top" 315 780 basechar 0
AnchorPoint: "r;bl" 541 10 basechar 0
AnchorPoint: "r;x" 561 380 basechar 0
AnchorPoint: "r;hi" 561 650 basechar 0
AnchorPoint: "r;o" 571 200 basechar 0
LayerCount: 3
Back
SplineSet
439 501 m 4
 439 581.212890625 381.705078125 634 291 634 c 4
 275 634 l 4
 255.946289062 634 250.798828125 632.609375 245.956054688 605.489257812 c 5
 234.981445312 539.637695312 214.965820312 392.547851562 210.974609375 363.609375 c 5
 210.323242188 358.399414062 209.6953125 354.426757812 209.66796875 351.895507812 c 4
 209.625 347.962890625 209.348632812 347 220 347 c 4
 236 347 l 4
 257.046875 347 283.182617188 346 287 346 c 4
 308.204101562 346 322.586914062 353.647460938 340.637695312 362.672851562 c 4
 391.272460938 388.486328125 439 428.604492188 439 501 c 4
237 -6 m 4
 213.809570312 -6 166.849609375 -3 137 -3 c 4
 107.146484375 -3 57.1826171875 -6 34 -6 c 4
 19.794921875 -6 17 -2.42578125 17 15 c 4
 17 28.7109375 22.078125 30 38 30 c 4
 78.419921875 30 l 5
 84.40625 69.5390625 156.189453125 544.911132812 160.005859375 622.198242188 c 5
 160.974609375 633.819335938 161.44140625 633 153 633 c 4
 98 633 l 4
 86.0986328125 633 76 633.806640625 76 651 c 4
 76 664.217773438 81.845703125 668 91 668 c 4
 98.1943359375 668 178.076171875 665 213 665 c 4
 240.883789062 665 309.822265625 668 323 668 c 4
 428.3359375 668 524 634.483398438 524 516 c 4
 524 393.778320312 384.7734375 349.831054688 341.771484375 337.831054688 c 5
 386.056640625 331.676757812 529 306.5546875 529 165 c 4
 529 10.65234375 347.36328125 -6 237 -6 c 4
441 181 m 4
 441 278.682617188 362.362304688 320 262 320 c 4
 231 320 l 4
 205.674804688 320 206.634765625 319.719726562 204.943359375 310.416992188 c 5
 202.009765625 296.725585938 178.962890625 130.520507812 169.9765625 59.623046875 c 4
 169.962890625 59.5166015625 l 5
 169.94140625 59.412109375 l 4
 169.000976562 54.708984375 169 50.990234375 169 48 c 4
 169 35.736328125 173.341796875 36.0595703125 200.213867188 33.9921875 c 4
 214.055664062 33.00390625 230.002929688 33 245 33 c 4
 361.375 33 441 78.2890625 441 181 c 4
EndSplineSet
Fore
SplineSet
439 501 m 0
 439 581 382 634 291 634 c 2
 275 634 l 2
 256 634 251 632 246 605 c 0
 235 539 215 393 211 364 c 0
 210 359 210 355 210 352 c 0
 210 348 211 347 220 347 c 2
 236 347 l 2
 257 347 283 346 287 346 c 0
 308 346 323 354 341 363 c 0
 392 389 439 429 439 501 c 0
237 -6 m 0
 214 -6 167 -3 137 -3 c 0
 107 -3 57 -6 34 -6 c 0
 20 -6 17 -2 17 15 c 0
 17 29 22 30 38 30 c 2
 78 30 l 1
 79 37 160 563 160 628 c 2
 160 633 l 1
 92 633 l 2
 80 633 76 634 76 651 c 0
 76 664 79 668 88 668 c 0
 95 668 178 665 213 665 c 0
 241 665 310 668 323 668 c 0
 428 668 524 634 524 516 c 0
 524 394 385 350 342 338 c 1
 386 332 529 307 529 165 c 0
 529 11 347 -6 237 -6 c 0
441 181 m 0
 441 279 362 320 262 320 c 2
 231 320 l 2
 206 320 207 319 205 310 c 0
 202 296 169 58 169 48 c 0
 169 36 173 36 200 34 c 0
 214 33 230 33 245 33 c 0
 361 33 441 78 441 181 c 0
EndSplineSet
Position2: "'cpsp' Capital Spacing in Latin lookup 2 subtable" dx=4 dy=0 dh=8 dv=0
EndChar

StartChar: C
Encoding: 67 67 28
Width: 686
VWidth: 0
Flags: HW
HStem: -17 40<271.747 465.747> 640 34<323.977 475.032>
VStem: 32 96<169.62 408.625> 573.118 45.8818<108.123 192.38 427.884 512.205> 577 77<441 614>
AnchorPoint: "cedilla" 349 -100 basechar 0
AnchorPoint: "top" 408 780 basechar 0
AnchorPoint: "l;bl" 20 10 basechar 0
AnchorPoint: "l;x" 0 380 basechar 0
AnchorPoint: "l;hi" 40 650 basechar 0
AnchorPoint: "l;o" 0 200 basechar 0
AnchorPoint: "r;bl" 626 10 basechar 0
AnchorPoint: "r;x" 666 380 basechar 0
AnchorPoint: "r;hi" 686 650 basechar 0
AnchorPoint: "r;o" 651 200 basechar 0
LayerCount: 3
Back
SplineSet
367 23 m 4xe8
 469.19140625 23 543.924804688 84.2626953125 548.163085938 96.9755859375 c 4
 559.1328125 128.88671875 567.0859375 158.717773438 573.118164062 180.8359375 c 5
 577.751953125 195.895507812 586.775390625 194.899414062 599.650390625 191.928710938 c 4
 608.287109375 190.009765625 619 186.081054688 619 178 c 4xf0
 619 171.497070312 606.951171875 131.396484375 585.873046875 61.1376953125 c 4
 578.927734375 37.984375 455.220703125 -17 360 -17 c 4
 197.083007812 -17 32 61.94921875 32 291 c 4
 32 509.610351562 204.2890625 674 398 674 c 4
 482.813476562 674 563.545898438 636.190429688 608.479492188 589.984375 c 5
 611.034179688 599.94140625 615.606445312 628 622 628 c 4
 630.12109375 628 654 624.306640625 654 614 c 4
 654 606.810546875 623.979492188 460.609375 618.953125 434.469726562 c 5
 617.424804688 425.301757812 606.635742188 427 603 427 c 4
 589.834960938 427 577 433.57421875 577 441 c 4
 577 446.263671875 598.870117188 526.538085938 599.982421875 537.5703125 c 5
 592.983398438 549.328125 498.09375 640 397 640 c 4
 242.607421875 640 128 446.16796875 128 288 c 4
 128 120.453125 235.694335938 23 367 23 c 4xe8
EndSplineSet
Fore
SplineSet
367 23 m 0xe8
 469 23 544 84 548 97 c 0
 559 129 566.504097789 159.150147108 573 181 c 0
 577.504097789 196.150147108 587 195 600 192 c 0
 609 190 619 186 619 178 c 0xf0
 619 171 607 131 586 61 c 0
 579 38 455 -17 360 -17 c 0
 197 -17 32 62 32 291 c 0
 32 510 204 674 398 674 c 0
 483 674 563 636 608 590 c 1
 611 600 616 628 622 628 c 0
 630 628 654 624 654 614 c 0
 654 607 624.192041032 459.96020516 619 434 c 0
 617.192041032 424.96020516 607 427 603 427 c 0
 590 427 577 434 577 441 c 0
 577 446 599 527 600 538 c 1
 593 550 498 640 397 640 c 0
 243 640 128 446 128 288 c 0
 128 120 236 23 367 23 c 0xe8
EndSplineSet
Position2: "'cpsp' Capital Spacing in Latin lookup 2 subtable" dx=4 dy=0 dh=8 dv=0
EndChar

StartChar: D
Encoding: 68 68 29
Width: 742
VWidth: 0
Flags: W
HStem: -7 35<16.0051 80.5323 179.209 373.732> 632 34<77.0456 163.999 254.639 434.284>
VStem: 611 94<237.389 471.313>
AnchorPoint: "l;o" 10 200 basechar 0
AnchorPoint: "l;hi" 60 650 basechar 0
AnchorPoint: "l;x" 30 380 basechar 0
AnchorPoint: "l;bl" 0 10 basechar 0
AnchorPoint: "top" 356 780 basechar 0
AnchorPoint: "r;x" 742 380 basechar 0
AnchorPoint: "r;o" 712 200 basechar 0
AnchorPoint: "r;bl" 672 10 basechar 0
AnchorPoint: "r;hi" 722 650 basechar 0
LayerCount: 3
Back
SplineSet
344 666 m 4
 552.000976562 666 705 571.888671875 705 335 c 4
 705 111.106445312 535.264648438 -4.986328125 352.016601562 -7 c 5
 286.875 -7 191.908203125 -3 127 -3 c 4
 99.1572265625 -3 41.2958984375 -7 30 -7 c 4
 17.4638671875 -7 16 -2.1416015625 16 10 c 4
 16 26.6123046875 22.7685546875 28 36 28 c 4
 77.18359375 28 l 5
 88.255859375 63.658203125 155.383789062 545.701171875 164.0234375 625.374023438 c 5
 164.661132812 629.841796875 162.6171875 632.540039062 162.232421875 632.9765625 c 5
 93.04296875 631 l 5
 83.7294921875 631 77 632.270507812 77 646 c 4
 77 658.077148438 78.19140625 665 93 665 c 4
 97.072265625 665 178.018554688 664 212 664 c 4
 271.93359375 664 309.87890625 666 344 666 c 4
178.6640625 31.49609375 m 4
 182.788085938 28.7470703125 215.954101562 28 236 28 c 4
 574.794921875 28 611 268.638671875 611 365 c 4
 611 520.479492188 520.576171875 632 316 632 c 4
 296.965820312 632 268.2109375 631.556640625 255.684570312 628.600585938 c 5
 250.23046875 591.861328125 174 89.6201171875 174 46 c 4
 174 36.5224609375 176.854492188 32.703125 178.6640625 31.49609375 c 4
EndSplineSet
Fore
SplineSet
344 666 m 0
 552 666 705 572 705 335 c 0
 705 110 537 -7 341 -7 c 0
 277 -7 188 -3 127 -3 c 0
 99 -3 41 -7 30 -7 c 0
 17 -7 16 -2 16 10 c 0
 16 27 23 28 36 28 c 2
 77 28 l 1
 88 64 154 545 164 625 c 0
 164 629 162 633 162 633 c 1
 93 631 l 2
 84 631 77 632 77 646 c 0
 77 658 78 665 93 665 c 0
 97 665 178 664 212 664 c 0
 272 664 310 666 344 666 c 0
179 31 m 0
 183 28 216 28 236 28 c 0
 575 28 611 269 611 365 c 0
 611 520 521 632 316 632 c 0
 297 632 256.44160937 630.965091485 256 628 c 0
 249.44160937 583.965091485 174 91 174 46 c 0
 174 37 177 32 179 31 c 0
EndSplineSet
Position2: "'cpsp' Capital Spacing in Latin lookup 2 subtable" dx=4 dy=0 dh=8 dv=0
EndChar

StartChar: E
Encoding: 69 69 30
Width: 579
VWidth: 0
Flags: W
HStem: -6 46<172.359 499.881> -3 36<17.0037 80.6357 167.001 370.643> 322 33<211.006 420.812> 408 20G<457.5 464> 633 35<84.0044 160.999 248.076 509.501>
VStem: 161 91<506.438 632.998> 161 50<359 626> 409 36<233.021 310.817> 421 56<307.47 421.274> 504 37<541.001 628.404>
AnchorPoint: "l;bl" 0 10 basechar 0
AnchorPoint: "l;x" 30 380 basechar 0
AnchorPoint: "l;hi" 65 650 basechar 0
AnchorPoint: "l;o" 10 200 basechar 0
AnchorPoint: "top" 352 780 basechar 0
AnchorPoint: "r;bl" 579 10 basechar 0
AnchorPoint: "r;x" 579 380 basechar 0
AnchorPoint: "r;hi" 579 650 basechar 0
AnchorPoint: "r;o" 579 200 basechar 0
LayerCount: 3
Back
SplineSet
171 33 m 4xfd
 196.37109375 33 479.044921875 39.7392578125 489.611328125 39.9912109375 c 5
 496.56640625 46.294921875 512.959960938 105.891601562 525.223632812 135.137695312 c 5
 527.560546875 140.98046875 532.78125 146 542 146 c 4
 550.490234375 146 562 140.951171875 562 132 c 4
 562 119.2734375 540.86328125 70.103515625 519.845703125 7.0517578125 c 4
 516.469726562 -3.078125 510.610351562 -6 500 -6 c 4
 476.956054688 -6 166.959960938 -3 137 -3 c 4
 107.146484375 -3 57.1826171875 -6 34 -6 c 4
 19.794921875 -6 17 -2.42578125 17 15 c 4
 17 28.7109375 22.078125 30 38 30 c 4
 78.4404296875 30 l 5
 84.7451171875 69.548828125 161 550.034179688 161 626 c 4
 161 630.004882812 160.0078125 632.720703125 159.884765625 633 c 5
 106 633 l 4
 94.0986328125 633 84 633.806640625 84 651 c 4
 84 664.217773438 89.845703125 668 99 668 c 4
 106.217773438 668 178.071289062 665 213 665 c 4
 265.926757812 665 378.9140625 668 422 668 c 4
 490.704101562 668 512.702148438 670.4609375 514.041015625 678.493164062 c 5
 514.041015625 678.493164062 521.91015625 693 530 693 c 4
 544.020507812 693 550 690.95703125 550 679 c 4
 550 659.333007812 542.99609375 633.793945312 541 553.962890625 c 5
 541 544.240234375 536.282226562 541 522 541 c 4
 508.775390625 541 504 546.80078125 504 558 c 4
 504 563.057617188 509.176757812 617.24609375 509.91015625 628.943359375 c 5
 489.318359375 632.364257812 352.622070312 634.958984375 251.735351562 635 c 5
 245.05078125 614.721679688 220.416015625 431.453125 211.973632812 368.603515625 c 4
 211.366210938 364.043945312 210.7890625 360.693359375 210.739257812 358.639648438 c 4
 210.666015625 355.659179688 209.826171875 355 223 355 c 4
 387 355 l 4
 407.41015625 355 429.614257812 356.21875 431.03515625 365.456054688 c 4
 431.046875 365.533203125 l 5
 442.05078125 418.551757812 l 5xfb
 443.514648438 427.333984375 453.504882812 428 461 428 c 4
 467.234375 428 477 427.436523438 477 419 c 4
 477 408.909179688 466.958984375 369.504882812 459.948242188 331.447265625 c 4
 453.961914062 299.515625 446.9609375 255.514648438 444.96484375 242.543945312 c 4
 444.955078125 242.477539062 l 5
 444.94140625 242.412109375 l 4
 443.489257812 235.151367188 436.241210938 233 429 233 c 4
 421.646484375 233 409 234.423828125 409 244 c 4
 409 244.248046875 l 5
 409.041015625 244.493164062 l 4
 412.030273438 262.427734375 421 308.004882812 421 311 c 4
 421 317.618164062 417.024414062 322 374 322 c 4
 223 322 l 4
 207.704101562 322 207.583007812 322.620117188 205.9453125 314.4296875 c 5
 203.00390625 298.741210938 171.958007812 82.45703125 166.98046875 38.6611328125 c 5
 166.98046875 38.6611328125 167.680664062 33 171 33 c 4xfd
EndSplineSet
Fore
SplineSet
171 33 m 0x78c0
 196 33 479 40 490 40 c 1
 497 46 513 106 525 135 c 0
 527 141 530 146 542 146 c 0
 550 146 562 141 562 132 c 0
 562 119 541 70 520 7 c 0
 517 -3 511 -6 500 -6 c 0xb8c0
 477 -6 167 -3 137 -3 c 0x78c0
 107 -3 57 -6 34 -6 c 0
 20 -6 17 -2 17 15 c 0
 17 29 22 30 38 30 c 2
 78 30 l 1
 84 70 161 550 161 626 c 0
 161 630 160 633 160 633 c 1
 102 633 l 2
 90 633 84 634 84 651 c 0
 84 664 88 668 97 668 c 0
 104 668 178 665 213 665 c 0
 266 665 379 668 422 668 c 0
 491 668 513 670 514 678 c 0
 514 680 515 693 530 693 c 0
 544 693 550 691 550 679 c 0
 550 659 543 632 541 552 c 0
 541 542 536 541 522 541 c 0
 509 541 504 543 504 554 c 0
 504 559 509 617 510 629 c 1
 489 632 353 635 252 635 c 1xbcc0
 245 615 220 432 212 369 c 0
 211 364 211 360 211 359 c 0
 211 356 210 355 223 355 c 2
 387 355 l 2
 407 355 429 356 431 366 c 2
 442 421 l 2
 443 428 454 428 461 428 c 0
 467 428 477 427 477 419 c 0xbac0
 477 409 467 369 460 331 c 0
 454 299 446 254 445 241 c 0
 444 233 436 233 429 233 c 2
 425 233 l 2
 418 233 409 234 409 241 c 0xb940
 409 247 421 308 421 311 c 0
 421 318 417 322 374 322 c 2
 223 322 l 2
 208 322 208 322 206 314 c 0
 203 298 172 83 167 39 c 0
 167 36 168 33 171 33 c 0x78c0
EndSplineSet
Position2: "'cpsp' Capital Spacing in Latin lookup 2 subtable" dx=4 dy=0 dh=8 dv=0
EndChar

StartChar: F
Encoding: 70 70 31
Width: 541
VWidth: 0
Flags: W
HStem: -3 33<17.0091 79.9209 168.622 251> 322 33<211.006 412.812> 398 20G<446.5 453> 633 35<84.0073 160.999 248.477 483.733>
VStem: 161 91<506.438 632.998> 161 50<359 626> 413 53<296.01 412.182> 479 36<541.009 628.407>
DStem2: 362.978 -6 399.137 -6 0.156434 0.987688<255.533 320.755 364.356 425.529>
AnchorPoint: "r;o" 481 200 basechar 0
AnchorPoint: "r;hi" 541 650 basechar 0
AnchorPoint: "r;x" 541 380 basechar 0
AnchorPoint: "r;bl" 411 10 basechar 0
AnchorPoint: "l;o" 10 200 basechar 0
AnchorPoint: "l;hi" 65 650 basechar 0
AnchorPoint: "l;x" 30 380 basechar 0
AnchorPoint: "l;bl" 0 10 basechar 0
AnchorPoint: "top" 344 780 basechar 0
LayerCount: 3
Back
SplineSet
488.024414062 678.396484375 m 4
 489.158203125 689.736328125 495.086914062 693 504 693 c 4
 518.020507812 693 524 690.95703125 524 679 c 4
 524 659.333007812 516.99609375 633.793945312 515 553.962890625 c 5
 515 544.240234375 510.282226562 541 496 541 c 4
 482.775390625 541 478 546.80078125 478 558 c 4
 478 563.09765625 483.171875 617.157226562 483.915039062 629.02734375 c 5
 466.294921875 632.346679688 352.061523438 634.954101562 251.791015625 635 c 5
 244.502929688 611.072265625 216.669921875 402.35546875 211.9765625 367.627929688 c 4
 211.46484375 363.530273438 211.103515625 360.518554688 211.091796875 358.560546875 c 4
 211.068359375 354.750976562 210.268554688 355 223 355 c 4
 379 355 l 4
 399.412109375 355 421.608398438 356.181640625 423.041992188 365.502929688 c 5
 431.045898438 408.521484375 l 5
 432.518554688 417.359375 442.50390625 418 450 418 c 4
 456.234375 418 466 417.436523438 466 409 c 4
 466 399.0390625 458.965820312 369.540039062 451.948242188 331.447265625 c 4
 445.971679688 299.571289062 441.981445312 265.6484375 439.96484375 252.543945312 c 4
 439.955078125 252.477539062 l 5
 439.94140625 252.412109375 l 4
 438.489257812 245.151367188 431.241210938 243 424 243 c 4
 416.646484375 243 404 244.423828125 404 254 c 4
 404 254.248046875 l 5
 404.041015625 254.493164062 l 4
 407.015625 272.340820312 413 307.885742188 413 311 c 4
 413 317.618164062 409.024414062 322 366 322 c 4
 223 322 l 4
 207.704101562 322 207.583007812 322.620117188 205.9453125 314.4296875 c 5
 203.005859375 298.750976562 171.958007812 79.4619140625 166.98046875 35.6611328125 c 4
 166.971679688 35.583984375 l 5
 166.958984375 35.5068359375 l 4
 166.249023438 31.248046875 167.387695312 30 172 30 c 6
 237 30 l 4
 249.189453125 30 251 26.33203125 251 14 c 4
 251 -1.0947265625 248.745117188 -6 237 -6 c 4
 213.809570312 -6 166.849609375 -3 137 -3 c 4
 107.146484375 -3 57.1826171875 -6 34 -6 c 4
 19.794921875 -6 17 -2.42578125 17 15 c 4
 17 28.7109375 22.078125 30 38 30 c 4
 78.4404296875 30 l 5
 84.7451171875 69.548828125 161 550.034179688 161 626 c 4
 161 630.004882812 160.0078125 632.720703125 159.884765625 633 c 5
 106 633 l 4
 94.0986328125 633 84 633.806640625 84 651 c 4
 84 664.217773438 89.845703125 668 99 668 c 4
 106.217773438 668 178.071289062 665 213 665 c 4
 265.926757812 665 378.9140625 668 422 668 c 4
 490.153320312 668 486.452148438 668.958984375 488.024414062 678.396484375 c 4
EndSplineSet
Fore
SplineSet
488 678 m 0xfb
 490 692 495 693 504 693 c 0
 520 693 524 693 524 679 c 0
 524 671 517 623 515 554 c 0
 515 544 512 541 496 541 c 0
 478 541 479 547 479 558 c 0
 479 563 483 617 484 629 c 1
 466 632 352 635 252 635 c 1xfb
 245 611 217 403 212 368 c 0
 211 364 211 361 211 359 c 0xf7
 211 355 210 355 223 355 c 2
 379 355 l 2
 399 355 421 357 423 366 c 2
 431 409 l 2
 432 418 443 418 450 418 c 0
 456 418 466 417 466 409 c 0
 466 399 459 369 452 331 c 0
 446 299 442 265 440 252 c 0
 439 245 431 243 424 243 c 0
 416 243 403 243 404 253 c 0
 406 266 413 308 413 311 c 0
 413 318 409 322 366 322 c 2
 223 322 l 2
 208 322 208 322 206 314 c 0
 203 298 172 80 167 36 c 0
 166 32 167 30 172 30 c 2
 239 30 l 2
 251 30 251 26 251 14 c 0
 251 -1 251 -6 239 -6 c 0
 216 -6 167 -3 137 -3 c 0
 107 -3 55 -6 32 -6 c 0
 18 -6 17 -2 17 15 c 0
 17 29 20 30 36 30 c 2
 78 30 l 1
 84 70 161 550 161 626 c 0
 161 630 160 633 160 633 c 1
 106 633 l 2
 94 633 84 634 84 651 c 0
 84 664 90 668 99 668 c 0
 106 668 178 665 213 665 c 0
 266 665 379 668 422 668 c 0
 490 668 487 669 488 678 c 0xfb
EndSplineSet
Position2: "'cpsp' Capital Spacing in Latin lookup 2 subtable" dx=4 dy=0 dh=8 dv=0
EndChar

StartChar: G
Encoding: 71 71 32
Width: 721
VWidth: 0
Flags: W
HStem: -29 40<273.683 440.703> 217 36<438.02 540.001 624.825 694> 647 31<344.032 490.589>
VStem: 32 101<161.025 397.237> 540 88<67.8302 217> 606 40<451.058 470.907>
AnchorPoint: "r;o" 721 200 basechar 0
AnchorPoint: "r;hi" 721 650 basechar 0
AnchorPoint: "r;x" 721 380 basechar 0
AnchorPoint: "r;bl" 661 10 basechar 0
AnchorPoint: "l;o" 0 200 basechar 0
AnchorPoint: "l;hi" 40 650 basechar 0
AnchorPoint: "l;x" 0 380 basechar 0
AnchorPoint: "l;bl" 20 10 basechar 0
AnchorPoint: "cedilla" 294 -100 basechar 0
AnchorPoint: "top" 422 780 basechar 0
LayerCount: 3
Back
SplineSet
133 276 m 4
 133 110.359375 237.818359375 11 362 11 c 4
 457.669921875 11 517.764648438 53.4267578125 522.09375 70.7451171875 c 5
 527.056640625 89.603515625 537.009765625 136.28515625 540.004882812 206.1796875 c 5
 540.924804688 218.141601562 538.732421875 217 534 217 c 4
 449 217 l 4
 440.400390625 217 438 224.806640625 438 232 c 4
 438 240.44921875 439.58203125 253 450.030273438 253 c 5
 499.135742188 251.998046875 548.090820312 250 580 250 c 4
 611.874023438 250 635.818359375 251.997070312 682.967773438 253 c 5
 692.98046875 253 694 243.577148438 694 236 c 4
 694 228.744140625 693.376953125 217 683 217 c 4
 627.752929688 217 l 5
 623.114257812 200.564453125 613.63671875 105.653320312 609.981445312 73.6689453125 c 4
 607.540039062 51.6923828125 449.809570312 -29 308 -29 c 4
 229.236328125 -29 32 16.7392578125 32 266 c 4
 32 488.471679688 207.102539062 678 411 678 c 4
 526.359375 678 611.209960938 627.083984375 626.69140625 618.1015625 c 5
 628.45703125 624.639648438 630.245117188 637.5234375 631.05859375 641.587890625 c 4
 631.072265625 641.658203125 l 5
 631.08984375 641.727539062 l 4
 633.092773438 649.7421875 635.35546875 655 645 655 c 4
 653.6796875 655 670.583007812 653.869140625 668.966796875 642.551757812 c 4
 660.962890625 589.528320312 656.982421875 564.671875 645.978515625 467.64453125 c 5
 644.946289062 459.3828125 642.7890625 451 628 451 c 4
 608.6875 451 604.7109375 460.030273438 607.080078125 470.689453125 c 5
 607.947265625 474.16015625 622.280273438 558.48046875 622.984375 569.448242188 c 5
 613.548828125 580.817382812 489.350585938 647 415 647 c 4
 253.583984375 647 133 448.166015625 133 276 c 4
EndSplineSet
Fore
SplineSet
627 618 m 1xf8
 632 634 627 655 645 655 c 0
 654 655 671 654 669 643 c 0
 661 590 657 565 646 468 c 0xf4
 645 460 643 451 628 451 c 0xf8
 612 451 606 457 606 466 c 0xf4
 606 468 607 469 607 471 c 0
 608 474 622 558 623 569 c 1
 614 580 489 647 415 647 c 0
 254 647 133 448 133 276 c 0
 133 110 238 11 362 11 c 0
 458 11 518 54 522 71 c 0
 527 90 537 136 540 206 c 0
 540 214 541 217 534 217 c 2
 447 217 l 2
 438 217 438 225 438 232 c 0
 438 240 438 253 448 253 c 0
 497 252 548 250 580 250 c 0
 612 250 638 252 685 253 c 0
 695 253 694 244 694 236 c 0
 694 229 695 217 685 217 c 2
 628 217 l 1
 623 201 614 106 610 74 c 0
 608 52 450 -29 308 -29 c 0
 229 -29 32 17 32 266 c 0
 32 488 207 678 411 678 c 0
 526 678 612 627 627 618 c 1xf8
EndSplineSet
Position2: "'cpsp' Capital Spacing in Latin lookup 2 subtable" dx=4 dy=0 dh=8 dv=0
EndChar

StartChar: H
Encoding: 72 72 33
Width: 795
VWidth: 0
Flags: W
HStem: -6 36<17.0063 93.316 185.001 262.986 462.06 537.649 626.001 701.986> 323 30<226 575.222> 636 36<95.0037 176.999 266.388 340.94 532.005 613.999 703.191 777.94>
VStem: 534 92<30 164.125>
AnchorPoint: "top" 454 780 basechar 0
AnchorPoint: "l;bl" 0 10 basechar 0
AnchorPoint: "l;x" 35 380 basechar 0
AnchorPoint: "l;hi" 65 650 basechar 0
AnchorPoint: "l;o" 15 200 basechar 0
AnchorPoint: "r;bl" 735 10 basechar 0
AnchorPoint: "r;x" 775 380 basechar 0
AnchorPoint: "r;hi" 795 650 basechar 0
AnchorPoint: "r;o" 755 200 basechar 0
LayerCount: 3
Back
SplineSet
577.018554688 314.33984375 m 4
 577.890625 323.928710938 579.599609375 323 565 323 c 4
 231 323 l 4
 219.963867188 323 218.846679688 322.712890625 216.97265625 309.595703125 c 4
 199.987304688 184.702148438 185 65.421875 185 40 c 4
 185 32.0556640625 186.6796875 30 190 30 c 4
 249 30 l 4
 261.189453125 30 263 26.33203125 263 14 c 4
 263 -1.0947265625 260.745117188 -6 249 -6 c 4
 225.833984375 -6 165.87109375 -3 136 -3 c 4
 106.1484375 -3 57.185546875 -6 34 -6 c 4
 19.560546875 -6 17 -0.4873046875 17 13 c 4
 17 26.3583984375 21.44140625 30 38 30 c 4
 89.4658203125 30 l 5
 103.143554688 65.123046875 177 587.26171875 177 623 c 4
 177 633.1796875 175.162109375 636 171 636 c 6
 110 636 l 4
 102.043945312 636 95 638.659179688 95 654 c 4
 95 671.05078125 104.04296875 672 117 672 c 4
 133.192382812 672 193.120117188 669 223 669 c 4
 252.850585938 669 300.8125 672 324 672 c 4
 338.205078125 672 341 668.42578125 341 651 c 4
 341 637.2890625 335.921875 636 320 636 c 4
 271.307617188 636 l 5
 264.353515625 620.876953125 244.557617188 498.694335938 225.973632812 368.603515625 c 4
 225.392578125 364.248046875 224.919921875 360.8671875 224.877929688 358.515625 c 4
 224.796875 353.9765625 224.676757812 353 235 353 c 4
 567 353 l 4
 580.17578125 353 582.36328125 352.4296875 584.03125 362.438476562 c 5
 600.000976562 486.200195312 614 601.62109375 614 623 c 4
 614 635.948242188 612.775390625 636 608 636 c 4
 547 636 l 4
 539.043945312 636 532 638.659179688 532 654 c 4
 532 671.05078125 541.04296875 672 554 672 c 4
 570.190429688 672 631.118164062 669 661 669 c 4
 690.84765625 669 737.811523438 672 761 672 c 4
 775.205078125 672 778 668.42578125 778 651 c 4
 778 637.2890625 772.921875 636 757 636 c 4
 708.135742188 636 l 5
 691.266601562 603.059570312 626 50.7431640625 626 40 c 4
 626 32.0556640625 627.6796875 30 631 30 c 4
 688 30 l 4
 700.189453125 30 702 26.33203125 702 14 c 4
 702 -1.0947265625 699.745117188 -6 688 -6 c 4
 664.8359375 -6 603.873046875 -3 574 -3 c 4
 544.16015625 -3 502.203125 -6 479 -6 c 4
 464.794921875 -6 462 -2.42578125 462 15 c 4
 462 28.7109375 467.078125 30 483 30 c 4
 534.231445312 30 l 5
 539.809570312 47.63671875 558.482421875 179.025390625 577.018554688 314.33984375 c 4
EndSplineSet
Fore
SplineSet
577 314 m 0
 578 321 578 323 569 323 c 2
 231 323 l 2
 220 323 219 323 217 310 c 0
 200 185 185 65 185 40 c 0
 185 32 187 30 190 30 c 2
 249 30 l 2
 261 30 263 26 263 14 c 0
 263 -1 261 -6 249 -6 c 0
 226 -6 166 -3 136 -3 c 0
 106 -3 55 -6 32 -6 c 0
 18 -6 17 0 17 13 c 0
 17 26 19 30 36 30 c 2
 89 30 l 1
 103 65 177 587 177 623 c 0
 177 633 175 636 171 636 c 2
 106 636 l 2
 98 636 95 639 95 654 c 0
 95 671 100 672 113 672 c 0
 129 672 193 669 223 669 c 0
 253 669 301 672 324 672 c 0
 338 672 341 668 341 651 c 0
 341 637 336 636 320 636 c 2
 271 636 l 1
 264 621 245 499 226 369 c 0
 225 359 223 353 235 353 c 2
 573 353 l 2
 580 353 583 354 584 362 c 0
 601 486 614 602 614 623 c 0
 614 636 613 636 608 636 c 2
 545 636 l 2
 537 636 532 639 532 654 c 0
 532 671 539 672 552 672 c 0
 568 672 631 669 661 669 c 0
 691 669 738 672 761 672 c 0
 775 672 778 668 778 651 c 0
 778 637 773 636 757 636 c 2
 708 636 l 1
 691 603 626 51 626 40 c 0
 626 32 628 30 631 30 c 2
 688 30 l 2
 700 30 702 26 702 14 c 0
 702 -1 700 -6 688 -6 c 0
 665 -6 604 -3 574 -3 c 0
 544 -3 502 -6 479 -6 c 0
 465 -6 462 -2 462 15 c 0
 462 29 467 30 483 30 c 2
 534 30 l 1
 540 48 558 179 577 314 c 0
EndSplineSet
Position2: "'cpsp' Capital Spacing in Latin lookup 2 subtable" dx=4 dy=0 dh=8 dv=0
EndChar

StartChar: I
Encoding: 73 73 34
Width: 377
VWidth: 0
Flags: W
HStem: -3 33<17.0148 98.9658 197.001 281.999> 636 36<97.0051 183.999 278.52 359.94>
AnchorPoint: "r;o" 327 200 basechar 0
AnchorPoint: "r;hi" 377 650 basechar 0
AnchorPoint: "r;x" 347 380 basechar 0
AnchorPoint: "r;bl" 307 10 basechar 0
AnchorPoint: "l;o" 15 200 basechar 0
AnchorPoint: "l;hi" 80 650 basechar 0
AnchorPoint: "l;x" 35 380 basechar 0
AnchorPoint: "l;bl" 0 10 basechar 0
AnchorPoint: "top" 250 780 basechar 0
LayerCount: 3
Back
SplineSet
178 636 m 6
 112 636 l 4
 104.043945312 636 97 638.659179688 97 654 c 4
 97 671.05078125 106.04296875 672 119 672 c 4
 135.177734375 672 204.10546875 669 234 669 c 4
 263.860351562 669 319.83203125 672 343 672 c 4
 357.205078125 672 360 668.42578125 360 651 c 4
 360 637.2890625 354.921875 636 339 636 c 4
 283.323242188 636 l 5
 268.502929688 604.252929688 197 97.1064453125 197 40 c 4
 197 32.0556640625 198.6796875 30 202 30 c 4
 268 30 l 4
 280.189453125 30 282 26.33203125 282 14 c 4
 282 -1.0947265625 279.745117188 -6 268 -6 c 4
 244.849609375 -6 176.876953125 -3 147 -3 c 4
 117.135742188 -3 57.158203125 -6 34 -6 c 4
 19.794921875 -6 17 -2.42578125 17 15 c 4
 17 28.7109375 22.078125 30 38 30 c 4
 96.1875 30 l 5
 107.71875 66.0908203125 184 574.795898438 184 623 c 4
 184 633.1796875 182.162109375 636 178 636 c 6
EndSplineSet
Fore
SplineSet
178 636 m 2
 111 636 l 2
 103 636 97 639 97 654 c 0
 97 671 104 672 117 672 c 0
 133 672 204 669 234 669 c 0
 264 669 320 672 343 672 c 0
 357 672 360 668 360 651 c 0
 360 637 355 636 339 636 c 2
 283 636 l 1
 268 604 197 97 197 40 c 0
 197 32 199 30 202 30 c 2
 268 30 l 2
 280 30 282 26 282 14 c 0
 282 -1 280 -6 268 -6 c 0
 245 -6 177 -3 147 -3 c 0
 117 -3 57 -6 34 -6 c 0
 20 -6 17 -2 17 15 c 0
 17 29 22 30 38 30 c 2
 96 30 l 1
 108 66 184 575 184 623 c 0
 184 633 182 636 178 636 c 2
EndSplineSet
Position2: "'cpsp' Capital Spacing in Latin lookup 2 subtable" dx=4 dy=0 dh=8 dv=0
EndChar

StartChar: J
Encoding: 74 74 35
Width: 365
VWidth: 0
Flags: W
HStem: -215 73<-28.8221 78> 636 36<86.0066 184 273.456 347.94>
AnchorPoint: "l;bl" 0 10 basechar 0
AnchorPoint: "l;x" 35 380 basechar 0
AnchorPoint: "l;hi" 70 650 basechar 0
AnchorPoint: "l;o" 15 200 basechar 0
AnchorPoint: "r;bl" 295 10 basechar 0
AnchorPoint: "r;x" 335 380 basechar 0
AnchorPoint: "r;hi" 365 650 basechar 0
AnchorPoint: "r;o" 315 200 basechar 0
AnchorPoint: "top" 237 780 basechar 0
LayerCount: 3
Back
SplineSet
106.015625 -4.6904296875 m 0
 131.004882812 239.205078125 184 604.865234375 184 621 c 0
 184 631.771484375 183.955078125 636 177 636 c 0
 109 636 l 0
 97.220703125 636 86 636.625976562 86 654 c 0
 86 671.2421875 96.1669921875 672 109 672 c 0
 125.159179688 672 202.10546875 669 232 669 c 0
 261.846679688 669 307.80859375 672 331 672 c 0
 345.205078125 672 348 668.42578125 348 651 c 0
 348 637.2890625 342.921875 636 327 636 c 0
 278.2265625 636 l 1
 264.756835938 608.141601562 216.536132812 206.419921875 205.975585938 129.615234375 c 0
 194.99609375 44.7744140625 185.022460938 -66.1640625 106.190429688 -150.049804688 c 0
 77.220703125 -181.017578125 42.53125 -215 -5 -215 c 0
 -27.537109375 -215 -61 -205.744140625 -61 -188 c 0
 -61 -150.23828125 0.5888671875 -121 9 -121 c 0
 27.458984375 -121 41.900390625 -142 61 -142 c 0
 94.845703125 -142 99.8193359375 -63.560546875 106.015625 -4.6904296875 c 0
EndSplineSet
Fore
SplineSet
106 -5 m 0
 131 239 184 605 184 621 c 0
 184 632 184 636 177 636 c 2
 107 636 l 2
 95 636 86 637 86 654 c 0
 86 671 94 672 107 672 c 0
 123 672 202 669 232 669 c 0
 262 669 308 672 331 672 c 0
 345 672 348 668 348 651 c 0
 348 637 343 636 327 636 c 2
 278 636 l 1
 265 608 216 207 206 130 c 0
 194 45 185 -66 106 -150 c 0
 77 -181 43 -215 -5 -215 c 0
 -28 -215 -61 -206 -61 -188 c 0
 -61 -150 1 -121 9 -121 c 0
 27 -121 42 -142 61 -142 c 0
 95 -142 100 -64 106 -5 c 0
EndSplineSet
Position2: "'cpsp' Capital Spacing in Latin lookup 2 subtable" dx=4 dy=0 dh=8 dv=0
EndChar

StartChar: K
Encoding: 75 75 36
Width: 656
VWidth: 0
Flags: W
HStem: -6 36<17.0033 73.4028 162 242.986 416.015 461.999 564.002 638.999> 317 24<205.385 266.553> 636 36<84.0066 161.999 253.371 315.979 440.006 493.999 538.345 627.94>
AnchorPoint: "l;bl" 0 10 basechar 0
AnchorPoint: "l;x" 30 380 basechar 0
AnchorPoint: "l;hi" 65 650 basechar 0
AnchorPoint: "l;o" 10 200 basechar 0
AnchorPoint: "cedilla" 308 -100 basechar 0
AnchorPoint: "r;bl" 656 10 basechar 0
AnchorPoint: "r;x" 636 380 basechar 0
AnchorPoint: "r;hi" 646 650 basechar 0
AnchorPoint: "r;o" 636 200 basechar 0
LayerCount: 3
Back
SplineSet
325.072265625 349.169921875 m 0
 393.58203125 286.705078125 481.427734375 156.763671875 564.4140625 45.7802734375 c 1
 571.81640625 35.603515625 583.842773438 30 597 30 c 0
 625 30 l 0
 637.189453125 30 639 26.33203125 639 14 c 0
 639 -1.0947265625 636.745117188 -6 625 -6 c 0
 601.8359375 -6 540.873046875 -3 511 -3 c 0
 481.201171875 -3 456.263671875 -6 433 -6 c 0
 418.794921875 -6 416 -2.42578125 416 15 c 0
 416 28.7109375 421.078125 30 437 30 c 0
 445 30 l 0
 460.594726562 30 462 33.388671875 462 34 c 0
 462 37.0849609375 456.833007812 43.888671875 450.571289062 52.23828125 c 1
 411.673828125 107.666992188 270.430664062 306.944335938 256.438476562 317 c 1
 211 317 l 0
 201.579101562 317 199.6015625 318.541015625 197.963867188 309.530273438 c 0
 184.990234375 213.72265625 161 69.2255859375 161 38 c 0
 161 34.6044921875 161.592773438 30.685546875 161.739257812 30 c 1
 229 30 l 0
 241.189453125 30 243 26.33203125 243 14 c 0
 243 -1.0947265625 240.745117188 -6 229 -6 c 0
 205.833984375 -6 145.87109375 -3 116 -3 c 0
 86.189453125 -3 57.24609375 -6 34 -6 c 0
 19.560546875 -6 17 -0.4873046875 17 13 c 0
 17 26.3583984375 21.44140625 30 38 30 c 0
 69.482421875 30 l 1
 83.4833984375 65.107421875 162 587.291992188 162 623 c 0
 162 633.1796875 160.162109375 636 156 636 c 0
 99 636 l 0
 91.0439453125 636 84 638.659179688 84 654 c 0
 84 671.05078125 93.04296875 672 106 672 c 0
 122.202148438 672 178.125 669 208 669 c 0
 237.83203125 669 275.786132812 672 299 672 c 0
 313.205078125 672 316 668.42578125 316 651 c 0
 316 637.2890625 310.921875 636 295 636 c 0
 260.42578125 636 l 1
 245.71875 622.584960938 205.946289062 373.048828125 204.9921875 357.782226562 c 1
 204.048828125 346.456054688 208.463867188 341 215 341 c 0
 264.677734375 341 l 1
 280.991210938 349.3203125 442.767578125 560.419921875 485.534179688 619.709960938 c 1
 489.84375 626.174804688 495 632.203125 495 634 c 0
 495 634.2109375 492.313476562 636 483 636 c 0
 462 636 l 0
 450.098632812 636 440 636.806640625 440 654 c 0
 440 671.05078125 449.04296875 672 462 672 c 0
 478.346679688 672 501.180664062 669 531 669 c 0
 560.803710938 669 587.747070312 672 611 672 c 0
 625.205078125 672 628 668.42578125 628 651 c 0
 628 637.2890625 622.921875 636 607 636 c 0
 550.505859375 636 l 1
 485.708984375 549.177734375 379.165039062 426.920898438 333.2421875 376.006835938 c 0
 325.745117188 367.573242188 317.668945312 360.10546875 317.012695312 358.825195312 c 1
 317.61328125 356.889648438 320.6328125 353.609375 325.072265625 349.169921875 c 0
EndSplineSet
Fore
SplineSet
325 349 m 0
 394 287 481 157 564 46 c 0
 571 36 584 30 597 30 c 2
 627 30 l 2
 639 30 639 26 639 14 c 0
 639 -1 639 -6 627 -6 c 0
 604 -6 567 -3 511 -3 c 0
 481 -3 454 -6 431 -6 c 0
 417 -6 416 -2 416 15 c 0
 416 29 421 30 437 30 c 2
 445 30 l 2
 461 30 462 33 462 34 c 0
 462 37 457 44 451 52 c 0
 412 107 263 317 256 317 c 2
 207 317 l 2
 202 317 199 316 198 310 c 0
 185 214 161 69 161 38 c 0
 161 35 162 31 162 30 c 1
 229 30 l 2
 241 30 243 26 243 14 c 0
 243 -1 241 -6 229 -6 c 0
 206 -6 146 -3 116 -3 c 0
 86 -3 55 -6 32 -6 c 0
 18 -6 17 0 17 13 c 0
 17 26 21 30 38 30 c 2
 69 30 l 1
 83 65 162 587 162 623 c 0
 162 633 160 636 156 636 c 2
 99 636 l 2
 91 636 84 639 84 654 c 0
 84 671 93 672 106 672 c 0
 122 672 178 669 208 669 c 0
 238 669 278 672 301 672 c 0
 315 672 316 668 316 651 c 0
 316 637 313 636 297 636 c 2
 260 636 l 1
 245 623 206 373 205 358 c 0
 204 347 208 341 215 341 c 2
 264 341 l 2
 275 341 443 561 486 620 c 0
 490 626 494 631 494 633 c 0
 494 635 492 636 483 636 c 2
 460 636 l 2
 448 636 440 637 440 654 c 0
 440 671 447 672 458 672 c 0
 472 672 501 669 531 669 c 0
 571 669 594 672 611 672 c 0
 625 672 628 668 628 651 c 0
 628 637 623 636 607 636 c 2
 551 636 l 1
 486 549 379 427 333 376 c 0
 326 368 318 360 318 359 c 0
 318 357 321 353 325 349 c 0
EndSplineSet
Position2: "'cpsp' Capital Spacing in Latin lookup 2 subtable" dx=4 dy=0 dh=8 dv=0
EndChar

StartChar: L
Encoding: 76 76 37
Width: 586
VWidth: 0
Flags: HW
HStem: -6 36<17.0272 89.0071> -3 37<181.002 503.056> 636 36<87.0022 163 256.146 337.997>
VStem: 163 95<484.589 636>
AnchorPoint: "l;o" 10 200 basechar 0
AnchorPoint: "l;hi" 70 650 basechar 0
AnchorPoint: "l;x" 30 380 basechar 0
AnchorPoint: "l;bl" 0 10 basechar 0
AnchorPoint: "caron" 380 550 basechar 0
AnchorPoint: "cedilla" 295 -100 basechar 0
AnchorPoint: "top" 223 780 basechar 0
AnchorPoint: "r;bl" 586 10 basechar 0
AnchorPoint: "r;o" 586 200 basechar 0
LayerCount: 3
Back
SplineSet
195 34 m 4x60
 303.857421875 34 476.064453125 39.021484375 485.756835938 39.990234375 c 5
 501.00390625 40.943359375 500.146484375 39.931640625 506.129882812 60.8759765625 c 5
 531.177734375 138.021484375 l 5
 531.21484375 138.114257812 l 4
 533.481445312 143.782226562 537.662109375 148 545 148 c 4
 554.65625 148 569 144.581054688 569 135 c 4
 569 125.280273438 549.913085938 77.2841796875 531.91796875 7.30078125 c 5
 529.446289062 -3.8203125 519.079101562 -6 509 -6 c 4xa0
 485.958007812 -6 162.9609375 -3 133 -3 c 4x60
 103.15234375 -3 56.1884765625 -6 33 -6 c 4
 18.6259765625 -6 17 -2.11328125 17 15 c 4
 17 28.423828125 20.92578125 30 37 30 c 4
 86.5966796875 30 l 5xa0
 93.845703125 71.49609375 163 596.012695312 163 626 c 4
 163 631.02734375 162.848632812 634.859375 162.71484375 636 c 5
 106 636 l 4
 92.4033203125 636 87 638.6875 87 654 c 4
 87 669.771484375 93.8125 672 110 672 c 4
 126.212890625 672 178.129882812 669 208 669 c 4
 237.861328125 669 294.833984375 672 318 672 c 4
 334.619140625 672 338 669.0078125 338 654 c 4
 338 640.80859375 333.841796875 636 317 636 c 4
 257.638671875 636 l 5
 252.118164062 594.087890625 181 64.6611328125 181 53 c 4
 181 40.4873046875 184.26171875 34 195 34 c 4x60
EndSplineSet
Fore
SplineSet
199 34 m 0x70
 308 34 476 39 486 40 c 0
 501 41 499 40 506 61 c 2
 532 140 l 2
 534 146 538 150 545 149 c 0
 554 148 569 145 569 135 c 0
 569 131 550 76 531 7 c 0
 528 -4 523 -6 513 -6 c 0xb0
 490 -6 163 -3 133 -3 c 0x70
 103 -3 56 -6 33 -6 c 0
 19 -6 17 -2 17 15 c 0
 17 28 21 30 37 30 c 2
 87 30 l 1xb0
 94 71 163 596 163 626 c 2
 163 636 l 1
 104 636 l 2
 90 636 87 639 87 654 c 0
 87 670 90 672 106 672 c 0
 122 672 164 669 208 669 c 0
 256 669 295 672 318 672 c 0
 335 672 338 669 338 654 c 0
 338 641 334 636 317 636 c 2
 258 636 l 1
 252 594 181 65 181 53 c 0
 181 40 184 34 199 34 c 0x70
EndSplineSet
AlternateSubs2: "'aalt' Access All Alternates in Latin lookup 0 subtable" L.CAT
Position2: "'cpsp' Capital Spacing in Latin lookup 2 subtable" dx=4 dy=0 dh=8 dv=0
Substitution2: "catalan subtable" L.CAT
EndChar

StartChar: M
Encoding: 77 77 38
Width: 883
VWidth: 0
Flags: W
HStem: -6 36<17.0601 87.1061 132 207.986 579.06 644.052 738 827.973> 636 36<134.014 215.998 799.927 865.94>
DStem2: 323 657 248 604 0.194634 -0.980876<37.3889 538.106> 444 148 469 123 0.450235 0.89291<-20.1217 530.516>
AnchorPoint: "top" 507 780 basechar 0
AnchorPoint: "l;bl" 0 10 basechar 0
AnchorPoint: "l;x" 40 380 basechar 0
AnchorPoint: "l;hi" 120 650 basechar 0
AnchorPoint: "l;o" 20 200 basechar 0
AnchorPoint: "r;bl" 843 10 basechar 0
AnchorPoint: "r;x" 883 380 basechar 0
AnchorPoint: "r;hi" 883 650 basechar 0
AnchorPoint: "r;o" 883 200 basechar 0
LayerCount: 3
Back
SplineSet
356.0390625 35.515625 m 4
 332.75390625 180.600585938 261.946289062 532.795898438 247.63671875 603.666015625 c 5
 225.102539062 516.466796875 210.254882812 451.061523438 194.9375 376.388671875 c 4
 165.120117188 233.075195312 134.388671875 61.1220703125 132.131835938 30 c 5
 194 30 l 4
 206.189453125 30 208 26.33203125 208 14 c 4
 208 -1.0947265625 205.745117188 -6 194 -6 c 4
 183.731445312 -6 135.883789062 -3 106 -3 c 4
 76.16796875 -3 48.3251953125 -6 34 -6 c 4
 19.794921875 -6 17 -2.42578125 17 15 c 4
 17 28.7109375 22.078125 30 38 30 c 4
 83.5791015625 30 l 5
 114.48046875 172.854492188 215.721679688 618.96484375 216.00390625 631.16796875 c 5
 215.8046875 634.744140625 213.56640625 636 194 636 c 4
 148 636 l 4
 135.810546875 636 134 639.66796875 134 652 c 4
 134 667.094726562 136.254882812 672 148 672 c 4
 162.171875 672 232.1328125 669 253 669 c 4
 274.829101562 669 293.397460938 672 300 672 c 4
 309.951171875 672 319.491210938 671.546875 322.93359375 656.62890625 c 5
 423.94140625 147.587890625 l 4
 426.561523438 134.48828125 429.708007812 127.1328125 430.997070312 126.0390625 c 5
 433.715820312 127.71484375 439.046875 136.926757812 444.28515625 148.27734375 c 5
 526.302734375 319.314453125 602.303710938 480.322265625 696.366210938 653.436523438 c 4
 702.517578125 664.712890625 707.049804688 669 720 669 c 4
 764 669 l 4
 793.818359375 669 825.765625 672 849 672 c 4
 863.205078125 672 866 668.42578125 866 651 c 4
 866 637.2890625 860.921875 636 845 636 c 4
 801.702148438 636 l 5
 797.176757812 594.659179688 740.1015625 92.65234375 738.0546875 30 c 5
 812 30 l 4
 823.776367188 30 828 27.0830078125 828 14 c 4
 828 -1.0947265625 825.745117188 -6 814 -6 c 4
 790.8515625 -6 721.877929688 -3 692 -3 c 4
 662.10546875 -3 605.241210938 -6 596 -6 c 4
 581.794921875 -6 579 -2.42578125 579 15 c 4
 579 28.7109375 584.078125 30 600 30 c 4
 638.326171875 30 l 5
 656.8828125 54.8505859375 705.516601562 517.46875 714.46484375 605.885742188 c 5
 628.37890625 441.831054688 566.055664062 329.084960938 468.71875 122.731445312 c 4
 447.377929688 77.0009765625 429.016601562 71.69921875 393.352539062 25.1376953125 c 5
 384.279296875 14.0478515625 380.197265625 12 375 12 c 4
 368.344726562 12 359.188476562 16.62109375 356.0390625 35.515625 c 4
EndSplineSet
Fore
SplineSet
356 36 m 0
 333 181 262 533 248 604 c 1
 225 517 210 451 195 376 c 0
 165 233 134 61 132 30 c 1
 194 30 l 2
 206 30 208 26 208 14 c 0
 208 -1 206 -6 194 -6 c 0
 184 -6 136 -3 106 -3 c 0
 76 -3 48 -6 34 -6 c 0
 20 -6 17 -2 17 15 c 0
 17 29 22 30 38 30 c 2
 84 30 l 1
 115 173 216 619 216 631 c 0
 216 635 214 636 194 636 c 2
 148 636 l 2
 136 636 134 640 134 652 c 0
 134 667 136 672 148 672 c 0
 162 672 232 669 253 669 c 0
 275 669 293 672 300 672 c 0
 310 672 320 672 323 657 c 2
 424 148 l 2
 427 135 429 130 432 130 c 0
 435 130 439 137 444 148 c 0
 526 319 602 480 696 653 c 0
 702 664 707 669 720 669 c 2
 764 669 l 2
 794 669 826 672 849 672 c 0
 863 672 866 668 866 651 c 0
 866 637 861 636 845 636 c 2
 802 636 l 1
 797 595 740 93 738 30 c 1
 812 30 l 2
 824 30 828 27 828 14 c 0
 828 -1 826 -6 814 -6 c 0
 791 -6 722 -3 692 -3 c 0
 662 -3 605 -6 596 -6 c 0
 582 -6 579 -2 579 15 c 0
 579 29 584 30 600 30 c 2
 638 30 l 1
 657 55 705 518 714 606 c 1
 628 442 566 329 469 123 c 0
 448 77 429 72 393 25 c 0
 384 14 380 12 375 12 c 0
 368 12 359 17 356 36 c 0
EndSplineSet
Position2: "'cpsp' Capital Spacing in Latin lookup 2 subtable" dx=4 dy=0 dh=8 dv=0
EndChar

StartChar: N
Encoding: 78 78 39
Width: 824
VWidth: 0
Flags: W
HStem: -24 21G<625.5 639> -3 33<17.0148 87.6337 143 240.999> 636 36<87.0012 184 603.014 692 742.47 806.94>
VStem: 692 54<527.038 636>
DStem2: 281 658 180 625 0.549278 -0.83564<-24.0247 -16.0793 56.2374 455.168>
AnchorPoint: "cedilla" 379 -100 basechar 0
AnchorPoint: "top" 474 780 basechar 0
AnchorPoint: "l;bl" 0 10 basechar 0
AnchorPoint: "l;x" 20 380 basechar 0
AnchorPoint: "l;hi" 70 650 basechar 0
AnchorPoint: "l;o" 0 200 basechar 0
AnchorPoint: "r;bl" 744 10 basechar 0
AnchorPoint: "r;x" 804 380 basechar 0
AnchorPoint: "r;hi" 824 650 basechar 0
AnchorPoint: "r;o" 784 200 basechar 0
LayerCount: 3
Back
SplineSet
280.517578125 657.630859375 m 6x7c
 609.49609375 158.6640625 l 4
 616.143554688 148.692382812 620.142578125 148.196289062 621.530273438 148.049804688 c 5
 633.845703125 179.022460938 692 570.280273438 692 627 c 4
 692 631.62109375 691.731445312 635.928710938 691.720703125 636 c 5
 617 636 l 4
 604.810546875 636 603 639.66796875 603 652 c 4
 603 667.094726562 605.254882812 672 617 672 c 4
 640.220703125 672 676.172851562 669 706 669 c 4
 735.815429688 669 766.76171875 672 790 672 c 4
 804.205078125 672 807 668.42578125 807 651 c 4
 807 637.2890625 801.921875 636 786 636 c 4
 745.852539062 636 l 5
 736.962890625 607.268554688 687.884765625 303.71875 666.961914062 171.526367188 c 4
 662.9609375 146.515625 657.993164062 122.793945312 650.99609375 3.8427734375 c 4
 649.995117188 -15.1640625 646.234375 -24 632 -24 c 4xbc
 619.165039062 -24 609.982421875 -4.80078125 601.436523438 9.44140625 c 5
 556.491210938 82.353515625 526.515625 126.318359375 483.524414062 189.305664062 c 4
 227.533203125 563.29296875 l 5
 221.760742188 571.5390625 216.66796875 580.501953125 214.575195312 582.502929688 c 5
 213.397460938 579.337890625 212.655273438 574.512695312 212 566.0234375 c 5
 212 552.072265625 142 127.537109375 142 42 c 4
 142 35.4052734375 142.848632812 30.56640625 143.037109375 30 c 5
 227 30 l 4
 239.189453125 30 241 26.33203125 241 14 c 4
 241 -1.0947265625 238.745117188 -6 227 -6 c 4
 203.823242188 -6 150.858398438 -3 121 -3 c 4
 91.107421875 -3 42.28125 -6 34 -6 c 4
 19.794921875 -6 17 -2.42578125 17 15 c 4
 17 28.7109375 22.078125 30 38 30 c 4
 85.4462890625 30 l 5
 113.484375 203.079101562 143.178710938 373.24609375 174.040039062 541.493164062 c 5
 177.049804688 561.553710938 185 596.689453125 185 614 c 4
 185 617.157226562 184.611328125 617.133789062 180.376953125 624.543945312 c 5
 173.924804688 636.525390625 172.19140625 636 151 636 c 4
 101 636 l 4
 88.810546875 636 87 639.66796875 87 652 c 4
 87 667.094726562 89.2548828125 672 101 672 c 4
 115.163085938 672 192.119140625 669 213 669 c 4
 234.826171875 669 251.35546875 672 258 672 c 4
 269.8359375 672 273.451171875 668.736328125 280.517578125 657.630859375 c 6x7c
EndSplineSet
Fore
SplineSet
281 658 m 2x70
 609 159 l 2
 616 149 621 148 622 148 c 0
 634 179 692 570 692 627 c 2
 692 636 l 1
 617 636 l 2
 605 636 603 640 603 652 c 0
 603 667 605 672 617 672 c 0
 634 672 669 669 706 669 c 0
 748 669 776 672 790 672 c 0
 804 672 807 668 807 651 c 0
 807 637 802 636 786 636 c 2
 746 636 l 1
 737 607 688 304 667 172 c 0
 663 147 658 120 650 2 c 0
 649 -17 646 -24 632 -24 c 0xb0
 619 -24 610 -5 601 9 c 0
 556 82 527 126 484 189 c 2
 228 563 l 2
 219 575 214 583 212 566 c 0
 210 552 142 128 142 42 c 0
 142 35 143 31 143 30 c 1
 227 30 l 2
 239 30 241 26 241 14 c 0
 241 -1 239 -6 227 -6 c 0
 204 -6 151 -3 121 -3 c 0
 91 -3 42 -6 34 -6 c 0
 20 -6 17 -2 17 15 c 0
 17 29 22 30 38 30 c 2
 85 30 l 1
 113 203 144 373 174 541 c 0
 178 561 185 597 185 614 c 0
 185 617 184 618 180 625 c 0
 175 635 173 636 159 636 c 2
 99 636 l 2
 87 636 87 640 87 652 c 0
 87 667 87 672 99 672 c 0
 113 672 192 669 213 669 c 0
 235 669 251 672 258 672 c 0
 270 672 274 669 281 658 c 2x70
EndSplineSet
Position2: "'cpsp' Capital Spacing in Latin lookup 2 subtable" dx=4 dy=0 dh=8 dv=0
EndChar

StartChar: O
Encoding: 79 79 40
Width: 734
VWidth: 0
Flags: HW
HStem: -25 30<273.791 418.499> 642 34<338.033 480.12>
VStem: 32 98<157.84 406.966> 605 97<239.527 483.031>
AnchorPoint: "top" 439 780 basechar 0
AnchorPoint: "l;bl" 20 10 basechar 0
AnchorPoint: "l;x" 0 380 basechar 0
AnchorPoint: "l;hi" 40 650 basechar 0
AnchorPoint: "l;o" 0 200 basechar 0
AnchorPoint: "r;x" 734 380 basechar 0
AnchorPoint: "r;hi" 734 650 basechar 0
AnchorPoint: "r;o" 699 200 basechar 0
AnchorPoint: "r;bl" 644 10 basechar 0
LayerCount: 3
Fore
SplineSet
334 -25 m 0
 173 -25 32 64 32 280 c 0
 32 521 224 676 407 676 c 0
 590 676 702 543 702 348 c 0
 702 146 539 -25 334 -25 c 0
130 286 m 0
 130 148 195 5 351 5 c 0
 506 5 605 213 605 373 c 0
 605 484 551 642 410 642 c 0
 267 642 130 462 130 286 c 0
EndSplineSet
Position2: "'cpsp' Capital Spacing in Latin lookup 2 subtable" dx=4 dy=0 dh=8 dv=0
EndChar

StartChar: P
Encoding: 80 80 41
Width: 570
VWidth: 0
Flags: W
HStem: -3 33<17.0148 79.9209 168.501 251> 301 25<205.244 323.315> 633 35<84.0058 160.999> 640 30<247.427 373.334>
VStem: 161 88<495.083 632.998> 455 83<410.226 577.022>
AnchorPoint: "l;bl" 0 10 basechar 0
AnchorPoint: "l;x" 30 380 basechar 0
AnchorPoint: "l;hi" 69 650 basechar 0
AnchorPoint: "l;o" 10 200 basechar 0
AnchorPoint: "top" 325 780 basechar 0
AnchorPoint: "r;bl" 420 10 basechar 0
AnchorPoint: "r;x" 530 380 basechar 0
AnchorPoint: "r;hi" 570 650 basechar 0
AnchorPoint: "r;o" 480 200 basechar 0
LayerCount: 3
Back
SplineSet
248.806640625 636.548828125 m 5xd8
 244.135742188 607.033203125 215.846679688 418.674804688 206.977539062 353.631835938 c 5
 205.98046875 344.661132812 205 338.51171875 205 335 c 4
 205 327.34375 210.963867188 326 233 326 c 4
 341.608398438 326 455 370.618164062 455 490 c 4
 455 587.35546875 398.75 640 291 640 c 4
 281.33203125 640 253.767578125 638.462890625 248.806640625 636.548828125 c 5xd8
291 299 m 4
 263.892578125 299 224.815429688 301 215 301 c 4
 202.794921875 301 201.634765625 300.252929688 199.95703125 294.494140625 c 5
 197.002929688 278.734375 171.969726562 79.560546875 166.98046875 35.6611328125 c 4
 166.971679688 35.583984375 l 5
 166.958984375 35.5068359375 l 4
 166.249023438 31.248046875 167.387695312 30 172 30 c 4
 237 30 l 4
 249.189453125 30 251 26.33203125 251 14 c 4
 251 -1.0947265625 248.745117188 -6 237 -6 c 4
 213.809570312 -6 166.849609375 -3 137 -3 c 4
 107.146484375 -3 57.1826171875 -6 34 -6 c 4
 19.794921875 -6 17 -2.42578125 17 15 c 4
 17 28.7109375 22.078125 30 38 30 c 4
 78.4052734375 30 l 5
 84.478515625 71.67578125 161 598.015625 161 626 c 4
 161 630.004882812 160.0078125 632.720703125 159.884765625 633 c 5
 106 633 l 4
 94.0986328125 633 84 633.806640625 84 651 c 4
 84 664.217773438 89.845703125 668 99 668 c 4xe8
 106.228515625 668 173.077148438 665 208 665 c 4
 237.794921875 665 306.743164062 670 325 670 c 4
 462.15234375 670 538 595.908203125 538 496 c 4
 538 341.500976562 407.397460938 299 291 299 c 4
EndSplineSet
Fore
SplineSet
249 637 m 1xdc
 244 607 216 419 207 354 c 0
 206 345 205 339 205 335 c 0
 205 327 211 326 233 326 c 0
 342 326 455 371 455 490 c 0
 455 587 399 640 291 640 c 0
 281 640 254 639 249 637 c 1xdc
291 299 m 0
 264 299 225 301 215 301 c 0
 203 301 201 300 200 294 c 0
 196 278 172 80 167 36 c 0
 166 32 167 30 172 30 c 2
 239 30 l 2
 251 30 251 26 251 14 c 0
 251 -1 251 -6 239 -6 c 0
 216 -6 167 -3 137 -3 c 0
 107 -3 57 -6 34 -6 c 0
 20 -6 17 -2 17 15 c 0
 17 29 22 30 38 30 c 2
 78 30 l 1
 84 72 161 598 161 626 c 0
 161 630 160 633 160 633 c 1
 104 633 l 2
 92 633 84 634 84 651 c 0
 84 664 88 668 97 668 c 0xec
 104 668 173 665 208 665 c 0
 238 665 307 670 325 670 c 0
 462 670 538 596 538 496 c 0
 538 342 407 299 291 299 c 0
EndSplineSet
Position2: "'cpsp' Capital Spacing in Latin lookup 2 subtable" dx=4 dy=0 dh=8 dv=0
EndChar

StartChar: Q
Encoding: 81 81 42
Width: 717
VWidth: 0
Flags: W
HStem: -201 47<476.181 675.032> -114 51<49.706 212.552> 643 35<321.538 468.961>
VStem: 32 92<180.053 414.376> 592 93<268.466 495.249>
AnchorPoint: "r;bl" 627 10 basechar 0
AnchorPoint: "r;o" 682 200 basechar 0
AnchorPoint: "r;hi" 717 650 basechar 0
AnchorPoint: "r;x" 717 380 basechar 0
AnchorPoint: "l;o" 0 200 basechar 0
AnchorPoint: "l;hi" 40 650 basechar 0
AnchorPoint: "l;x" 0 380 basechar 0
AnchorPoint: "l;bl" 20 10 basechar 0
LayerCount: 3
Back
SplineSet
368 20 m 4
 415.174804688 20 592 167.021484375 592 400 c 4
 592 551.819335938 509.120117188 643 385 643 c 4
 277.346679688 643 124 490.791015625 124 290 c 4
 124 99.654296875 248.438476562 20 368 20 c 4
32 305 m 4
 32 485.522460938 189.108398438 678 398 678 c 4
 573.795898438 678 685 545.361328125 685 375 c 4
 685 185.653320312 569.049804688 60.5537109375 439.044921875 13.1875 c 4
 403.62109375 0.0302734375 396.06640625 2.1796875 358.323242188 -16.6923828125 c 5
 329.313476562 -30.697265625 295.36328125 -47.6728515625 267.421875 -62.6416015625 c 4
 257.743164062 -67.853515625 245.858398438 -73.341796875 242.534179688 -75.4990234375 c 5
 248.278320312 -77.361328125 260.036132812 -79.1669921875 271.756835938 -82.0966796875 c 5
 330.78515625 -98.1044921875 528.8359375 -154 625 -154 c 4
 693.072265625 -154 715.311523438 -143 723 -143 c 4
 728.955078125 -143 731 -149.147460938 731 -157 c 4
 731 -163.0703125 621.84765625 -201 560 -201 c 4
 367.579101562 -201 162.051757812 -114 135 -114 c 4
 131.759765625 -114 113.666015625 -116.96484375 99.083984375 -122.797851562 c 5
 83.001953125 -128.828125 63.9150390625 -136 49 -136 c 4
 29.1904296875 -136 13 -126.223632812 13 -107 c 4
 13 -71.23046875 67.9501953125 -63 117 -63 c 4
 143.357421875 -63 169.473632812 -68 188 -68 c 4
 197.5859375 -68 205.279296875 -66.0576171875 209.866210938 -64.22265625 c 5
 221.450195312 -59.3955078125 279.75 -29.2724609375 317.686523438 -11.302734375 c 5
 323.578125 -8.4287109375 l 5
 275.831054688 -2.5146484375 32 23.1240234375 32 305 c 4
EndSplineSet
Fore
SplineSet
368 20 m 0
 415 20 592 167 592 400 c 0
 592 552 509 643 385 643 c 0
 277 643 124 491 124 290 c 0
 124 100 248 20 368 20 c 0
32 305 m 0
 32 486 189 678 398 678 c 0
 574 678 685 545 685 375 c 0
 685 186 569 60 439 13 c 0
 404 0 396 2 358 -17 c 0
 329 -31 295 -48 267 -63 c 0
 242 -76 245 -75 272 -82 c 0
 331 -98 529 -154 625 -154 c 0
 693 -154 718 -143 725 -143 c 0
 728 -143 731 -149 731 -157 c 0
 731 -163 622 -201 560 -201 c 0
 368 -201 162 -114 135 -114 c 0
 132 -114 114 -117 99 -123 c 0
 83 -129 64 -136 49 -136 c 0
 29 -136 13 -126 13 -107 c 0
 13 -71 68 -63 117 -63 c 0
 143 -63 169 -68 188 -68 c 0
 198 -68 205 -66 210 -64 c 0
 221 -59 275 -33 312 -14 c 0
 320 -10 325 -9 312 -7 c 0
 245 2 32 42 32 305 c 0
EndSplineSet
Position2: "'cpsp' Capital Spacing in Latin lookup 2 subtable" dx=4 dy=0 dh=8 dv=0
EndChar

StartChar: R
Encoding: 82 82 43
Width: 625
VWidth: 0
Flags: HMW
HStem: -3 33<17.003 78.3156 167.001 240.997 533 597.973> 309 30<207.375 349.453> 640 32<224.393 382.679>
VStem: 451 84<31.1895 225.33> 459 91<426.056 581.258>
DStem2: 70.2982 -6 149.435 -6 0.156434 0.987688<58.6062 334.763 373.186 644.639>
AnchorPoint: "l;o" 10 200 basechar 0
AnchorPoint: "l;hi" 59 650 basechar 0
AnchorPoint: "l;x" 30 380 basechar 0
AnchorPoint: "l;bl" 0 10 basechar 0
AnchorPoint: "cedilla" 303 -100 basechar 0
AnchorPoint: "top" 339 780 basechar 0
AnchorPoint: "r;bl" 615 10 basechar 0
AnchorPoint: "r;x" 595 380 basechar 0
AnchorPoint: "r;hi" 595 650 basechar 0
AnchorPoint: "r;o" 625 200 basechar 0
LayerCount: 3
Back
SplineSet
243.856445312 636.594726562 m 5
 238.348632812 589.912109375 212.952148438 402.428710938 207.9765625 362.627929688 c 6
 207.962890625 362.51953125 l 5
 207.94140625 362.412109375 l 6
 207.002929688 357.717773438 207 354.006835938 207 350 c 4
 207 340.370117188 212.213867188 339 222 339 c 6
 229 339 l 6
 263.1328125 339 288.391601562 336 299 336 c 4
 362.395507812 336 459 408.009765625 459 498 c 4
 459 591.2109375 403.942382812 640 291 640 c 4
 281.49609375 640 249.5 638.515625 243.856445312 636.594726562 c 5
167 35.9267578125 m 4
 167 30.833984375 167.731445312 30 172 30 c 6
 225 30 l 6
 236.776367188 30 241 27.0830078125 241 14 c 4
 241 -1.0947265625 238.745117188 -6 227 -6 c 4
 203.782226562 -6 166.829101562 -3 137 -3 c 4
 107.146484375 -3 57.1826171875 -6 34 -6 c 4
 20.189453125 -6 17 -3.6787109375 17 13 c 4
 17 26.3583984375 21.44140625 30 38 30 c 6
 76.48046875 30 l 5
 101.76171875 174.560546875 150.068359375 520.900390625 159.01171875 621.266601562 c 5
 159.612304688 621.212890625 159.34765625 632.96484375 159.34765625 632.96484375 c 5
 159 633 l 5
 98 633 l 6
 86.0986328125 633 76 633.806640625 76 651 c 4
 76 665.456054688 87.7421875 668 96 668 c 4
 103.37109375 668 138.0078125 665 203 665 c 4
 233.713867188 665 309.739257812 672 345 672 c 4
 459.999023438 672 550 605.193359375 550 507 c 4
 550 365.620117188 395.7578125 332.64453125 361.125 323.70703125 c 5
 372.474609375 319.96484375 393.020507812 313.76171875 420.114257812 302.78515625 c 4
 470.559570312 282.348632812 535 239.5703125 535 136 c 4
 535 119.793945312 532 65.8662109375 532 38 c 4
 532 33.8984375 532.5859375 30.828125 532.842773438 30 c 6
 575 30 l 6
 591.368164062 30 598 26.73828125 598 12 c 4
 598 3.2578125 596.015625 -6 587 -6 c 4
 578.830078125 -6 486.939453125 -3 443 -3 c 4
 432.60546875 -3 434.161132812 6.4794921875 435.03125 13.4375 c 4
 443.041015625 60.49609375 451 120.260742188 451 170 c 4
 451 232.133789062 396.404296875 287.951171875 318.381835938 304.064453125 c 4
 299.797851562 307.90234375 272.909179688 309 248 309 c 6
 221 309 l 6
 215.013671875 309 198.685546875 309.293945312 195.973632812 287.60546875 c 4
 187.982421875 230.6640625 168.985351562 76.62109375 167 35.9267578125 c 4
EndSplineSet
Fore
SplineSet
244 637 m 1xe8
 208 362 l 2
 207 356 207 354 207 350 c 0
 207 340 212 339 222 339 c 2
 229 339 l 2
 263 339 288 336 299 336 c 0
 362 336 459 408 459 498 c 0
 459 591 404 640 291 640 c 0
 281 640 250 639 244 637 c 1xe8
167 36 m 0
 167 31 168 30 172 30 c 2
 225 30 l 2
 237 30 241 27 241 14 c 0
 241 -1 239 -6 227 -6 c 0
 204 -6 167 -3 137 -3 c 0
 107 -3 57 -6 34 -6 c 0
 20 -6 17 -4 17 13 c 0
 17 26 21 30 38 30 c 2
 76 30 l 1
 100 170 147 498 158 610 c 0
 159 618 159 625 159 633 c 1
 94 633 l 2
 82 633 76 634 76 651 c 0
 76 665 84 668 92 668 c 0
 99 668 138 665 203 665 c 0
 234 665 310 672 345 672 c 0
 460 672 550 605 550 507 c 0xe8
 550 366 396 333 361 324 c 1
 372 320 393 314 420 303 c 0
 470 283 535 240 535 136 c 0
 535 120 532 66 532 38 c 0
 532 34 533 31 533 30 c 1
 578 30 l 2
 594 30 598 27 598 12 c 0
 598 3 597 -6 590 -6 c 0
 582 -6 485 -3 441 -3 c 0
 431 -3 434 6 435 13 c 0
 443 60 451 120 451 170 c 0xf0
 451 232 396 288 318 304 c 0
 299 308 273 309 248 309 c 2
 219 309 l 2
 212 309 199 308 196 288 c 0
 188 231 169 77 167 36 c 0
EndSplineSet
Position2: "'cpsp' Capital Spacing in Latin lookup 2 subtable" dx=4 dy=0 dh=8 dv=0
EndChar

StartChar: S
Encoding: 83 83 44
Width: 505
VWidth: 0
Flags: HW
HStem: -16 35<180.658 332.305> 635 37<215.917 351.333>
VStem: 37 43<56 191.017> 86 76<444.268 566.99> 392 71<91.9922 196.191> 420 53<530.51 651.729> 437 36<617.466 657.628>
AnchorPoint: "r;hi" 505 650 basechar 0
AnchorPoint: "cedilla" 228 -100 basechar 0
AnchorPoint: "top" 315 780 basechar 0
AnchorPoint: "l;bl" 0 10 basechar 0
AnchorPoint: "l;x" 20 380 basechar 0
AnchorPoint: "l;hi" 60 650 basechar 0
AnchorPoint: "l;o" 0 200 basechar 0
AnchorPoint: "r;bl" 485 10 basechar 0
AnchorPoint: "r;x" 505 380 basechar 0
AnchorPoint: "r;o" 505 200 basechar 0
LayerCount: 3
Back
SplineSet
265 19 m 4xf8
 338.536132812 19 392 69.744140625 392 139 c 4xf8
 392 287.704101562 86 260.741210938 86 473 c 4
 86 589.698242188 172.530273438 672 294 672 c 4
 358.47265625 672 417.538085938 626.987304688 430.848632812 617.341796875 c 5
 432.794921875 624.293945312 434.806640625 636.596679688 437.08984375 645.727539062 c 4xf2
 437.916015625 649.032226562 438.923828125 659.201171875 452.271484375 657.987304688 c 4
 452.348632812 657.98046875 l 5
 452.423828125 657.969726562 l 4
 457.45703125 657.250976562 473 657.955078125 473 648 c 4
 473 638.912109375 451.978515625 533.606445312 441.954101562 480.475585938 c 5
 439.641601562 466.602539062 430.1015625 466 424 466 c 4
 410.786132812 466 405 473.2578125 405 481 c 4
 405 483.571289062 419.6328125 535.756835938 420.002929688 549.815429688 c 5xf4
 417.6015625 558.203125 365.845703125 635 283 635 c 4
 207.745117188 635 162 582.66015625 162 506 c 4
 162 344.268554688 463 395.333007812 463 175 c 4
 463 50.7431640625 344.040039062 -16 250 -16 c 4
 130.1875 -16 37 45.0341796875 37 67 c 4
 37 74.009765625 50.9970703125 152.28125 54.05859375 167.587890625 c 4
 54.072265625 167.658203125 l 5
 54.08984375 167.727539062 l 4
 55.8876953125 174.919921875 57.6953125 199.735351562 63.3359375 203.49609375 c 5
 63.3359375 203.49609375 69.5302734375 205 70 205 c 4
 77.345703125 205 96 202.005859375 96 192 c 4
 96 187.159179688 81 104.217773438 81 100 c 4
 81 83.9130859375 180.086914062 19 265 19 c 4xf8
EndSplineSet
Fore
SplineSet
265 19 m 0xf8
 339 19 392 70 392 139 c 0xf8
 392 288 86 261 86 473 c 0
 86 590 173 672 294 672 c 0
 358 672 418 627 431 617 c 1
 433 624 435 637 437 646 c 0xf2
 438 649 439 659 452 658 c 0
 457 657 473 658 473 648 c 0
 473 639 451 529 441 478 c 0
 439 467 433 466 428 466 c 0
 414 466 405 470 405 480 c 0
 405 483 420 536 420 550 c 1xf4
 418 558 366 635 283 635 c 0
 208 635 162 583 162 506 c 0
 162 344 463 395 463 175 c 0
 463 51 344 -16 250 -16 c 0
 130 -16 37 45 37 67 c 0
 37 74 59 198 61 203 c 0
 62 205 66 205 70 205 c 0
 75 205 97 202 97 195 c 0
 97 191 80 105 80 101 c 0
 80 85 180 19 265 19 c 0xf8
EndSplineSet
Position2: "'cpsp' Capital Spacing in Latin lookup 2 subtable" dx=4 dy=0 dh=8 dv=0
EndChar

StartChar: T
Encoding: 84 84 45
Width: 681
VWidth: 0
Flags: W
HStem: -3 33<145.009 223.637 324.001 406.999> 630 59<82.1186 98> 630 34<98.4496 314 405.001 624.552>
VStem: 619 36<532.059 627.521> 628 36<667.116 688.994>
AnchorPoint: "r;k;hi2" 681 710 basechar 0
AnchorPoint: "cedilla" 259 -100 basechar 0
AnchorPoint: "l;bl" 40 10 basechar 0
AnchorPoint: "l;x" 40 380 basechar 0
AnchorPoint: "l;hi" 0 650 basechar 0
AnchorPoint: "l;o" 40 200 basechar 0
AnchorPoint: "r;bl" 521 10 basechar 0
AnchorPoint: "r;x" 581 380 basechar 0
AnchorPoint: "r;hi" 681 650 basechar 0
AnchorPoint: "r;o" 561 200 basechar 0
LayerCount: 3
Back
SplineSet
655 544.923828125 m 4xd0
 655 534.438476562 646.78125 532 633 532 c 4
 618.985351562 532 619 539.291992188 619 549 c 4
 619 554.268554688 624.491210938 616.22265625 624.97265625 626.0546875 c 5
 616.111328125 629.69921875 571.193359375 630 521 630 c 4
 415 630 l 4
 408.907226562 630 407.072265625 624.125 404.959960938 612.510742188 c 5
 390.091796875 512.3984375 324.931640625 49.9140625 323.991210938 40.794921875 c 5
 324.215820312 30.8701171875 325.865234375 30 329 30 c 4
 393 30 l 4
 405.189453125 30 407 26.33203125 407 14 c 4
 407 -1.0947265625 404.745117188 -6 393 -6 c 4
 369.841796875 -6 302.884765625 -3 273 -3 c 4
 243.120117188 -3 178.174804688 -6 162 -6 c 4
 147.794921875 -6 145 -2.42578125 145 15 c 4
 145 28.7109375 150.078125 30 166 30 c 4
 218.8671875 30 l 5
 233.940429688 58.2919921875 295.625976562 492.44921875 311.02734375 596.40625 c 5
 312.03125 604.435546875 314 615.509765625 314 622 c 4
 314 629.345703125 313.1328125 630 311 630 c 4
 174 630 l 4xb0
 120.489257812 630 83.7431640625 627.37109375 81.8564453125 621.08203125 c 5
 57.8203125 550.974609375 l 5
 52.947265625 538.3046875 50.8037109375 532 39 532 c 4
 29.3193359375 532 17 533.956054688 17 546 c 4
 17 550.212890625 38.0322265625 600.5546875 60.1416015625 672.913085938 c 5
 64.458984375 685.865234375 69.4638671875 689 85 689 c 4xd0
 95.3408203125 689 98 680.477539062 98 674 c 4
 98 669.9375 l 5
 106.7109375 665.915039062 153.963867188 664 201 664 c 4
 527 664 l 4xb0
 587.186523438 664 627.475585938 666.903320312 628.014648438 672.298828125 c 4
 629.134765625 683.500976562 635.584960938 689 645 689 c 4
 659.188476562 689 664 686.663085938 664 675 c 4xc8
 664 655.534179688 658.998046875 623.883789062 655 544.923828125 c 4xd0
EndSplineSet
Fore
SplineSet
655 543 m 0xd0
 655 533 647 532 633 532 c 0
 619 532 619 537 619 547 c 0
 619 552 625 616 625 626 c 1
 616 630 571 630 521 630 c 2
 415 630 l 2
 409 630 407 625 405 613 c 0
 390 513 324 45 324 41 c 0
 324 31 326 30 329 30 c 2
 393 30 l 2
 405 30 407 26 407 14 c 0
 407 -1 405 -6 393 -6 c 0
 370 -6 303 -3 273 -3 c 0
 243 -3 176 -6 160 -6 c 0
 146 -6 145 -2 145 15 c 0
 145 29 148 30 164 30 c 2
 219 30 l 1
 234 58 314 612 314 622 c 0
 314 627 314 630 311 630 c 2
 174 630 l 2xb0
 120 630 84 627 82 621 c 2
 58 551 l 2
 53 538 51 532 39 532 c 0
 35 532 17 534 17 546 c 0
 17 550 37 601 60 673 c 0
 65 689 70 689 84 689 c 0xd0
 97 689 98 681 98 674 c 2
 98 670 l 1
 107 666 154 664 201 664 c 2
 527 664 l 2xb0
 587 664 627 667 628 672 c 0
 629 683 631 689 645 689 c 0
 659 689 664 687 664 675 c 0xc8
 664 656 659 622 655 543 c 0xd0
EndSplineSet
Position2: "'cpsp' Capital Spacing in Latin lookup 2 subtable" dx=4 dy=0 dh=8 dv=0
EndChar

StartChar: U
Encoding: 85 85 46
Width: 759
VWidth: 0
Flags: W
HStem: -10 53<227.471 387.96> 631 36<57.0051 139 230.193 286.979 516.007 603 687.385 741.94>
VStem: 73 89<101.548 325.144> 534 41<-1.93848 71.8125>
AnchorPoint: "top" 427 780 basechar 0
AnchorPoint: "l;bl" 0 10 basechar 0
AnchorPoint: "l;x" 0 380 basechar 0
AnchorPoint: "l;hi" 40 650 basechar 0
AnchorPoint: "l;o" 0 200 basechar 0
AnchorPoint: "r;bl" 649 10 basechar 0
AnchorPoint: "r;x" 729 380 basechar 0
AnchorPoint: "r;hi" 759 650 basechar 0
AnchorPoint: "r;o" 699 200 basechar 0
LayerCount: 3
Back
SplineSet
524 76 m 4x78
 521.186523438 76 503.588867188 65.4521484375 480.458984375 52.3779296875 c 5
 438.248046875 29.2626953125 355.87890625 -10 268 -10 c 4
 162.053710938 -10 73 48.80859375 73 151 c 4
 73 237.649414062 139 569.795898438 139 629 c 4
 139 630.619140625 138.986328125 631 138.986328125 631 c 5
 78 631 l 4
 65.9677734375 631 57 632.004882812 57 649 c 4
 57 665.841796875 64.91015625 667 78 667 c 4
 94.2314453125 667 140.138671875 664 170 664 c 4
 199.84765625 664 246.811523438 667 270 667 c 4
 284.205078125 667 287 663.42578125 287 646 c 4
 287 632.2890625 281.921875 631 266 631 c 4
 235.294921875 631 l 5
 222.459960938 604.881835938 162 246.233398438 162 176 c 4
 162 47.0751953125 296.682617188 43 322 43 c 4xb8
 382.107421875 43 451.849609375 71.8291015625 485.352539062 93.5078125 c 5
 499.623046875 103.021484375 515.27734375 122.43359375 523.095703125 151.75 c 5
 533.037109375 191.518554688 544.0546875 251.57421875 555.041992188 314.500976562 c 4
 575.771484375 436.904296875 594.71484375 545.448242188 602.7109375 631 c 5
 539 631 l 4
 527.220703125 631 516 631.625976562 516 649 c 4
 516 666.2421875 526.166992188 667 539 667 c 4
 555.197265625 667 613.123046875 664 643 664 c 4
 672.877929688 664 714.703125 667 725 667 c 4
 739.205078125 667 742 663.42578125 742 646 c 4
 742 632.2890625 736.921875 631 721 631 c 4
 691.435546875 631 l 5
 683.465820312 592.807617188 676.83984375 554.822265625 669.958007812 515.499023438 c 5
 640.96484375 338.538085938 608.966796875 140.453125 574.885742188 25.1796875 c 5
 568.833984375 2.9892578125 561.797851562 -2 553 -2 c 4
 548 -2 l 4
 538.24609375 -2 535.104492188 4.0546875 534.024414062 11.6142578125 c 5
 528.728515625 57.16015625 528.69921875 76 524 76 c 4x78
EndSplineSet
Fore
SplineSet
524 76 m 0
 521 76 503 65 480 52 c 0
 438 29 356 -10 268 -10 c 0
 162 -10 73 49 73 151 c 0
 73 238 139 570 139 629 c 2
 139 631 l 1
 76 631 l 2
 64 631 57 632 57 649 c 0
 57 666 63 667 76 667 c 0
 92 667 140 664 170 664 c 0
 200 664 249 667 272 667 c 0
 286 667 287 663 287 646 c 0
 287 632 284 631 268 631 c 2
 235 631 l 1
 222 605 162 246 162 176 c 0
 162 47 297 43 322 43 c 0
 382 43 451 72 485 94 c 0
 499 104 515 123 523 152 c 0
 533 192 544 252 555 315 c 0
 576 437 595 545 603 631 c 1
 537 631 l 2
 525 631 516 632 516 649 c 0
 516 666 524 667 537 667 c 0
 553 667 613 664 643 664 c 0
 673 664 715 667 725 667 c 0
 739 667 742 663 742 646 c 0
 742 632 737 631 721 631 c 2
 691 631 l 1
 683 593 677 554 670 515 c 0
 641 338 609 140 575 25 c 0
 569 3 562 -2 553 -2 c 0
 540 -2 535 1 534 12 c 0
 529 58 529 76 524 76 c 0
EndSplineSet
Position2: "'cpsp' Capital Spacing in Latin lookup 2 subtable" dx=4 dy=0 dh=8 dv=0
EndChar

StartChar: V
Encoding: 86 86 47
Width: 666
VWidth: 0
Flags: HW
HStem: -20 21G<190.799 205.806> 631 36<17.0065 81.4749 175 251.965 454.007 548.775 600.641 648.926>
DStem2: 253.075 86.6543 291.582 86.4727 0.503373 0.864069<0.97842 564.777> 545.33 619.367 605.547 625.411 0.503373 0.864069<-463.51 9.98366>
AnchorPoint: "l;bl" 0 10 basechar 0
AnchorPoint: "l;x" 0 380 basechar 0
AnchorPoint: "l;hi" 0 650 basechar 0
AnchorPoint: "l;o" 0 200 basechar 0
AnchorPoint: "r;bl" 486 10 basechar 0
AnchorPoint: "r;x" 586 380 basechar 0
AnchorPoint: "r;hi" 666 650 basechar 0
AnchorPoint: "r;o" 546 200 basechar 0
LayerCount: 3
Back
SplineSet
605.546875 625.411132812 m 6
 291.58203125 86.47265625 l 5
 282.134765625 70.7265625 263.409179688 54.201171875 237.505859375 14.3505859375 c 5
 231.638671875 5.5498046875 213.611328125 -20 198 -20 c 4
 183.598632812 -20 181.815429688 -6.8330078125 175.02734375 43.595703125 c 4
 153.86328125 197.515625 89.2802734375 602.69140625 76.625 631 c 5
 38 631 l 4
 25.9677734375 631 17 632.004882812 17 649 c 4
 17 665.841796875 24.91015625 667 38 667 c 4
 54.2314453125 667 100.138671875 664 130 664 c 4
 159.856445312 664 211.822265625 667 235 667 c 4
 249.205078125 667 252 663.42578125 252 646 c 4
 252 632.2890625 246.921875 631 231 631 c 4
 176.376953125 631 l 5
 175.606445312 630.528320312 175 629.658203125 175 629 c 4
 175 599.78125 240.39453125 137.045898438 253.075195312 86.654296875 c 5
 271.690429688 112.331054688 356.552734375 259.165039062 427.342773438 394.393554688 c 4
 545.330078125 619.3671875 l 5
 547.739257812 624.186523438 548.689453125 627.413085938 548.770507812 628.995117188 c 4
 548.864257812 630.81640625 548.470703125 631 542 631 c 4
 475 631 l 4
 462.967773438 631 454 632.004882812 454 649 c 4
 454 665.612304688 460.768554688 667 474 667 c 4
 486.329101562 667 519.05859375 664 573 664 c 4
 587.75390625 664 620.6796875 667 631 667 c 4
 645.04296875 667 649 663.71484375 649 646 c 4
 649 632.030273438 642.779296875 631 627 631 c 4
 605.805664062 631 609.212890625 630.91015625 605.546875 625.411132812 c 6
EndSplineSet
Fore
SplineSet
606 625 m 2
 292 87 l 2
 283 71 264 55 238 15 c 0
 232 6 214 -20 198 -20 c 0
 184 -20 182 -6 175 44 c 0
 154 198 90 603 77 631 c 1
 38 631 l 2
 26 631 17 632 17 649 c 0
 17 666 25 667 38 667 c 0
 54 667 100 664 130 664 c 0
 160 664 212 667 235 667 c 0
 249 667 252 663 252 646 c 0
 252 632 247 631 231 631 c 2
 176 631 l 2
 175 631 175 630 175 629 c 0
 175 602 232 197 250 102 c 0
 251 95 252 90 254 90 c 0
 256 90 259 95 263 102 c 0
 293 149 365 276 427 394 c 2
 545 619 l 2
 547 624 549 627 549 629 c 0
 549 631 548 631 542 631 c 2
 475 631 l 2
 463 631 454 632 454 649 c 0
 454 666 461 667 474 667 c 0
 486 667 519 664 573 664 c 0
 588 664 621 667 631 667 c 0
 645 667 649 664 649 646 c 0
 649 632 643 631 627 631 c 0
 606 631 609 631 606 625 c 2
EndSplineSet
Position2: "'cpsp' Capital Spacing in Latin lookup 2 subtable" dx=4 dy=0 dh=8 dv=0
EndChar

StartChar: W
Encoding: 87 87 48
Width: 1010
VWidth: 0
Flags: HW
HStem: -20 21G<187 202 553 568> 631 36<17.0066 80.3874 171 245.94 386.007 451.938 542 636.929 799.007 890.999 936.977 992.929>
VStem: 76 95<523.222 631> 466 76<447.275 630.658>
DStem2: 264 121 286 87 0.487225 0.873277<-32.0301 368.741> 621 100 654 87 0.473199 0.880956<-19.5924 593.705>
AnchorPoint: "r;o" 890 200 basechar 0
AnchorPoint: "r;hi" 1010 650 basechar 0
AnchorPoint: "r;x" 930 380 basechar 0
AnchorPoint: "r;bl" 830 10 basechar 0
AnchorPoint: "l;o" 0 200 basechar 0
AnchorPoint: "l;hi" 0 650 basechar 0
AnchorPoint: "l;x" 0 380 basechar 0
AnchorPoint: "l;bl" 0 10 basechar 0
AnchorPoint: "top" 532 780 basechar 0
LayerCount: 3
Back
SplineSet
171.02734375 43.595703125 m 4
 149.904296875 197.21484375 87.5185546875 601.270507812 76.3955078125 631 c 5
 38 631 l 4
 25.9677734375 631 17 632.004882812 17 649 c 4
 17 665.841796875 24.91015625 667 38 667 c 4
 54.2314453125 667 100.138671875 664 130 664 c 4
 159.846679688 664 205.80859375 667 229 667 c 4
 243.205078125 667 246 663.42578125 246 646 c 4
 246 632.2890625 240.921875 631 225 631 c 4
 172.376953125 631 l 5
 171.606445312 630.528320312 171 629.658203125 171 629 c 4
 171 599.764648438 232.795898438 139.965820312 245.094726562 89.7001953125 c 5
 270.256835938 125.219726562 409.833007812 378.874023438 468.348632812 489.403320312 c 5
 468.525390625 489.310546875 451.680664062 622.676757812 448.595703125 631 c 5
 407 631 l 4
 394.967773438 631 386 632.004882812 386 649 c 4
 386 665.841796875 393.91015625 667 407 667 c 4
 423.171875 667 462.099609375 665 492 665 c 4
 520.895507812 665 577.922851562 667 619 667 c 4
 633.04296875 667 637 663.71484375 637 646 c 4
 637 632.030273438 630.779296875 631 615 631 c 4
 543.239257812 631 l 5
 542.379882812 627.924804688 542 622.845703125 542 615 c 4
 542 604.51171875 597.18359375 132.341796875 608.322265625 77.900390625 c 5
 641.197265625 125.541992188 858.06640625 561.784179688 887.31640625 619.341796875 c 4
 889.75390625 624.215820312 890.689453125 627.399414062 890.770507812 628.995117188 c 4
 890.864257812 630.81640625 890.470703125 631 884 631 c 4
 820 631 l 4
 807.967773438 631 799 632.004882812 799 649 c 4
 799 665.612304688 805.768554688 667 819 667 c 4
 831.346679688 667 861.057617188 664 915 664 c 4
 929.7578125 664 964.698242188 667 975 667 c 4
 989.04296875 667 993 663.71484375 993 646 c 4
 993 632.030273438 986.779296875 631 971 631 c 4
 939.205078125 631 946.706054688 632.700195312 935.666015625 611.624023438 c 4
 871.670898438 487.633789062 808.669921875 362.627929688 741.61328125 242.526367188 c 4
 653.629882812 86.556640625 l 5
 645.171875 70.6962890625 625.373046875 54.1455078125 599.505859375 14.3505859375 c 5
 593.638671875 5.5498046875 575.611328125 -20 560 -20 c 4
 545.598632812 -20 543.813476562 -6.8154296875 537.030273438 43.576171875 c 4
 525.318359375 125.556640625 498.052734375 298.987304688 476.448242188 429.05078125 c 5
 285.633789062 86.5634765625 l 5
 277.166992188 70.6875 257.375976562 54.150390625 231.505859375 14.3505859375 c 5
 225.775390625 5.7548828125 209.693359375 -20 194 -20 c 4
 179.598632812 -20 177.815429688 -6.8330078125 171.02734375 43.595703125 c 4
EndSplineSet
Fore
SplineSet
171 44 m 0
 150 198 87 601 76 631 c 1
 38 631 l 2
 26 631 17 632 17 649 c 0
 17 666 25 667 38 667 c 0
 54 667 100 664 130 664 c 0
 160 664 206 667 229 667 c 0
 243 667 246 663 246 646 c 0
 246 632 241 631 225 631 c 2
 172 631 l 2
 171 631 171 630 171 629 c 0
 171 603 220 238 239 121 c 0
 242 103 244 94 246 94 c 0
 248 94 255 106 264 121 c 0
 312 200 411 383 463 480 c 0
 467 487 467 491 466 502 c 0
 462 536 451 625 449 631 c 1
 407 631 l 2
 395 631 386 632 386 649 c 0
 386 666 394 667 407 667 c 0
 423 667 462 665 492 665 c 0
 521 665 578 667 619 667 c 0
 633 667 637 664 637 646 c 0
 637 632 631 631 615 631 c 2
 543 631 l 1
 542 628 542 623 542 615 c 0
 542 606 588 209 604 101 c 0
 606 90 608 83 610 83 c 0
 612 83 616 91 621 100 c 0
 679 202 861 566 887 619 c 0
 889 624 891 627 891 629 c 0
 891 631 890 631 884 631 c 2
 820 631 l 2
 808 631 799 632 799 649 c 0
 799 666 806 667 819 667 c 0
 831 667 861 664 915 664 c 0
 930 664 965 667 975 667 c 0
 989 667 993 664 993 646 c 0
 993 632 987 631 971 631 c 2
 960 631 l 2
 944 631 945 630 936 612 c 0
 872 488 810 363 742 243 c 2
 654 87 l 2
 646 71 626 54 600 14 c 0
 594 5 576 -20 560 -20 c 0
 546 -20 544 -6 537 44 c 0
 525 123 500 290 478 418 c 0
 477 423 477 425 476 425 c 0
 475 425 472 420 469 415 c 2
 286 87 l 2
 277 71 258 54 232 14 c 0
 226 5 210 -20 194 -20 c 0
 180 -20 178 -6 171 44 c 0
EndSplineSet
Position2: "'cpsp' Capital Spacing in Latin lookup 2 subtable" dx=4 dy=0 dh=8 dv=0
EndChar

StartChar: X
Encoding: 88 88 49
Width: 661
VWidth: 0
Flags: W
HStem: -6 36<17.0051 77.7681 129.094 200.94 375.06 453 548.85 628.993> 631 36<94.0066 169.704 258 328.94 464.06 531 582.68 643.995>
DStem2: 299 327 314 297 0.646454 0.762953<-197.432 -1.94944 93.0554 308.903> 357 406 302 345 0.43817 -0.898892<-245.544 15.1466 41.0871 48.8747 75.474 297.454>
AnchorPoint: "l;bl" 0 10 basechar 0
AnchorPoint: "l;x" 40 380 basechar 0
AnchorPoint: "l;hi" 75 650 basechar 0
AnchorPoint: "l;o" 20 200 basechar 0
AnchorPoint: "r;bl" 646 10 basechar 0
AnchorPoint: "r;x" 646 380 basechar 0
AnchorPoint: "r;hi" 661 650 basechar 0
AnchorPoint: "r;o" 646 200 basechar 0
LayerCount: 3
Back
SplineSet
302.291992188 344.708984375 m 6
 177.31640625 598.658203125 l 6
 166.970703125 619.350585938 159.627929688 630.127929688 157.8671875 631 c 6
 115 631 l 6
 102.967773438 631 94 632.004882812 94 649 c 4
 94 665.841796875 101.91015625 667 115 667 c 4
 131.221679688 667 180.133789062 664 210 664 c 4
 239.8515625 664 288.814453125 667 312 667 c 4
 326.205078125 667 329 663.42578125 329 646 c 4
 329 632.2890625 323.921875 631 308 631 c 6
 267 631 l 6
 262.43359375 631 259.322265625 630.845703125 258.360351562 630.669921875 c 4
 258.67578125 628.8046875 259.997070312 625.49609375 261.85546875 619.921875 c 4
 266.720703125 604.353515625 305.791015625 513.166992188 346.708984375 427.290039062 c 4
 354.543945312 410.844726562 361.8359375 395.236328125 364.354492188 391.109375 c 5
 368.891601562 396.064453125 378.280273438 409.1015625 391.560546875 427.747070312 c 4
 444.415039062 501.952148438 531 619.852539062 531 630 c 6
 530.934570312 631 l 5
 485 631 l 6
 469.078125 631 464 632.2890625 464 646 c 4
 464 663.42578125 466.794921875 667 481 667 c 4
 504.318359375 667 519.240234375 664 549 664 c 4
 578.826171875 664 608.711914062 667 625 667 c 4
 638.381835938 667 644 665.361328125 644 649 c 4
 644 632.458007812 637.319335938 631 625 631 c 6
 596.692382812 631 l 5
 578.825195312 616.918945312 384.409179688 365.2109375 384.409179688 365.2109375 c 6
 379.557617188 358.419921875 378.9921875 359.874023438 383.543945312 352.58984375 c 6
 383.5859375 352.5234375 l 5
 383.624023438 352.454101562 l 6
 423.600585938 280.30078125 546.138671875 41.884765625 561.497070312 30 c 5
 608 30 l 6
 620.032226562 30 629 28.9951171875 629 12 c 4
 629 -4.841796875 621.08984375 -6 608 -6 c 4
 591.791992188 -6 537.874023438 -3 508 -3 c 4
 478.133789062 -3 415.150390625 -6 392 -6 c 4
 377.794921875 -6 375 -2.42578125 375 15 c 4
 375 28.7109375 380.078125 30 396 30 c 6
 443 30 l 6
 448.798828125 30 452.045898438 30.470703125 452.75 30.7666015625 c 4
 452.736328125 32.1875 451.571289062 35.3359375 449.235351562 40.8359375 c 4
 425.15234375 97.5263671875 357.288085938 232.716796875 324.30078125 302.689453125 c 4
 323.345703125 304.599609375 322.344726562 306.115234375 322.07421875 306.46875 c 5
 320.658203125 305.23828125 318.192382812 301.831054688 314.340820312 297.123046875 c 4
 281.092773438 254.80859375 129.7734375 49.3720703125 128.998046875 30.9873046875 c 5
 130.548828125 30.328125 133.349609375 30 139 30 c 6
 180 30 l 6
 195.921875 30 201 28.7109375 201 15 c 4
 201 -2.42578125 198.205078125 -6 184 -6 c 4
 171.7265625 -6 128.87109375 -3 99 -3 c 4
 69.154296875 -3 47.4306640625 -6 36 -6 c 4
 22.6181640625 -6 17 -4.361328125 17 12 c 4
 17 28.5419921875 23.6806640625 30 36 30 c 6
 61.7705078125 30 l 5
 76.03125 36.482421875 192.26171875 198.029296875 298.6953125 326.920898438 c 4
 308.90234375 339.28125 308.225585938 331.852539062 302.291992188 344.708984375 c 6
EndSplineSet
Fore
SplineSet
302 345 m 2
 177 599 l 2
 167 620 160 630 158 631 c 1
 115 631 l 2
 103 631 94 632 94 649 c 0
 94 666 102 667 115 667 c 0
 131 667 180 664 210 664 c 0
 240 664 289 667 312 667 c 0
 326 667 329 663 329 646 c 0
 329 632 324 631 308 631 c 2
 258 631 l 1
 258 629 260 626 262 620 c 0
 266 606 318 485 357 406 c 0
 361 398 363 393 365 393 c 0
 366 393 370 398 376 406 c 0
 423 472 531 621 531 630 c 2
 531 631 l 1
 485 631 l 2
 469 631 464 632 464 646 c 0
 464 663 467 667 481 667 c 0
 504 667 519 664 549 664 c 0
 579 664 609 667 625 667 c 0
 638 667 644 665 644 649 c 0
 644 632 637 631 625 631 c 2
 597 631 l 1
 579 617 384 365 384 365 c 2
 380 360 380 359 384 352 c 0
 424 280 546 42 561 30 c 1
 608 30 l 2
 620 30 629 29 629 12 c 0
 629 -5 621 -6 608 -6 c 0
 592 -6 538 -3 508 -3 c 0
 478 -3 415 -6 392 -6 c 0
 378 -6 375 -2 375 15 c 0
 375 29 380 30 396 30 c 2
 443 30 l 2
 449 30 452 31 453 31 c 1
 453 32 451 35 449 41 c 0
 426 97 360 228 326 299 c 0
 324 303 323 305 322 305 c 0
 321 305 318 302 314 297 c 0
 281 255 130 49 129 31 c 1
 131 30 133 30 139 30 c 2
 180 30 l 2
 196 30 201 29 201 15 c 0
 201 -2 198 -6 184 -6 c 0
 172 -6 129 -3 99 -3 c 0
 69 -3 47 -6 36 -6 c 0
 23 -6 17 -4 17 12 c 0
 17 29 24 30 36 30 c 2
 62 30 l 1
 76 36 193 198 299 327 c 0
 306 335 306 336 302 345 c 2
EndSplineSet
Position2: "'cpsp' Capital Spacing in Latin lookup 2 subtable" dx=4 dy=0 dh=8 dv=0
EndChar

StartChar: Y
Encoding: 89 89 50
Width: 613
VWidth: 0
Flags: W
HStem: -3 33<118.003 185.957 269 347.999> 636 36<17.0066 90.6874 184 243.973 408.06 479 528.249 595.997>
AnchorPoint: "top" 341 780 basechar 0
AnchorPoint: "l;bl" 40 10 basechar 0
AnchorPoint: "l;x" 20 380 basechar 0
AnchorPoint: "l;hi" 0 650 basechar 0
AnchorPoint: "l;o" 30 200 basechar 0
AnchorPoint: "r;bl" 433 10 basechar 0
AnchorPoint: "r;x" 513 380 basechar 0
AnchorPoint: "r;hi" 613 650 basechar 0
AnchorPoint: "r;o" 473 200 basechar 0
LayerCount: 3
Back
SplineSet
320.559570312 330.432617188 m 4
 316.721679688 323.715820312 314.91796875 318.301757812 312.9453125 309.423828125 c 4
 292.099609375 186.333984375 269.235351562 44.8759765625 269.0078125 40.150390625 c 5
 268.887695312 28.998046875 268.637695312 30 271 30 c 4
 334 30 l 4
 346.189453125 30 348 26.33203125 348 14 c 4
 348 -1.0947265625 345.745117188 -6 334 -6 c 4
 310.821289062 -6 258.856445312 -3 229 -3 c 4
 199.162109375 -3 158.205078125 -6 135 -6 c 4
 120.560546875 -6 118 -0.4873046875 118 13 c 4
 118 26.3583984375 122.44140625 30 139 30 c 4
 180.51171875 30 l 5
 185.4609375 36.0712890625 193.841796875 88.9501953125 223.045898438 260.524414062 c 5
 228.010742188 287.334960938 227.997070312 296.453125 228 300.727539062 c 5
 223.842773438 315.333984375 93.544921875 612.107421875 83.0419921875 636 c 5
 38 636 l 4
 25.9677734375 636 17 637.004882812 17 654 c 4
 17 670.841796875 24.91015625 672 38 672 c 4
 54.2041015625 672 109.126953125 669 139 669 c 4
 168.825195312 669 203.776367188 672 227 672 c 4
 241.205078125 672 244 668.42578125 244 651 c 4
 244 637.2890625 238.921875 636 223 636 c 4
 192 636 l 4
 187.649414062 636 184.489257812 635.836914062 183.791015625 635.719726562 c 5
 184.223632812 633.438476562 185.440429688 630.240234375 186.885742188 624.8203125 c 5
 202.748046875 572.278320312 261.759765625 429.178710938 289.735351562 360.236328125 c 4
 293.060546875 353.587890625 294.809570312 350.204101562 295.026367188 350.001953125 c 5
 296.69921875 350.255859375 302.51171875 356.684570312 308.461914062 366.600585938 c 5
 355.5859375 437.788085938 479 614.654296875 479 636 c 4
 429 636 l 4
 413.078125 636 408 637.2890625 408 651 c 4
 408 668.42578125 410.794921875 672 425 672 c 4
 448.263671875 672 473.201171875 669 503 669 c 4
 532.823242188 669 560.696289062 672 577 672 c 4
 590.381835938 672 596 670.361328125 596 654 c 4
 596 637.458007812 589.319335938 636 577 636 c 4
 541.946289062 636 l 5
 526.983398438 621.40625 375.267578125 413.934570312 320.559570312 330.432617188 c 4
EndSplineSet
Fore
SplineSet
321 331 m 0
 317 324 315 318 313 309 c 2
 279 104 l 2
 273 67 269 42 269 33 c 0
 269 31 269 30 270 30 c 2
 334 30 l 2
 346 30 348 26 348 14 c 0
 348 -1 346 -6 334 -6 c 0
 311 -6 259 -3 229 -3 c 0
 199 -3 156 -6 133 -6 c 0
 119 -6 118 0 118 13 c 0
 118 26 120 30 137 30 c 2
 181 30 l 1
 186 36 194 89 223 261 c 0
 228 288 228 297 228 301 c 0
 228 305 94 612 83 636 c 1
 38 636 l 2
 26 636 17 637 17 654 c 0
 17 671 25 672 38 672 c 0
 54 672 109 669 139 669 c 0
 169 669 205 672 228 672 c 0
 242 672 244 668 244 651 c 0
 244 637 240 636 224 636 c 2
 184 636 l 1
 184 634 186 630 187 625 c 0
 203 572 262 429 290 360 c 0
 296 346 299 352 308 366 c 0
 355 437 479 615 479 636 c 1
 429 636 l 2
 413 636 408 637 408 651 c 0
 408 668 411 672 425 672 c 0
 448 672 473 669 503 669 c 0
 533 669 564 672 580 672 c 0
 593 672 596 670 596 654 c 0
 596 637 592 636 580 636 c 2
 542 636 l 1
 527 621 376 415 321 331 c 0
EndSplineSet
Position2: "'cpsp' Capital Spacing in Latin lookup 2 subtable" dx=4 dy=0 dh=8 dv=0
EndChar

StartChar: Z
Encoding: 90 90 51
Width: 599
VWidth: 0
Flags: MW
HStem: -3 38<161.001 492.95> 626 38<149.799 450>
VStem: 90 40<530.103 616.904>
AnchorPoint: "top" 354 780 basechar 0
AnchorPoint: "l;bl" 0 10 basechar 0
AnchorPoint: "l;x" 35 380 basechar 0
AnchorPoint: "l;hi" 50 650 basechar 0
AnchorPoint: "l;o" 20 200 basechar 0
AnchorPoint: "r;bl" 569 10 basechar 0
AnchorPoint: "r;x" 584 380 basechar 0
AnchorPoint: "r;hi" 599 650 basechar 0
AnchorPoint: "r;o" 569 200 basechar 0
LayerCount: 3
Back
SplineSet
114 680.15234375 m 4xd0
 114 686.432617188 121.357421875 689 133 689 c 4
 138.80859375 689 150 688.956054688 150 681 c 4
 150 672 l 4xd0
 150 667.990234375 155.380859375 664 204 664 c 4
 552 664 l 4
 564.5859375 664 572 660.702148438 572 646 c 4
 572 638.962890625 482.515625 510.36328125 384.463867188 369.288085938 c 4
 279.141601562 217.702148438 164.294921875 54.322265625 161.001953125 41.87890625 c 5
 161.23828125 39.501953125 163.4609375 35 168.970703125 35 c 4
 472.985351562 38 l 6
 480.305664062 38 486.686523438 39.3408203125 491.186523438 51.04296875 c 5
 496.059570312 64.6865234375 503.099609375 90.77734375 514.065429688 139.623046875 c 5
 515.500976562 146.799804688 523.484375 150 531 150 c 4
 546.515625 150 554 144.280273438 554 135 c 4
 554 128.439453125 527.952148438 37.44921875 520.924804688 7.333984375 c 5
 518.374023438 -4.146484375 505.883789062 -6 496 -6 c 4
 383.963867188 -6 146.961914062 -3 43 -3 c 4
 34.1318359375 -3 32 1.08203125 32 15 c 4
 32 29.6826171875 436.479492188 586.90625 461.233398438 625.44921875 c 5
 458.1640625 625.973632812 452.001953125 626 441 626 c 4
 185 626 l 4
 161.594726562 626 145.215820312 624.782226562 143.936523438 618.38671875 c 5
 138.944335938 595.423828125 131.002929688 547.640625 129.91015625 543.272460938 c 4xe0
 128.025390625 535.73046875 127.076171875 531.3046875 119.493164062 530.041015625 c 4
 119.248046875 530 l 5
 114 530 l 4xd0
 106.255859375 530 90 530.7734375 90 540 c 4xe0
 90 548.275390625 108.002929688 621.182617188 114 680.15234375 c 4xd0
EndSplineSet
Fore
SplineSet
114 680 m 0
 114 689 121 689 131 689 c 0
 138 689 150 688 150 681 c 2
 150 672 l 2
 150 668 155 664 204 664 c 2
 552 664 l 2
 565 664 572 661 572 646 c 0
 572 639 482 510 384 369 c 0
 279 217 164 54 161 42 c 0
 161 40 163 35 169 35 c 2
 476 38 l 2
 483 38 488 39 492 51 c 0
 497 65 503 91 515 142 c 0
 517 149 523 150 531 150 c 0
 547 150 554 146 554 137 c 0
 554 130 528 37 521 7 c 0
 518 -4 506 -6 496 -6 c 0
 384 -6 147 -3 43 -3 c 0
 34 -3 32 1 32 15 c 0
 32 29 399 533 455 616 c 0
 459 622 463 626 450 626 c 2
 185 626 l 2
 162 626 145 624 144 618 c 0
 139 595 131 547 130 543 c 0
 128 535 127 531 119 530 c 1
 114 530 l 2
 106 530 90 531 90 540 c 0
 90 548 108 621 114 680 c 0
EndSplineSet
Position2: "'cpsp' Capital Spacing in Latin lookup 2 subtable" dx=4 dy=0 dh=8 dv=0
EndChar

StartChar: zero
Encoding: 48 48 52
Width: 500
VWidth: 0
Flags: W
HStem: -8 38<161.733 296.827> 333 36<202.671 330.696>
VStem: 59 51<77.1805 236.551> 388 54<120.689 282.252>
AnchorPoint: "l;bl" 0 10 basechar 0
AnchorPoint: "l;x" 0 380 basechar 0
AnchorPoint: "l;hi" 0 650 basechar 0
AnchorPoint: "l;o" 0 200 basechar 0
AnchorPoint: "l;lo" 0 -260 basechar 0
AnchorPoint: "r;bl" 500 10 basechar 0
AnchorPoint: "r;x" 500 380 basechar 0
AnchorPoint: "r;hi" 500 650 basechar 0
AnchorPoint: "r;o" 500 200 basechar 0
AnchorPoint: "r;lo" 500 -260 basechar 0
LayerCount: 3
Fore
SplineSet
59 164 m 0
 59 281 146 369 264 369 c 0
 374 369 442 292 442 198 c 0
 442 83 352 -8 240 -8 c 0
 140 -8 59 58 59 164 c 0
388 207 m 0
 388 286 334 333 264 333 c 0
 179 333 110 238 110 156 c 0
 110 73 161 30 231 30 c 0
 308 30 388 102 388 207 c 0
EndSplineSet
AlternateSubs2: "'aalt' Access All Alternates lookup 0 subtable" zero.p zero.u zero.sub zero.sup zero.denom zero.numer
AlternateSubs2: "'aalt' Access All Alternates in Latin lookup 0 subtable" zero.p zero.u zero.sub zero.sup zero.denom zero.numer
Substitution2: "'pnum' Proportional Numbers in Latin lookup 10 subtable" zero.p
Substitution2: "lining_figures subtable" zero.u
Substitution2: "'subs' Subscript in Latin lookup 8 subtable" zero.sub
Substitution2: "'sups' Superscript in Latin lookup 7 subtable" zero.sup
Substitution2: "denominators subtable" zero.denom
Substitution2: "numerators subtable" zero.numer
EndChar

StartChar: one
Encoding: 49 49 53
Width: 500
VWidth: 0
Flags: W
HStem: -3 31<127.003 192.945 270.33 343.999> 355 33<170.003 240.672 314.432 380.999>
VStem: 127 254
AnchorPoint: "l;bl" 0 10 basechar 0
AnchorPoint: "l;x" 0 380 basechar 0
AnchorPoint: "l;hi" 0 650 basechar 0
AnchorPoint: "l;o" 0 200 basechar 0
AnchorPoint: "l;lo" 0 -260 basechar 0
AnchorPoint: "r;bl" 500 10 basechar 0
AnchorPoint: "r;x" 500 380 basechar 0
AnchorPoint: "r;hi" 500 650 basechar 0
AnchorPoint: "r;o" 500 200 basechar 0
AnchorPoint: "r;lo" 500 -260 basechar 0
LayerCount: 3
Back
SplineSet
314.955078125 345.48046875 m 4
 302.958984375 266.506835938 283.962890625 140.520507812 269.977539062 36.6337890625 c 5
 269.15625 29.2431640625 270.073242188 28 279 28 c 4
 330 28 l 4
 341.849609375 28 344 21.36328125 344 12 c 4
 344 3.0947265625 343.171875 -5 330 -5 c 4
 310.872070312 -5 258.896484375 -3 234 -3 c 4
 209.107421875 -3 160.1328125 -5 141 -5 c 4
 128.236328125 -5 127 0.939453125 127 12 c 4
 127 21.7626953125 129.623046875 28 144 28 c 4
 184 28 l 4
 193.447265625 28 189.913085938 26.8603515625 192.0546875 37.572265625 c 4
 211.80859375 139.3046875 241.907226562 342.01171875 241.959960938 344.291992188 c 4
 242.203125 358.256835938 244.495117188 355 237 355 c 4
 184 355 l 4
 172.150390625 355 170 361.63671875 170 371 c 4
 170 379.905273438 170.828125 388 184 388 c 4
 203.1328125 388 252.106445312 386 277 386 c 4
 301.888671875 386 347.861328125 388 367 388 c 4
 379.763671875 388 381 382.060546875 381 371 c 4
 381 361.237304688 378.376953125 355 364 355 c 4
 325 355 l 4
 315.198242188 355 316.930664062 355.357421875 314.955078125 345.48046875 c 4
EndSplineSet
Fore
SplineSet
315 345 m 0
 303 266 283 141 269 37 c 0
 268 30 270 28 279 28 c 2
 332 28 l 2
 344 28 344 21 344 12 c 0
 344 3 343 -5 332 -5 c 0
 313 -5 275 -3 234 -3 c 0
 200 -3 151 -5 139 -5 c 0
 128 -5 127 1 127 12 c 0
 127 22 128 28 142 28 c 2
 184 28 l 2
 193 28 190 27 192 38 c 0
 212 140 242 342 242 344 c 0
 243 352 244 355 237 355 c 2
 182 355 l 2
 170 355 170 362 170 371 c 0
 170 380 171 388 182 388 c 0
 201 388 252 386 277 386 c 0
 302 386 350 388 369 388 c 0
 381 388 381 382 381 371 c 0
 381 361 380 355 366 355 c 2
 325 355 l 2
 315 355 317 355 315 345 c 0
EndSplineSet
AlternateSubs2: "'aalt' Access All Alternates lookup 0 subtable" one.p one.u one.sub one.sup one.denom one.numer
AlternateSubs2: "'aalt' Access All Alternates in Latin lookup 0 subtable" one.p one.u one.sub one.sup one.denom one.numer
Substitution2: "'pnum' Proportional Numbers in Latin lookup 10 subtable" one.p
Substitution2: "lining_figures subtable" one.u
Substitution2: "'subs' Subscript in Latin lookup 8 subtable" one.sub
Substitution2: "'sups' Superscript in Latin lookup 7 subtable" one.sup
Substitution2: "denominators subtable" one.denom
Substitution2: "numerators subtable" one.numer
EndChar

StartChar: two
Encoding: 50 50 54
Width: 500
VWidth: 0
Flags: W
HStem: -3 64<145 409.191> 356 41<162.9 265.331>
VStem: 292 75<219.008 329.414>
AnchorPoint: "l;bl" 0 10 basechar 0
AnchorPoint: "l;x" 0 380 basechar 0
AnchorPoint: "l;hi" 0 650 basechar 0
AnchorPoint: "l;o" 0 200 basechar 0
AnchorPoint: "l;lo" 0 -260 basechar 0
AnchorPoint: "r;bl" 500 10 basechar 0
AnchorPoint: "r;x" 500 380 basechar 0
AnchorPoint: "r;hi" 500 650 basechar 0
AnchorPoint: "r;o" 500 200 basechar 0
AnchorPoint: "r;lo" 500 -260 basechar 0
LayerCount: 3
Back
SplineSet
64.037109375 30.271484375 m 4
 94.595703125 58.79296875 165.296875 97.5009765625 220.006835938 146.2421875 c 4
 255.916992188 178.162109375 292 219.5625 292 266 c 4
 292 315.848632812 263.034179688 356 211 356 c 4
 146.415039062 356 99.7216796875 275 90 275 c 4
 82.46875 275 69 284.524414062 69 294 c 4
 69 307.163085938 150.83203125 397 239 397 c 4
 323.3125 397 367 352.610351562 367 280 c 4
 367 192.3359375 228.067382812 111.149414062 168.502929688 76.4033203125 c 4
 156.6953125 69.5673828125 148.66015625 64.0927734375 144.762695312 61 c 5
 394 61 l 4
 400.51171875 61 420.3046875 109 429 109 c 4
 433.716796875 109 450 105.186523438 450 98 c 4
 450 88.6142578125 422.720703125 43.7275390625 406.78515625 4.8857421875 c 4
 404.352539062 -1.1962890625 400.383789062 -3 393 -3 c 4
 69 -3 l 4
 56.95703125 -3 51 3.1298828125 51 11 c 4
 51 18.998046875 59.0126953125 26.251953125 64.037109375 30.271484375 c 4
EndSplineSet
Fore
SplineSet
64 30 m 0
 95 59 165 97 220 146 c 0
 256 178 292 220 292 266 c 0
 292 316 263 356 211 356 c 0
 146 356 96 275 90 275 c 0
 84 275 69 285 69 294 c 0
 69 302 148 397 239 397 c 0
 323 397 367 353 367 280 c 0
 367 192 229 111 169 76 c 0
 157 69 149 64 145 61 c 1
 394 61 l 2
 400 61 423 110 427 110 c 0
 432 110 450 103 450 100 c 0
 450 93 422 44 407 5 c 0
 405 -1 402 -3 395 -3 c 2
 69 -3 l 2
 57 -3 51 3 51 11 c 0
 51 19 59 26 64 30 c 0
EndSplineSet
AlternateSubs2: "'aalt' Access All Alternates lookup 0 subtable" two.p two.u two.sub two.sup two.denom two.numer
AlternateSubs2: "'aalt' Access All Alternates in Latin lookup 0 subtable" two.p two.u two.sub two.sup two.denom two.numer
Substitution2: "'pnum' Proportional Numbers in Latin lookup 10 subtable" two.p
Substitution2: "lining_figures subtable" two.u
Substitution2: "'subs' Subscript in Latin lookup 8 subtable" two.sub
Substitution2: "'sups' Superscript in Latin lookup 7 subtable" two.sup
Substitution2: "denominators subtable" two.denom
Substitution2: "numerators subtable" two.numer
EndChar

StartChar: three
Encoding: 51 51 55
Width: 500
VWidth: 0
Flags: W
HStem: -217 31<159.25 260.752> 70 38<133.217 206.451> 356 34<176.873 295.329>
VStem: 324 64<212.93 331.84> 346 72<-101.236 31.9438>
AnchorPoint: "l;bl" 0 10 basechar 0
AnchorPoint: "l;x" 0 380 basechar 0
AnchorPoint: "l;hi" 0 650 basechar 0
AnchorPoint: "l;o" 0 200 basechar 0
AnchorPoint: "l;lo" 0 -260 basechar 0
AnchorPoint: "r;bl" 500 10 basechar 0
AnchorPoint: "r;x" 500 380 basechar 0
AnchorPoint: "r;hi" 500 650 basechar 0
AnchorPoint: "r;o" 500 200 basechar 0
AnchorPoint: "r;lo" 500 -260 basechar 0
LayerCount: 3
Back
SplineSet
263 390 m 4xf0
 335.033203125 390 388 352.9765625 388 281 c 4xf0
 388 192.884765625 289.3359375 142.987304688 268.264648438 130.758789062 c 5
 296.537109375 124.317382812 418 106.815429688 418 -21 c 4
 418 -130.142578125 305.27734375 -217 195 -217 c 4
 96.404296875 -217 53 -164.96484375 53 -146 c 4
 53 -130.665039062 82.6044921875 -131 91 -131 c 4
 101.064453125 -131 117.142578125 -131.78515625 127.260742188 -143.02734375 c 5
 138.267578125 -156.03515625 165.555664062 -186 205 -186 c 4
 276.068359375 -186 346 -111.424804688 346 -35 c 4xe8
 346 40.814453125 291.301757812 73 208 73 c 4
 187.154296875 73 158.471679688 70 153 70 c 4
 141.965820312 70 133 72.505859375 133 84 c 4
 133 101.221679688 138.166992188 102.8828125 154.14453125 107.875976562 c 5
 252.94921875 135.8203125 324 184.090820312 324 272 c 4
 324 321.610351562 293.272460938 356 244 356 c 4
 178.532226562 356 142.150390625 321 133 321 c 4
 124.760742188 321 119 334.400390625 119 341 c 4
 119 352.533203125 198.625 390 263 390 c 4xf0
EndSplineSet
Fore
SplineSet
263 390 m 0xf0
 335 390 388 353 388 281 c 0xf0
 388 193 289 143 268 131 c 1
 296 125 418 107 418 -21 c 0
 418 -130 305 -217 195 -217 c 0
 96 -217 53 -165 53 -146 c 0
 53 -131 83 -131 91 -131 c 0
 101 -131 117 -132 127 -143 c 0
 138 -156 166 -186 205 -186 c 0
 276 -186 346 -111 346 -35 c 0xe8
 346 41 291 73 208 73 c 0
 187 73 157 70 152 70 c 0
 139 70 133 72 133 84 c 0
 133 101 138 103 154 108 c 0
 253 136 324 184 324 272 c 0
 324 322 293 356 244 356 c 0
 179 356 141 320 132 320 c 0
 128 320 118 335 118 340 c 0
 118 352 199 390 263 390 c 0xf0
EndSplineSet
AlternateSubs2: "'aalt' Access All Alternates lookup 0 subtable" three.p three.u three.sub three.sup three.denom three.numer
AlternateSubs2: "'aalt' Access All Alternates in Latin lookup 0 subtable" three.p three.u three.sub three.sup three.denom three.numer
Substitution2: "'pnum' Proportional Numbers in Latin lookup 10 subtable" three.p
Substitution2: "lining_figures subtable" three.u
Substitution2: "'subs' Subscript in Latin lookup 8 subtable" three.sub
Substitution2: "'sups' Superscript in Latin lookup 7 subtable" three.sup
Substitution2: "denominators subtable" three.denom
Substitution2: "numerators subtable" three.numer
EndChar

StartChar: four
Encoding: 52 52 56
Width: 500
VWidth: 0
Flags: W
HStem: -3 60<108.004 267.201 353.781 458> 375 20G<382 394.5>
VStem: 235 78<-207.763 -82.5373>
DStem2: 122 126 121 83 0.682564 0.730826<-54.726 261.624> 244.857 -215 307.544 -215 0.156434 0.987688<288.521 518.083>
AnchorPoint: "l;bl" 0 10 basechar 0
AnchorPoint: "l;x" 0 380 basechar 0
AnchorPoint: "l;hi" 0 650 basechar 0
AnchorPoint: "l;o" 0 200 basechar 0
AnchorPoint: "l;lo" 0 -260 basechar 0
AnchorPoint: "r;bl" 500 10 basechar 0
AnchorPoint: "r;x" 500 380 basechar 0
AnchorPoint: "r;hi" 500 650 basechar 0
AnchorPoint: "r;o" 500 200 basechar 0
AnchorPoint: "r;lo" 500 -260 basechar 0
LayerCount: 3
Back
SplineSet
402.9609375 367.516601562 m 6
 352.958984375 71.5068359375 l 4
 350.20703125 54.99609375 351.522460938 57 365 57 c 4
 448 57 l 4
 455.1171875 57 458 54.5009765625 458 44 c 4
 458 10 l 4
 458 -0.9443359375 455.392578125 -3 443 -3 c 4
 346 -3 l 4
 339.387695312 -3 337.25 -3.556640625 337.25 -3.556640625 c 5
 336.990234375 -3.958984375 336.779296875 -7.263671875 335.981445312 -14.3369140625 c 4
 329.03515625 -75.857421875 313.096679688 -189.62109375 313.017578125 -192.384765625 c 5
 312.84375 -203.231445312 308.891601562 -204.090820312 295.594726562 -206.940429688 c 5
 253.52734375 -214.953125 l 5
 245.561523438 -216.28125 232.3125 -210.241210938 236.051757812 -190.443359375 c 4
 270.0546875 -10.427734375 l 5
 272.388671875 1.23828125 269.884765625 -3 253 -3 c 4
 64 -3 l 4
 57.0048828125 -3 43 -2.69921875 43 8 c 4
 43 25.033203125 64.712890625 57.8544921875 87.2900390625 87.8056640625 c 4
 97.4609375 101.297851562 111.614257812 113.94921875 121.705078125 125.932617188 c 4
 174.434570312 188.548828125 227.665039062 240.6796875 284.796875 300.037109375 c 5
 292.578125 308.791015625 373.809570312 395 390 395 c 4
 400.53125 395 406.0234375 386.911132812 402.9609375 367.516601562 c 6
318.155273438 292.912109375 m 6
 121.155273438 82.912109375 l 5
 111.059570312 72.81640625 105 64.109375 105 60 c 4
 105 59.9375 106.666992188 57 127 57 c 4
 274 57 l 4
 290.741210938 57 286.999023438 56.244140625 290.0390625 74.4794921875 c 4
 325.04296875 290.508789062 l 5
 325.719726562 294.23046875 325.037109375 295.854492188 324.748046875 296.19921875 c 4
 324.6953125 296.260742188 322.631835938 297.388671875 318.155273438 292.912109375 c 6
EndSplineSet
Fore
SplineSet
337 -8 m 0
 330 -69 313 -189 313 -192 c 0
 311 -205 306 -205 296 -207 c 2
 296 -207 254 -215 252 -215 c 0
 245 -215 235 -211 235 -197 c 0
 235 -193 259 -69 270 -10 c 0
 271 -4 271 -3 262 -3 c 2
 64 -3 l 2
 57 -3 43 -3 43 8 c 0
 43 25 64 58 87 88 c 0
 97 101 112 114 122 126 c 0
 175 189 228 241 285 300 c 0
 293 309 374 395 390 395 c 0
 399 395 404 390 404 378 c 0
 404 375 404 372 403 368 c 2
 353 72 l 2
 351 62 350 57 361 57 c 2
 448 57 l 2
 455 57 458 55 458 44 c 2
 458 10 l 2
 458 -1 455 -3 443 -3 c 2
 344 -3 l 2
 336 -3 338 -3 337 -8 c 0
318 293 m 2
 121 83 l 2
 113 75 108 68 108 64 c 0
 108 60 113 57 127 57 c 2
 274 57 l 2
 285 57 287 58 290 74 c 2
 325 291 l 2
 326 295 325 297 324 297 c 0
 323 297 320 295 318 293 c 2
EndSplineSet
AlternateSubs2: "'aalt' Access All Alternates lookup 0 subtable" four.p four.u four.sub four.sup four.denom four.numer
AlternateSubs2: "'aalt' Access All Alternates in Latin lookup 0 subtable" four.p four.u four.sub four.sup four.denom four.numer
Substitution2: "'pnum' Proportional Numbers in Latin lookup 10 subtable" four.p
Substitution2: "lining_figures subtable" four.u
Substitution2: "'subs' Subscript in Latin lookup 8 subtable" four.sub
Substitution2: "'sups' Superscript in Latin lookup 7 subtable" four.sup
Substitution2: "denominators subtable" four.denom
Substitution2: "numerators subtable" four.numer
EndChar

StartChar: five
Encoding: 53 53 57
Width: 500
VWidth: 0
Flags: MW
HStem: -215 29<55.0554 143.609> 319 62<199.147 372.338> 378 20G<408.5 413>
VStem: 120 45<164 234.889> 290 68<-71.516 57.5806> 396 38<366.236 397.548>
AnchorPoint: "l;bl" 0 10 basechar 0
AnchorPoint: "l;x" 0 380 basechar 0
AnchorPoint: "l;hi" 0 650 basechar 0
AnchorPoint: "l;o" 0 200 basechar 0
AnchorPoint: "l;lo" 0 -260 basechar 0
AnchorPoint: "r;bl" 500 10 basechar 0
AnchorPoint: "r;x" 500 380 basechar 0
AnchorPoint: "r;hi" 500 650 basechar 0
AnchorPoint: "r;o" 500 200 basechar 0
AnchorPoint: "r;lo" 500 -260 basechar 0
LayerCount: 3
Back
SplineSet
64.8837890625 -186 m 4
 167.665039062 -178.016601562 290 -133.4140625 290 -5 c 4
 290 103.82421875 120 147.853515625 120 180 c 4
 120 195.93359375 162.131835938 292.880859375 187.14453125 372.921875 c 4
 189.994140625 381.467773438 199.5859375 381 205 381 c 4
 213.469726562 381 362.4296875 366 373 366 c 4
 389.869140625 366 392.1875 364.083984375 396.31640625 372.341796875 c 4
 401.446289062 382.600585938 404.064453125 398 411 398 c 4
 417.328125 398 434 395.182617188 434 387 c 4
 434 379.143554688 417.84765625 342.048828125 408.817382812 317.96875 c 5
 403.984375 304.436523438 402.6015625 297 386 297 c 4
 372.216796875 297 302.639648438 309.021484375 223.662109375 319.018554688 c 5
 213.344726562 320.05078125 201.4453125 319.182617188 198.69140625 313.673828125 c 5
 182.049804688 279.411132812 165.49609375 228.484375 165.0078125 222.198242188 c 5
 173.002929688 208.803710938 358 146.659179688 358 9 c 4
 358 -132.706054688 185.670898438 -215 66 -215 c 4
 58.5712890625 -215 55 -208.41796875 55 -199 c 4
 55 -191.4921875 57.7421875 -186 64.8837890625 -186 c 4
EndSplineSet
Fore
SplineSet
65 -186 m 0xdc
 168 -178 290 -133 290 -5 c 0
 290 104 120 148 120 180 c 0
 120 196 162 293 187 373 c 0
 190 381 197 381 203 381 c 0xdc
 212 381 361 366 373 366 c 0
 390 366 392 364 396 372 c 0
 401 382 407 398 410 398 c 0xbc
 416 398 434 395 434 387 c 0
 434 383 418 342 409 318 c 0
 404 305 403 297 386 297 c 0
 372 297 303 309 224 319 c 0
 214 320 202 320 199 314 c 0
 183 281 165 228 165 223 c 0
 165 213 358 147 358 9 c 0
 358 -133 186 -215 66 -215 c 0
 59 -215 55 -208 55 -199 c 0
 55 -191 58 -186 65 -186 c 0xdc
EndSplineSet
AlternateSubs2: "'aalt' Access All Alternates lookup 0 subtable" five.p five.u five.sub five.sup five.denom five.numer
AlternateSubs2: "'aalt' Access All Alternates in Latin lookup 0 subtable" five.p five.u five.sub five.sup five.denom five.numer
Substitution2: "'pnum' Proportional Numbers in Latin lookup 10 subtable" five.p
Substitution2: "lining_figures subtable" five.u
Substitution2: "'subs' Subscript in Latin lookup 8 subtable" five.sub
Substitution2: "'sups' Superscript in Latin lookup 7 subtable" five.sup
Substitution2: "denominators subtable" five.denom
Substitution2: "numerators subtable" five.numer
EndChar

StartChar: six
Encoding: 54 54 58
Width: 500
VWidth: 0
Flags: W
HStem: -8 35<176.886 285.039> 340 27<164.855 294.165> 639 31<405.699 448.362>
VStem: 52 67<84.6393 295.237> 351 75<98.1988 285.982>
AnchorPoint: "l;bl" 0 10 basechar 0
AnchorPoint: "l;x" 0 380 basechar 0
AnchorPoint: "l;hi" 0 650 basechar 0
AnchorPoint: "l;o" 0 200 basechar 0
AnchorPoint: "l;lo" 0 -260 basechar 0
AnchorPoint: "r;bl" 500 10 basechar 0
AnchorPoint: "r;x" 500 380 basechar 0
AnchorPoint: "r;hi" 500 650 basechar 0
AnchorPoint: "r;o" 500 200 basechar 0
AnchorPoint: "r;lo" 500 -260 basechar 0
LayerCount: 3
Back
SplineSet
439.032226562 639.181640625 m 4
 389.219726562 619.256835938 347.7421875 596.508789062 310.083984375 559.842773438 c 4
 251.33984375 503.088867188 198.415039062 433.123046875 175.701171875 387.694335938 c 5
 169.48046875 374.36328125 163.387695312 362.501953125 162.255859375 355.921875 c 5
 168.04296875 356.670898438 175.015625 357.993164062 185.447265625 359.948242188 c 4
 201.513671875 362.9609375 225.6875 367 251 367 c 4
 356.439453125 367 426 304.556640625 426 191 c 4
 426 67.203125 331.392578125 -8 222 -8 c 4
 142.827148438 -8 52 30.3134765625 52 187 c 4
 52 343.290039062 150.654296875 478.93359375 247.036132812 563.267578125 c 4
 329.451171875 634.626953125 418.296875 670 436 670 c 4
 445.5078125 670 449 655.830078125 449 648 c 4
 449 641.92578125 441.405273438 639.97265625 439.032226562 639.181640625 c 4
119 173 m 4
 119 122.208984375 141.828125 27 233 27 c 4
 304.340820312 27 351 108.5703125 351 197 c 4
 351 270.572265625 328.642578125 340 234 340 c 4
 212.212890625 340 159.897460938 329.1328125 153.416992188 320.223632812 c 5
 128.192382812 286.266601562 119 216.71875 119 173 c 4
EndSplineSet
Fore
SplineSet
162 356 m 1
 188.43336352 360.405560587 214.932783597 367 251 367 c 0
 356 367 426 305 426 191 c 0
 426 67 331 -8 222 -8 c 0
 143 -8 52 30 52 187 c 0
 52 343 151 479 247 563 c 0
 329 634 418 670 436 670 c 0
 446 670 449 656 449 648 c 0
 449 642 441 640 439 639 c 0
 389 619 348 597 310 560 c 0
 251 503 198.597760856 433.195521712 176 388 c 0
 169.597760856 375.195521712 163 363 162 356 c 1
119 173 m 0
 119 122 142 27 233 27 c 0
 304 27 351 109 351 197 c 0
 351 271 329 340 234 340 c 0
 212 340 159.324508529 328.772705379 153 320 c 0
 128.324508529 285.772705379 119 217 119 173 c 0
EndSplineSet
AlternateSubs2: "'aalt' Access All Alternates lookup 0 subtable" six.p six.u six.sub six.sup six.denom six.numer
AlternateSubs2: "'aalt' Access All Alternates in Latin lookup 0 subtable" six.p six.u six.sub six.sup six.denom six.numer
Substitution2: "'pnum' Proportional Numbers in Latin lookup 10 subtable" six.p
Substitution2: "lining_figures subtable" six.u
Substitution2: "'subs' Subscript in Latin lookup 8 subtable" six.sub
Substitution2: "'sups' Superscript in Latin lookup 7 subtable" six.sup
Substitution2: "denominators subtable" six.denom
Substitution2: "numerators subtable" six.numer
EndChar

StartChar: seven
Encoding: 55 55 59
Width: 500
VWidth: 0
Flags: W
HStem: 332 64<128.936 393.999> 407 20G<105 114>
VStem: 62 33<274.176 306.538> 87 49<-210.953 -148.254> 95 35<398.241 426.941>
AnchorPoint: "l;bl" 0 10 basechar 0
AnchorPoint: "l;x" 0 380 basechar 0
AnchorPoint: "l;hi" 0 650 basechar 0
AnchorPoint: "l;o" 0 200 basechar 0
AnchorPoint: "l;lo" 0 -260 basechar 0
AnchorPoint: "r;bl" 500 10 basechar 0
AnchorPoint: "r;x" 500 380 basechar 0
AnchorPoint: "r;hi" 500 650 basechar 0
AnchorPoint: "r;o" 500 200 basechar 0
AnchorPoint: "r;lo" 500 -260 basechar 0
LayerCount: 3
Fore
SplineSet
110 427 m 0xc8
 118 427 130 426 130 415 c 0xc8
 130 409 128 403 128 397 c 1
 135 396 153 396 176 396 c 2
 444 396 l 2
 451 396 460 395 460 384 c 0
 460 367 293 100 245 18 c 0
 207 -47 163 -123 136 -196 c 0
 132 -207 129 -213 121 -213 c 0
 107 -213 87 -204 87 -190 c 0xd0
 87 -125 320 204 389 316 c 0
 392 321 394 325 394 327 c 0
 394 330 393 332 383 332 c 2
 190 332 l 2
 161 332 114 329 108 325 c 1
 95 285 l 2
 93 281 92 274 82 274 c 0
 75 274 62 276 62 286 c 0xe0
 62 298 84 342 95 404 c 0
 97 418 100 427 110 427 c 0xc8
EndSplineSet
AlternateSubs2: "'aalt' Access All Alternates lookup 0 subtable" seven.p seven.u seven.sub seven.sup seven.denom seven.numer
AlternateSubs2: "'aalt' Access All Alternates in Latin lookup 0 subtable" seven.p seven.u seven.sub seven.sup seven.denom seven.numer
Substitution2: "'pnum' Proportional Numbers in Latin lookup 10 subtable" seven.p
Substitution2: "lining_figures subtable" seven.u
Substitution2: "'subs' Subscript in Latin lookup 8 subtable" seven.sub
Substitution2: "'sups' Superscript in Latin lookup 7 subtable" seven.sup
Substitution2: "denominators subtable" seven.denom
Substitution2: "numerators subtable" seven.numer
EndChar

StartChar: eight
Encoding: 56 56 60
Width: 500
VWidth: 0
Flags: W
HStem: -6 31<177.875 281.322> 635 29<215.934 320.319>
VStem: 67 60<69.4843 209.406> 108 59<462.589 583.258> 338 65<75.6822 206.897> 368 55<453.519 595.145>
AnchorPoint: "l;bl" 0 10 basechar 0
AnchorPoint: "l;x" 0 380 basechar 0
AnchorPoint: "l;hi" 0 650 basechar 0
AnchorPoint: "l;o" 0 200 basechar 0
AnchorPoint: "l;lo" 0 -260 basechar 0
AnchorPoint: "r;bl" 500 10 basechar 0
AnchorPoint: "r;x" 500 380 basechar 0
AnchorPoint: "r;hi" 500 650 basechar 0
AnchorPoint: "r;o" 500 200 basechar 0
AnchorPoint: "r;lo" 500 -260 basechar 0
LayerCount: 3
Fore
SplineSet
403 150 m 0xc8
 403 58 320 -6 218 -6 c 0
 130 -6 67 37 67 130 c 0xe8
 67 246 193 316 207 329 c 1
 195 342 108 411 108 500 c 0
 108 596 180 664 283 664 c 0
 365 664 423 615 423 527 c 0xd4
 423 427 304 357 292 344 c 1
 304 331 403 254 403 150 c 0xc8
225 312 m 1
 212 308 127 240 127 145 c 0
 127 70 176 25 227 25 c 0
 291 25 338 80 338 140 c 0
 338 215 237 306 225 312 c 1
368 525 m 0xd4
 368 587 330 635 269 635 c 0
 202 635 167 581 167 534 c 0
 167 458 260 367 271 362 c 1
 284 366 368 438 368 525 c 0xd4
EndSplineSet
AlternateSubs2: "'aalt' Access All Alternates lookup 0 subtable" eight.p eight.u eight.sub eight.sup eight.denom eight.numer
AlternateSubs2: "'aalt' Access All Alternates in Latin lookup 0 subtable" eight.p eight.u eight.sub eight.sup eight.denom eight.numer
Substitution2: "'pnum' Proportional Numbers in Latin lookup 10 subtable" eight.p
Substitution2: "lining_figures subtable" eight.u
Substitution2: "'subs' Subscript in Latin lookup 8 subtable" eight.sub
Substitution2: "'sups' Superscript in Latin lookup 7 subtable" eight.sup
Substitution2: "denominators subtable" eight.denom
Substitution2: "numerators subtable" eight.numer
EndChar

StartChar: nine
Encoding: 57 57 61
Width: 500
VWidth: 0
Flags: W
HStem: -208 39<39.1841 109.787> 22 33<194.208 310.156> 365 32<239.116 342.099>
VStem: 85 65<95.7049 272.237> 384 64<117.385 310.365>
AnchorPoint: "l;bl" 0 10 basechar 0
AnchorPoint: "l;x" 0 380 basechar 0
AnchorPoint: "l;hi" 0 650 basechar 0
AnchorPoint: "l;o" 0 200 basechar 0
AnchorPoint: "l;lo" 0 -260 basechar 0
AnchorPoint: "r;bl" 500 10 basechar 0
AnchorPoint: "r;x" 500 380 basechar 0
AnchorPoint: "r;hi" 500 650 basechar 0
AnchorPoint: "r;o" 500 200 basechar 0
AnchorPoint: "r;lo" 500 -260 basechar 0
LayerCount: 3
Back
SplineSet
448 203 m 4
 448 94 386 -9 307 -75 c 4
 197 -168 60 -208 51 -208 c 4
 41 -208 39 -192 39 -185 c 4
 39 -178 55 -175 73 -169 c 4
 161 -138 244 -60 307 16 c 4
 317 28 323 39 325 44 c 5
 318 42 308 37 301 35 c 4
 279 28 251 22 226 22 c 4
 141 22 85 90 85 192 c 4
 85 316 187 397 296 397 c 4
 393 397 448 316 448 203 c 4
EndSplineSet
Fore
SplineSet
448 203 m 0
 448 94 386 -9 307 -75 c 0
 197 -168 60 -208 51 -208 c 0
 41 -208 39 -192 39 -185 c 0
 39 -178 55 -175 73 -169 c 0
 161 -138 244 -60 307 16 c 0
 317 28 323 39 325 44 c 1
 318 42 308 37 301 35 c 0
 279 28 251 22 226 22 c 0
 141 22 85 90 85 192 c 0
 85 316 187 397 296 397 c 0
 393 397 448 316 448 203 c 0
295 365 m 0
 204 365 150 262 150 173 c 0
 150 105 181 55 253 55 c 0
 284 55 305 59 326 68 c 0
 359 82 384 165 384 240 c 0
 384 322 346 365 295 365 c 0
EndSplineSet
AlternateSubs2: "'aalt' Access All Alternates lookup 0 subtable" nine.p nine.u nine.sub nine.sup nine.denom nine.numer
AlternateSubs2: "'aalt' Access All Alternates in Latin lookup 0 subtable" nine.p nine.u nine.sub nine.sup nine.denom nine.numer
Substitution2: "'pnum' Proportional Numbers in Latin lookup 10 subtable" nine.p
Substitution2: "lining_figures subtable" nine.u
Substitution2: "'subs' Subscript in Latin lookup 8 subtable" nine.sub
Substitution2: "'sups' Superscript in Latin lookup 7 subtable" nine.sup
Substitution2: "denominators subtable" nine.denom
Substitution2: "numerators subtable" nine.numer
EndChar

StartChar: comma
Encoding: 44 44 63
Width: 195
VWidth: 0
Flags: HW
HStem: -151 250
VStem: 95 63<-38.597 29.9426>
AnchorPoint: "l;bl" 0 10 basechar 0
AnchorPoint: "l;o" 20 200 basechar 0
AnchorPoint: "r;bl" 195 10 basechar 0
AnchorPoint: "r;o" 195 200 basechar 0
LayerCount: 3
Back
SplineSet
42 68 m 4
 42 79.8251953125 80.666015625 99 98 99 c 4
 112.32421875 99 158 66.5341796875 158 16 c 4
 158 -49.0546875 31.7802734375 -151 24 -151 c 4
 15.2724609375 -151 4 -135.45703125 4 -127 c 4
 4 -121.2265625 26.66015625 -108.131835938 47.9033203125 -87.8544921875 c 5
 64.98046875 -70.77734375 95 -40.1826171875 95 -11 c 4
 95 -0.974609375 90.427734375 9.4228515625 80.6396484375 22.1484375 c 5
 65.2177734375 41.4248046875 42 59.00390625 42 68 c 4
EndSplineSet
Fore
SplineSet
41 68 m 0
 41 79 81 99 98 99 c 0
 112 99 158 67 158 16 c 0
 158 -49 32 -151 24 -151 c 0
 16 -151 4 -134 4 -126 c 0
 4 -123 27 -108 48 -88 c 0
 65 -71 95 -40 95 -11 c 0
 95 -1 91 9 81 22 c 0
 66 41 41 61 41 68 c 0
EndSplineSet
AlternateSubs2: "'aalt' Access All Alternates lookup 0 subtable" comma.sub comma.sup comma.denom comma.numer
AlternateSubs2: "'aalt' Access All Alternates in Latin lookup 0 subtable" comma.sub comma.sup comma.denom comma.numer
Substitution2: "'subs' Subscript in Latin lookup 8 subtable" comma.sub
Substitution2: "'sups' Superscript in Latin lookup 7 subtable" comma.sup
Substitution2: "denominators subtable" comma.denom
Substitution2: "numerators subtable" comma.numer
EndChar

StartChar: quotedblright
Encoding: 8221 8221 64
Width: 434
VWidth: 0
Flags: HW
HStem: 432 248
VStem: 121 61<523.33 647.821> 306 61<523.33 647.821>
AnchorPoint: "r;o" 414 200 basechar 0
AnchorPoint: "r;hi" 434 650 basechar 0
AnchorPoint: "r;x" 434 380 basechar 0
AnchorPoint: "l;o" 0 200 basechar 0
AnchorPoint: "l;hi" 20 650 basechar 0
AnchorPoint: "l;x" 0 380 basechar 0
LayerCount: 3
Fore
SplineSet
100 624 m 4
 100 654 137 681 150 681 c 4
 169 681 182 617 182 593 c 4
 182 511 80 432 76 432 c 4
 73 432 56 449 56 453 c 4
 56 458 121 510 121 541 c 4
 121 566 100 597 100 624 c 4
285 624 m 4
 285 654 322 681 335 681 c 4
 354 681 367 617 367 593 c 4
 367 511 265 432 261 432 c 4
 258 432 241 449 241 453 c 4
 241 458 306 510 306 541 c 4
 306 566 285 597 285 624 c 4
EndSplineSet
EndChar

StartChar: quotedblleft
Encoding: 8220 8220 65
Width: 414
VWidth: 0
Flags: HW
HStem: 432 248
VStem: 67 61<464.179 588.67> 252 61<464.179 588.67>
AnchorPoint: "r;o" 394 200 basechar 0
AnchorPoint: "r;hi" 414 650 basechar 0
AnchorPoint: "r;x" 414 380 basechar 0
AnchorPoint: "l;o" 0 200 basechar 0
AnchorPoint: "l;hi" 0 650 basechar 0
AnchorPoint: "l;x" 0 380 basechar 0
LayerCount: 3
Fore
SplineSet
334 489 m 4
 334 459 297 432 284 432 c 4
 265 432 252 496 252 520 c 4
 252 602 354 681 358 681 c 4
 361 681 378 664 378 660 c 4
 378 655 313 603 313 572 c 4
 313 547 334 516 334 489 c 4
149 489 m 4
 149 459 112 432 99 432 c 4
 80 432 67 496 67 520 c 4
 67 602 169 681 173 681 c 4
 176 681 193 664 193 660 c 4
 193 655 128 603 128 572 c 4
 128 547 149 516 149 489 c 4
EndSplineSet
EndChar

StartChar: quoteright
Encoding: 8217 8217 66
Width: 249
VWidth: 0
Flags: HW
HStem: 432 248
VStem: 121 61<523.33 647.821>
AnchorPoint: "l;x" 0 380 basechar 0
AnchorPoint: "l;hi" 20 650 basechar 0
AnchorPoint: "l;o" 0 200 basechar 0
AnchorPoint: "r;x" 249 380 basechar 0
AnchorPoint: "r;hi" 249 650 basechar 0
AnchorPoint: "r;o" 229 200 basechar 0
LayerCount: 3
Fore
SplineSet
100 624 m 0
 100 654 137 681 150 681 c 0
 169 681 182 617 182 593 c 0
 182 511 80 432 76 432 c 0
 73 432 56 449 56 453 c 0
 56 458 121 510 121 541 c 0
 121 566 100 597 100 624 c 0
EndSplineSet
EndChar

StartChar: quoteleft
Encoding: 8216 8216 67
Width: 229
VWidth: 0
Flags: HW
HStem: 432 248
VStem: 67 61<464.179 588.67>
AnchorPoint: "l;x" 0 380 basechar 0
AnchorPoint: "l;hi" 0 650 basechar 0
AnchorPoint: "l;o" 0 200 basechar 0
AnchorPoint: "r;x" 229 380 basechar 0
AnchorPoint: "r;hi" 229 650 basechar 0
AnchorPoint: "r;o" 209 200 basechar 0
LayerCount: 3
Back
SplineSet
149 489 m 4
 149 458.9921875 112.0546875 432 99 432 c 4
 79.509765625 432 67 496.068359375 67 520 c 4
 67 597.477539062 164.888671875 680 172 680 c 4
 178.545898438 680 192 665.170898438 192 659 c 4
 192 650.336914062 128 603.3984375 128 572 c 4
 128 547.420898438 149 516.419921875 149 489 c 4
EndSplineSet
Fore
SplineSet
149 489 m 4
 149 459 112 432 99 432 c 4
 80 432 67 496 67 520 c 4
 67 602 169 681 173 681 c 4
 176 681 193 664 193 660 c 4
 193 655 128 603 128 572 c 4
 128 547 149 516 149 489 c 4
EndSplineSet
EndChar

StartChar: period
Encoding: 46 46 68
Width: 210
VWidth: 0
Flags: HW
HStem: -11 104<70.1248 140.907>
VStem: 57 96<1.75971 80.4283>
AnchorPoint: "l;bl" 0 10 basechar 0
AnchorPoint: "l;o" 20 200 basechar 0
AnchorPoint: "r;bl" 210 10 basechar 0
AnchorPoint: "r;o" 210 200 basechar 0
LayerCount: 3
Fore
SplineSet
57 38 m 0
 57 66 85 93 106 93 c 0
 126 93 153 65 153 43 c 0
 153 6 122 -11 110 -11 c 0
 80 -11 57 21 57 38 c 0
EndSplineSet
AlternateSubs2: "'aalt' Access All Alternates lookup 0 subtable" period.sub period.sup period.denom period.numer
AlternateSubs2: "'aalt' Access All Alternates in Latin lookup 0 subtable" period.sub period.sup period.denom period.numer
Substitution2: "'subs' Subscript in Latin lookup 8 subtable" period.sub
Substitution2: "'sups' Superscript in Latin lookup 7 subtable" period.sup
Substitution2: "denominators subtable" period.denom
Substitution2: "numerators subtable" period.numer
EndChar

StartChar: colon
Encoding: 58 58 69
Width: 209
VWidth: 0
Flags: HW
HStem: -11 104<70.1248 140.907> 264 104<99.1248 169.907>
VStem: 57 96<1.75971 80.4283> 86 96<276.76 355.428>
AnchorPoint: "l;bl" 0 10 basechar 0
AnchorPoint: "l;x" 20 380 basechar 0
AnchorPoint: "l;o" 10 200 basechar 0
AnchorPoint: "r;bl" 209 10 basechar 0
AnchorPoint: "r;k;x" 239 380 basechar 0
AnchorPoint: "r;k;o" 229 200 basechar 0
LayerCount: 3
Fore
SplineSet
86 313 m 0xd0
 86 341 114 368 135 368 c 0
 155 368 182 340 182 318 c 0
 182 281 151 264 139 264 c 0
 109 264 86 296 86 313 c 0xd0
57 38 m 0xe0
 57 66 85 93 106 93 c 0
 126 93 153 65 153 43 c 0
 153 6 122 -11 110 -11 c 0
 80 -11 57 21 57 38 c 0xe0
EndSplineSet
EndChar

StartChar: semicolon
Encoding: 59 59 70
Width: 195
VWidth: 0
Flags: HW
HStem: 264 104<90.1248 160.907>
VStem: 77 96<276.76 355.428> 95 63<-38.597 29.9426>
AnchorPoint: "l;bl" 0 10 basechar 0
AnchorPoint: "r;k;o" 220 200 basechar 0
AnchorPoint: "r;k;x" 230 380 basechar 0
AnchorPoint: "l;o" 0 200 basechar 0
AnchorPoint: "l;x" 10 380 basechar 0
AnchorPoint: "r;bl" 195 10 basechar 0
LayerCount: 3
Back
SplineSet
41 68 m 4
 41 79 81 99 98 99 c 4
 112 99 158 67 158 16 c 4
 158 -49 32 -151 24 -151 c 4
 16 -151 4 -134 4 -126 c 4
 4 -123 27 -108 48 -88 c 4
 65 -71 95 -40 95 -11 c 4
 95 -1 91 9 81 22 c 4
 66 41 41 61 41 68 c 4
EndSplineSet
Fore
SplineSet
41 68 m 0
 41 79 81 99 98 99 c 0
 112 99 158 67 158 16 c 0
 158 -49 32 -151 24 -151 c 0
 16 -151 4 -134 4 -126 c 0
 4 -123 27 -108 48 -88 c 0
 65 -71 95 -40 95 -11 c 0
 95 -1 91 9 81 22 c 0
 66 41 41 61 41 68 c 0
77 313 m 0xc0
 77 341 105 368 126 368 c 0
 146 368 173 340 173 318 c 0
 173 281 142 264 130 264 c 0
 100 264 77 296 77 313 c 0xc0
EndSplineSet
EndChar

StartChar: hyphen
Encoding: 45 45 71
Width: 268
VWidth: 0
Flags: HW
HStem: 195 48.9814<30.7985 224.973> 203.05 47.9502<34.7482 234.991>
VStem: 27 209
AnchorPoint: "l;bl" 0 10 basechar 0
AnchorPoint: "l;x" 0 380 basechar 0
AnchorPoint: "l;o" 0 200 basechar 0
AnchorPoint: "r;bl" 268 10 basechar 0
AnchorPoint: "r;x" 268 380 basechar 0
AnchorPoint: "r;o" 268 200 basechar 0
LayerCount: 3
Back
SplineSet
47.6689453125 243.981445312 m 4xa0
 57.1748046875 245.038085938 224.665039062 251 231 251 c 4
 237.389648438 251 236 242.012695312 236 239 c 4
 236 226.909179688 233.30078125 205.20703125 225.759765625 203.049804688 c 5x60
 211.272460938 201.935546875 47.6416015625 195 34 195 c 4
 30.173828125 195 27 197.188476562 27 201 c 4
 27 215.939453125 35.20703125 242.596679688 47.6689453125 243.981445312 c 4xa0
EndSplineSet
Fore
SplineSet
48 244 m 0xa0
 58 245 226 251 232 251 c 0
 235 251 236 247 236 243 c 0
 236 230 234 204 226 203 c 0x60
 212 202 48 195 34 195 c 0
 30 195 27 195 27 201 c 0
 27 216 36 243 48 244 c 0xa0
EndSplineSet
AlternateSubs2: "'aalt' Access All Alternates lookup 0 subtable" hyphen.u hyphen.sub hyphen.sup hyphen.denom hyphen.numer
AlternateSubs2: "'aalt' Access All Alternates in Latin lookup 0 subtable" hyphen.u hyphen.sub hyphen.sup hyphen.denom hyphen.numer
Substitution2: "'case' Case-Sensitive Forms in Latin lookup 12 subtable" hyphen.u
Substitution2: "'subs' Subscript in Latin lookup 8 subtable" hyphen.sub
Substitution2: "'sups' Superscript in Latin lookup 7 subtable" hyphen.sup
Substitution2: "denominators subtable" hyphen.denom
Substitution2: "numerators subtable" hyphen.numer
EndChar

